<svg width="310" height="37" viewBox="0 0 310 37" fill="none" xmlns="http://www.w3.org/2000/svg">
<g clip-path="url(#clip0_673_1073)">
<path d="M89.784 10.668V26.6308H93.716C94.7195 26.6157 95.7098 26.3971 96.6283 25.9878C97.5468 25.5785 98.3749 24.987 99.0636 24.2481C100.477 22.7333 101.251 20.7197 101.219 18.6362C101.249 17.6013 101.077 16.5707 100.712 15.6034C100.347 14.6362 99.7973 13.7514 99.0937 13C98.4021 12.26 97.5683 11.6712 96.6434 11.2698C95.7185 10.8684 94.7223 10.6629 93.716 10.6659H89.786L89.784 10.668ZM93.716 5.66294C101.045 5.66294 106.589 11.4108 106.589 18.6362C106.589 25.8616 101.045 31.6419 93.716 31.6419H85.0439C84.9612 31.6409 84.8795 31.6233 84.8035 31.5903C84.7275 31.5573 84.6587 31.5095 84.601 31.4495C84.5433 31.3896 84.4978 31.3187 84.4671 31.241C84.4365 31.1633 84.4212 31.0802 84.4223 30.9965V6.33474C84.4223 5.97753 84.701 5.68729 85.0439 5.68729L93.716 5.66294ZM125.479 27.1869C128.808 27.1971 131.813 25.1248 133.094 21.9363C133.722 20.3785 133.89 18.6698 133.577 17.0173C133.265 15.3649 132.486 13.8397 131.334 12.6265C130.203 11.4333 128.74 10.6156 127.14 10.2815C125.539 9.94739 123.877 10.1126 122.371 10.7552C119.295 12.0704 117.286 15.1818 117.28 18.6362C117.28 23.3449 120.945 27.1646 125.481 27.1869M125.481 5.07435C133.195 5.07435 139.092 11.2281 139.092 18.6362C139.092 26.0443 133.195 32.198 125.479 32.198C117.765 32.198 111.918 26.0747 111.918 18.6362C111.918 11.1977 117.815 5.07435 125.479 5.07435M157.83 27.1869C162.367 27.1747 166.039 23.351 166.035 18.6423C166.029 13.9295 162.349 10.1139 157.814 10.1118C153.274 10.1118 149.593 13.9255 149.587 18.6362C149.587 20.9053 150.455 23.081 152.001 24.6844C152.757 25.4746 153.663 26.1032 154.664 26.533C155.665 26.9629 156.74 27.1852 157.828 27.1869M157.828 5.07435C165.517 5.07435 171.414 11.1977 171.414 18.6362C171.414 26.0747 165.493 32.198 157.828 32.198C150.164 32.198 144.217 26.0747 144.217 18.6362C144.217 11.1977 150.114 5.07435 157.828 5.07435ZM189.4 10.668H183.856V17.5382H189.4C189.838 17.5578 190.276 17.4864 190.685 17.3283C191.095 17.1701 191.468 16.9287 191.782 16.6188C192.424 15.9896 192.789 15.1169 192.797 14.1995C192.813 13.7341 192.736 13.2701 192.571 12.8356C192.405 12.401 192.155 12.0047 191.834 11.6706C191.52 11.3417 191.141 11.0832 190.721 10.9115C190.302 10.7399 189.852 10.659 189.4 10.674V10.668ZM178.492 6.33474C178.492 5.97753 178.773 5.68729 179.116 5.68729H189.555C194.531 5.68729 198.132 9.47251 198.132 14.2259C198.171 17.4408 196.436 20.3938 193.667 21.8328L198.481 30.6677C198.548 30.7692 198.585 30.8875 198.59 31.0093C198.594 31.1311 198.565 31.2517 198.505 31.3578C198.447 31.4622 198.361 31.5475 198.257 31.6036C198.152 31.6597 198.034 31.6843 197.916 31.6744H193.691C193.574 31.6761 193.459 31.6442 193.359 31.5824C193.259 31.5207 193.178 31.4315 193.126 31.3253L188.486 22.5817H183.836V30.9762C183.837 31.0601 183.822 31.1434 183.792 31.2213C183.761 31.2993 183.716 31.3704 183.658 31.4305C183.6 31.4907 183.531 31.5387 183.455 31.5719C183.379 31.605 183.297 31.6226 183.214 31.6237H179.144C179.061 31.6226 178.979 31.605 178.903 31.5719C178.827 31.5387 178.758 31.4907 178.7 31.4305C178.643 31.3704 178.597 31.2993 178.567 31.2213C178.536 31.1434 178.521 31.0601 178.522 30.9762L178.494 6.33677L178.492 6.33474ZM212.112 10.7897V26.7546H216.042C217.045 26.7409 218.036 26.5236 218.955 26.1157C219.873 25.7079 220.702 25.1177 221.392 24.38C222.806 22.8669 223.581 20.8549 223.551 18.7722C223.583 17.736 223.413 16.7037 223.049 15.7347C222.685 14.7656 222.136 13.879 221.432 13.1258C220.739 12.3846 219.904 11.7951 218.977 11.3936C218.05 10.9922 217.052 10.7873 216.044 10.7918L212.112 10.7897ZM216.042 5.77863C223.371 5.77863 228.915 11.5326 228.915 18.7722C228.915 26.0118 223.371 31.7657 216.042 31.7657H207.396C207.313 31.7647 207.231 31.7471 207.155 31.7139C207.079 31.6808 207.01 31.6328 206.952 31.5726C206.895 31.5125 206.849 31.4414 206.819 31.3634C206.788 31.2854 206.773 31.2021 206.774 31.1183V6.45854C206.774 6.0993 207.053 5.80907 207.396 5.80907L216.044 5.77863H216.042ZM245.269 12.1272L242.227 20.6638H248.304L245.269 12.1272ZM240.442 25.4881L238.451 31.171C238.411 31.3048 238.329 31.4212 238.216 31.5021C238.104 31.5829 237.968 31.6235 237.83 31.6176H233.511C233.401 31.6279 233.29 31.6082 233.19 31.5603C233.09 31.5125 233.005 31.4383 232.943 31.3456C232.88 31.2518 232.842 31.1431 232.833 31.0301C232.823 30.917 232.843 30.8034 232.889 30.7002L242.221 6.06277C242.264 5.93285 242.349 5.82088 242.461 5.74394C242.573 5.667 242.707 5.62929 242.843 5.63655H247.675C247.811 5.62883 247.945 5.66633 248.058 5.7433C248.17 5.82028 248.255 5.9325 248.298 6.06277L257.63 30.7002C257.677 30.8036 257.696 30.9173 257.686 31.0303C257.676 31.1434 257.638 31.252 257.574 31.3456C257.512 31.4379 257.427 31.5117 257.327 31.5592C257.227 31.6067 257.116 31.6261 257.007 31.6155H252.69C252.552 31.6215 252.416 31.5809 252.303 31.5C252.191 31.4192 252.108 31.3027 252.068 31.169L250.077 25.4861H240.442V25.4881ZM262.637 12.6813C262.637 8.60181 266.034 5.07435 271.397 5.07435C274.286 5.00906 277.082 6.10273 279.177 8.11673C279.241 8.17782 279.292 8.25144 279.327 8.3331C279.361 8.41476 279.379 8.50275 279.379 8.59166C279.379 8.68058 279.361 8.76856 279.327 8.85022C279.292 8.93189 279.241 9.00551 279.177 9.06659L276.785 11.5326C276.728 11.5925 276.659 11.6401 276.584 11.6726C276.508 11.7052 276.426 11.722 276.344 11.722C276.262 11.722 276.18 11.7052 276.104 11.6726C276.029 11.6401 275.96 11.5925 275.903 11.5326C274.776 10.4636 273.296 9.85796 271.752 9.83378C269.607 9.83378 268.021 11.1266 268.021 12.6184C268.021 17.4408 280.699 14.6582 280.699 23.9375C280.693 28.6401 277.27 32.198 271.219 32.198C269.539 32.2155 267.872 31.8906 266.318 31.2427C264.764 30.5949 263.355 29.6374 262.174 28.427C262.11 28.3659 262.059 28.2923 262.024 28.2107C261.99 28.129 261.972 28.041 261.972 27.9521C261.972 27.8632 261.99 27.7752 262.024 27.6935C262.059 27.6119 262.11 27.5382 262.174 27.4772L264.488 25.0741C264.545 25.0113 264.615 24.9612 264.693 24.9269C264.77 24.8926 264.854 24.8749 264.939 24.8749C265.024 24.8749 265.107 24.8926 265.185 24.9269C265.263 24.9612 265.332 25.0113 265.39 25.0741C266.846 26.5353 268.808 27.3651 270.858 27.3879C273.539 27.3879 275.305 25.9022 275.305 24.041C275.305 19.2167 262.633 22.0013 262.633 12.7199M303.69 6.30227V16.0525H292.958V6.30227C292.959 6.21857 292.944 6.13549 292.914 6.05776C292.883 5.98002 292.837 5.90917 292.78 5.84924C292.722 5.7893 292.653 5.74146 292.577 5.70845C292.501 5.67544 292.42 5.65791 292.337 5.65685H288.266C288.184 5.65791 288.102 5.67544 288.026 5.70845C287.95 5.74146 287.881 5.7893 287.824 5.84924C287.766 5.90917 287.72 5.98002 287.69 6.05776C287.659 6.13549 287.644 6.21857 287.645 6.30227V30.9356C287.645 31.2928 287.926 31.5831 288.266 31.5831H292.337C292.678 31.5831 292.958 31.2928 292.958 30.9356V21.0311H303.682V30.9356C303.682 31.2928 303.963 31.5831 304.303 31.5831H308.374C308.717 31.5831 308.995 31.2928 308.995 30.9356V6.30227C308.996 6.21857 308.981 6.13549 308.951 6.05776C308.92 5.98002 308.874 5.90917 308.817 5.84924C308.759 5.7893 308.69 5.74146 308.614 5.70845C308.538 5.67544 308.456 5.65791 308.374 5.65685H304.303C304.138 5.66111 303.981 5.73124 303.866 5.85205C303.751 5.97286 303.688 6.13462 303.69 6.30227ZM61.574 8.94481C58.7508 3.64754 53.2267 0.349426 47.2193 0.369722H1.76735C1.4604 0.370983 1.16061 0.463643 0.905318 0.636155C0.650028 0.808668 0.450534 1.05341 0.331691 1.33987C0.214585 1.62451 0.184085 1.93804 0.244098 2.24033C0.304112 2.54261 0.451905 2.81988 0.66855 3.03663L10.5698 12.9817C11.444 13.8626 12.6351 14.3557 13.8742 14.3557H45.916C48.1998 14.3314 50.0666 16.1621 50.0907 18.4413C50.1147 20.7206 48.2841 22.5878 46.0002 22.6102H23.9099C23.6027 22.6103 23.3023 22.702 23.0463 22.8738C22.7903 23.0456 22.5899 23.2899 22.4702 23.5763C22.352 23.8612 22.3207 24.1755 22.3803 24.4786C22.44 24.7817 22.5879 25.0598 22.805 25.2771L32.7123 35.2303C33.592 36.1107 34.7797 36.6038 36.0168 36.6023H46.0082C59.0074 36.6023 68.8365 22.7198 61.574 8.93873" fill="black"/>
</g>
<defs>
<clipPath id="clip0_673_1073">
<rect width="309.062" height="36.5393" fill="white" transform="translate(0 0.206055)"/>
</clipPath>
</defs>
</svg>
