<svg width="76" height="76" viewBox="0 0 76 76" fill="none" xmlns="http://www.w3.org/2000/svg">
<path d="M38.0134 7.21499C48.0262 7.21499 49.2122 7.25313 53.1663 7.4337C56.8225 7.60072 58.8081 8.21216 60.1296 8.72602C61.8798 9.4069 63.1292 10.2204 64.4413 11.5337C65.7535 12.847 66.5662 14.0975 67.2463 15.8493C67.7599 17.172 68.3708 19.1593 68.5377 22.8186C68.7181 26.7765 68.7562 27.9634 68.7562 37.9852C68.7562 48.007 68.7181 49.194 68.5377 53.1517C68.3708 56.8112 67.7599 58.7985 67.2463 60.1212C66.5662 61.873 65.7535 63.1235 64.4413 64.4368C63.1292 65.7501 61.8798 66.5636 60.1296 67.2443C58.8081 67.7583 56.8225 68.3698 53.1663 68.5368C49.2128 68.7173 48.0268 68.7555 38.0134 68.7555C27.9999 68.7555 26.814 68.7173 22.8604 68.5368C19.2043 68.3698 17.2187 67.7583 15.8973 67.2443C14.1469 66.5636 12.8976 65.7501 11.5854 64.4368C10.2733 63.1235 9.46053 61.873 8.78041 60.1212C8.26686 58.7985 7.65596 56.8112 7.4891 53.1519C7.30868 49.194 7.27058 48.007 7.27058 37.9852C7.27058 27.9634 7.30868 26.7765 7.4891 22.8188C7.65596 19.1593 8.26686 17.172 8.78041 15.8493C9.46053 14.0975 10.2733 12.847 11.5854 11.5337C12.8976 10.2204 14.1469 9.4069 15.8973 8.72602C17.2187 8.21216 19.2043 7.60072 22.8603 7.4337C26.8146 7.25313 28.0005 7.21499 38.0134 7.21499ZM38.0134 0.452148C27.829 0.452148 26.5522 0.495355 22.5524 0.678014C18.5609 0.860374 15.8351 1.49476 13.4497 2.42266C10.9838 3.38184 8.8925 4.66522 6.80779 6.75179C4.72308 8.83836 3.44084 10.9315 2.48252 13.3996C1.55545 15.7871 0.921629 18.5154 0.739431 22.5105C0.556935 26.5136 0.513916 27.7918 0.513916 37.9852C0.513916 48.1787 0.556935 49.4568 0.739431 53.46C0.921629 57.4551 1.55545 60.1833 2.48252 62.5709C3.44084 65.0388 4.72308 67.1321 6.80779 69.2187C8.8925 71.3053 10.9838 72.5886 13.4497 73.5478C15.8351 74.4757 18.5609 75.1101 22.5524 75.2925C26.5522 75.4751 27.829 75.5182 38.0134 75.5182C48.1977 75.5182 49.4747 75.4751 53.4743 75.2925C57.4658 75.1101 60.1917 74.4757 62.5771 73.5478C65.043 72.5886 67.1343 71.3053 69.219 69.2187C71.3037 67.1321 72.5859 65.039 73.5442 62.5709C74.4713 60.1833 75.1051 57.4551 75.2873 53.46C75.4698 49.4568 75.513 48.1787 75.513 37.9852C75.513 27.7918 75.4698 26.5136 75.2873 22.5105C75.1051 18.5154 74.4713 15.7871 73.5442 13.3996C72.5859 10.9315 71.3037 8.83836 69.219 6.75179C67.1343 4.66522 65.043 3.38184 62.5771 2.42266C60.1917 1.49476 57.4658 0.860374 53.4743 0.678014C49.4747 0.495355 48.1977 0.452148 38.0134 0.452148ZM38.0134 18.7115C27.3783 18.7115 18.7568 27.3407 18.7568 37.9852C18.7568 48.6298 27.3783 57.259 38.0134 57.259C48.6484 57.259 57.27 48.6298 57.27 37.9852C57.27 27.3407 48.6484 18.7115 38.0134 18.7115ZM38.0134 50.4963C31.1099 50.4963 25.5135 44.8948 25.5135 37.9852C25.5135 31.0756 31.1099 25.4742 38.0134 25.4742C44.9168 25.4742 50.5133 31.0756 50.5133 37.9852C50.5133 44.8948 44.9168 50.4963 38.0134 50.4963ZM62.5306 17.95C62.5306 20.4375 60.516 22.454 58.0308 22.454C55.5455 22.454 53.5307 20.4375 53.5307 17.95C53.5307 15.4625 55.5455 13.4461 58.0308 13.4461C60.516 13.4461 62.5306 15.4625 62.5306 17.95Z" fill="black"/>
</svg>
