<svg width="83" height="67" viewBox="0 0 83 67" fill="none" xmlns="http://www.w3.org/2000/svg">
<path d="M73.6683 16.9532C73.7198 17.6748 73.7198 18.3966 73.7198 19.1182C73.7198 41.128 56.9825 66.4885 26.3917 66.4885C16.9672 66.4885 8.21237 63.7565 0.8479 59.0145C2.18694 59.169 3.4743 59.2206 4.86485 59.2206C12.6412 59.2206 19.7997 56.5919 25.5162 52.1074C18.2032 51.9527 12.0748 47.159 9.96324 40.5611C10.9933 40.7157 12.0232 40.8188 13.1048 40.8188C14.5983 40.8188 16.0919 40.6125 17.4823 40.2519C9.86036 38.7054 4.14374 32.0045 4.14374 23.9119V23.7058C6.35813 24.9429 8.93333 25.7161 11.6626 25.819C7.18213 22.8293 4.24678 17.7264 4.24678 11.9532C4.24678 8.86057 5.07062 6.02556 6.51269 3.55136C14.7012 13.6543 27.0096 20.252 40.8114 20.9738C40.5539 19.7367 40.3994 18.4481 40.3994 17.1595C40.3994 7.98427 47.8153 0.510254 57.0337 0.510254C61.8232 0.510254 66.1491 2.52052 69.1876 5.7679C72.947 5.04629 76.5519 3.65449 79.745 1.74736C78.5089 5.61336 75.8825 8.86073 72.4321 10.9224C75.7796 10.5618 79.0241 9.63374 82.011 8.34523C79.7454 11.644 76.9127 14.582 73.6683 16.9532V16.9532Z" fill="black"/>
</svg>
