<svg width="1247" height="3541" viewBox="0 0 1247 3541" fill="none" xmlns="http://www.w3.org/2000/svg">
<path d="M1041 1046.92V0H1112V1046.92H1041Z" fill="#242424"/>
<path d="M1051 -3.24249e-05V1046.92" stroke="#FEBE00" stroke-width="4"/>
<path d="M1102 -3.24249e-05V1046.92" stroke="#FEBE00" stroke-width="4"/>
<path d="M1076 1046.92V-3.89561e-06" stroke="white" stroke-width="4" stroke-dasharray="27 27"/>
<path d="M1212.37 2421.5C1212.37 2537.95 1120.33 2631 1008.43 2631C896.543 2631 804.502 2537.95 804.502 2421.5C804.502 2305.05 896.543 2212 1008.43 2212C1120.33 2212 1212.37 2305.05 1212.37 2421.5Z" fill="white" stroke="#242424" stroke-width="68"/>
<path d="M1236.55 2421.5C1236.55 2550.5 1134.38 2655 1008.43 2655C882.493 2655 780.318 2550.5 780.318 2421.5C780.318 2292.5 882.493 2188 1008.43 2188C1134.38 2188 1236.55 2292.5 1236.55 2421.5Z" fill="#242424" stroke="#FEBE00" stroke-width="4"/>
<path d="M1186.72 2421C1186.72 2521.56 1107.07 2603 1008.92 2603C910.775 2603 831.131 2521.56 831.131 2421C831.131 2320.44 910.775 2239 1008.92 2239C1107.07 2239 1186.72 2320.44 1186.72 2421Z" fill="#242424" stroke="#FEBE00" stroke-width="4"/>
<ellipse cx="1008.92" cy="2421" rx="168.067" ry="172" fill="white"/>
<path d="M1207.13 2379.87C1208.92 2388.79 1210.13 2397.91 1210.74 2407.2L1208.74 2407.33C1209.04 2411.85 1209.19 2416.41 1209.19 2421C1209.19 2425.59 1209.04 2430.15 1208.74 2434.67L1210.74 2434.8C1210.13 2444.09 1208.92 2453.21 1207.13 2462.13L1205.17 2461.74C1203.37 2470.75 1200.98 2479.55 1198.05 2488.1L1199.94 2488.75C1196.94 2497.5 1193.37 2505.99 1189.28 2514.18L1187.49 2513.28C1183.4 2521.46 1178.79 2529.33 1173.7 2536.85L1175.36 2537.98C1170.19 2545.6 1164.54 2552.88 1158.44 2559.75L1156.94 2558.42C1150.9 2565.24 1144.41 2571.65 1137.52 2577.63L1138.84 2579.14C1131.9 2585.16 1124.57 2590.74 1116.88 2595.83L1115.78 2594.16C1108.21 2599.17 1100.29 2603.71 1092.07 2607.72L1092.95 2609.52C1084.73 2613.54 1076.22 2617.04 1067.44 2619.98L1066.81 2618.09C1058.24 2620.96 1049.42 2623.3 1040.4 2625.07L1040.78 2627.03C1031.86 2628.78 1022.73 2629.97 1013.44 2630.56L1013.31 2628.56C1008.79 2628.85 1004.23 2629 999.64 2629C995.046 2629 990.488 2628.85 985.969 2628.56L985.841 2630.56C976.551 2629.97 967.424 2628.78 958.498 2627.03L958.882 2625.07C949.858 2623.3 941.042 2620.96 932.474 2618.09L931.838 2619.98C923.063 2617.04 914.546 2613.54 906.33 2609.52L907.208 2607.72C898.987 2603.71 891.071 2599.17 883.501 2594.16L882.397 2595.83C874.71 2590.74 867.377 2585.16 860.444 2579.14L861.755 2577.63C854.869 2571.65 848.381 2565.24 842.336 2558.42L840.84 2559.75C834.74 2552.88 829.086 2545.6 823.923 2537.98L825.579 2536.85C820.486 2529.33 815.875 2521.46 811.79 2513.28L810.001 2514.18C805.911 2505.99 802.343 2497.5 799.341 2488.75L801.233 2488.1C798.298 2479.55 795.909 2470.75 794.107 2461.74L792.145 2462.13C790.361 2453.21 789.146 2444.09 788.539 2434.8L790.535 2434.67C790.24 2430.15 790.09 2425.59 790.09 2421C790.09 2416.41 790.24 2411.85 790.535 2407.33L788.539 2407.2C789.146 2397.91 790.361 2388.79 792.145 2379.87L794.107 2380.26C795.909 2371.25 798.298 2362.45 801.233 2353.9L799.341 2353.25C802.343 2344.5 805.911 2336.01 810.001 2327.82L811.79 2328.72C815.875 2320.54 820.486 2312.67 825.579 2305.15L823.923 2304.02C829.086 2296.4 834.74 2289.12 840.84 2282.25L842.336 2283.58C848.381 2276.76 854.869 2270.35 861.755 2264.37L860.444 2262.86C867.377 2256.84 874.71 2251.26 882.397 2246.17L883.501 2247.84C891.071 2242.83 898.987 2238.29 907.208 2234.28L906.33 2232.48C914.546 2228.46 923.063 2224.96 931.838 2222.02L932.474 2223.91C941.042 2221.04 949.858 2218.7 958.882 2216.93L958.498 2214.97C967.424 2213.22 976.551 2212.03 985.841 2211.44L985.969 2213.44C990.488 2213.15 995.046 2213 999.64 2213C1004.23 2213 1008.79 2213.15 1013.31 2213.44L1013.44 2211.44C1022.73 2212.03 1031.86 2213.22 1040.78 2214.97L1040.4 2216.93C1049.42 2218.7 1058.24 2221.04 1066.81 2223.91L1067.44 2222.02C1076.22 2224.96 1084.73 2228.46 1092.95 2232.48L1092.07 2234.28C1100.29 2238.29 1108.21 2242.83 1115.78 2247.84L1116.88 2246.17C1124.57 2251.26 1131.9 2256.84 1138.84 2262.86L1137.52 2264.37C1144.41 2270.35 1150.9 2276.76 1156.94 2283.58L1158.44 2282.25C1164.54 2289.12 1170.19 2296.4 1175.36 2304.02L1173.7 2305.15C1178.79 2312.67 1183.4 2320.54 1187.49 2328.72L1189.28 2327.82C1193.37 2336.01 1196.94 2344.5 1199.94 2353.25L1198.05 2353.9C1200.98 2362.45 1203.37 2371.25 1205.17 2380.26L1207.13 2379.87Z" stroke="white" stroke-width="4" stroke-dasharray="27 27"/>
<path d="M1009.37 2603H948.367" stroke="#FEBE00" stroke-width="4"/>
<path d="M1009.37 2655H948.367" stroke="#FEBE00" stroke-width="4"/>
<path d="M948.367 2628H1009.37" stroke="white" stroke-width="4" stroke-dasharray="27 27"/>
<path d="M621 2178H1008.92V2249H621V2178Z" fill="#242424"/>
<path d="M1008.92 2188H621" stroke="#FEBE00" stroke-width="4"/>
<path d="M1008.92 2239H621" stroke="#FEBE00" stroke-width="4"/>
<path d="M621 2213H1008.92" stroke="white" stroke-width="4" stroke-dasharray="27 27"/>
<rect x="638.367" y="2249" width="363" height="416" fill="white"/>
<mask id="path-18-inside-1_325_1335" fill="white">
<path fill-rule="evenodd" clip-rule="evenodd" d="M763.367 2836.46C763.391 2701.98 869.926 2592.99 1001.32 2593V2836.96H763.368C763.367 2836.79 763.367 2836.63 763.367 2836.46Z"/>
</mask>
<path fill-rule="evenodd" clip-rule="evenodd" d="M763.367 2836.46C763.391 2701.98 869.926 2592.99 1001.32 2593V2836.96H763.368C763.367 2836.79 763.367 2836.63 763.367 2836.46Z" fill="white"/>
<path d="M1001.32 2593H1069.32V2525.01L1001.33 2525L1001.32 2593ZM763.367 2836.46L695.367 2836.45L763.367 2836.46ZM1001.32 2836.96V2904.96H1069.32V2836.96H1001.32ZM763.368 2836.96L695.368 2837.08L695.489 2904.96H763.368V2836.96ZM1001.33 2525C830.905 2524.98 695.397 2665.91 695.367 2836.45L831.367 2836.47C831.384 2738.06 908.946 2660.99 1001.32 2661L1001.33 2525ZM1069.32 2836.96V2593H933.324V2836.96H1069.32ZM763.368 2904.96H1001.32V2768.96H763.368V2904.96ZM695.367 2836.45C695.367 2836.66 695.367 2836.87 695.368 2837.08L831.367 2836.84C831.367 2836.71 831.367 2836.59 831.367 2836.47L695.367 2836.45Z" fill="#242424" mask="url(#path-18-inside-1_325_1335)"/>
<mask id="path-20-inside-2_325_1335" fill="white">
<path fill-rule="evenodd" clip-rule="evenodd" d="M1000.87 2601C1001.02 2601 1001.17 2601 1001.33 2601V3073L1001.33 2837.96H771.368C771.367 2837.79 771.367 2837.63 771.367 2837.46C771.39 2707.4 873.778 2600.98 1000.87 2601Z"/>
</mask>
<path fill-rule="evenodd" clip-rule="evenodd" d="M1000.87 2601C1001.02 2601 1001.17 2601 1001.33 2601V3073L1001.33 2837.96H771.368C771.367 2837.79 771.367 2837.63 771.367 2837.46C771.39 2707.4 873.778 2600.98 1000.87 2601Z" fill="#242424"/>
<path d="M1001.33 2601H1005.33V2597.01L1001.34 2597L1001.33 2601ZM1000.87 2601L1000.87 2597L1000.87 2601ZM1001.33 2837.96L1005.33 2837.96L1005.33 2833.96H1001.33V2837.96ZM771.368 2837.96L767.368 2837.97L767.375 2841.96H771.368V2837.96ZM771.367 2837.46L775.367 2837.46L771.367 2837.46ZM1001.34 2597C1001.18 2597 1001.02 2597 1000.87 2597L1000.87 2605C1001.02 2605 1001.17 2605 1001.32 2605L1001.34 2597ZM1005.33 3073V2601H997.326V3073H1005.33ZM997.326 2837.96L997.326 3073L1005.33 3073L1005.33 2837.96L997.326 2837.96ZM771.368 2841.96H1001.33V2833.96H771.368V2841.96ZM767.367 2837.46C767.367 2837.63 767.367 2837.8 767.368 2837.97L775.368 2837.95C775.367 2837.79 775.367 2837.62 775.367 2837.46L767.367 2837.46ZM1000.87 2597C871.447 2596.98 767.39 2705.31 767.367 2837.46L775.367 2837.46C775.39 2709.48 876.11 2604.98 1000.87 2605L1000.87 2597Z" fill="#FEBE00" mask="url(#path-20-inside-2_325_1335)"/>
<mask id="path-22-inside-3_325_1335" fill="white">
<path fill-rule="evenodd" clip-rule="evenodd" d="M1001.19 2653L1001.33 2653V3021H1001.33V2836.97H821.367C821.367 2836.97 821.367 2836.97 821.367 2836.97C821.385 2735.35 901.895 2652.98 1001.19 2653Z"/>
</mask>
<path fill-rule="evenodd" clip-rule="evenodd" d="M1001.19 2653L1001.33 2653V3021H1001.33V2836.97H821.367C821.367 2836.97 821.367 2836.97 821.367 2836.97C821.385 2735.35 901.895 2652.98 1001.19 2653Z" fill="#242424"/>
<path d="M1001.33 2653H1005.33V2649L1001.34 2649L1001.33 2653ZM1001.19 2653L1001.19 2649L1001.19 2649L1001.19 2653ZM1001.33 3021V3025H1005.33V3021H1001.33ZM1001.33 3021H997.334V3025H1001.33V3021ZM1001.33 2836.97H1005.33V2832.97H1001.33V2836.97ZM821.367 2836.97L817.367 2836.97L817.366 2840.97H821.367V2836.97ZM821.367 2836.97L817.367 2836.97L821.367 2836.97ZM1001.34 2649L1001.19 2649L1001.19 2657L1001.33 2657L1001.34 2649ZM1005.33 3021V2653H997.335V3021H1005.33ZM1001.33 3025H1001.33V3017H1001.33V3025ZM997.334 2836.97V3021H1005.33V2836.97H997.334ZM821.367 2840.97H1001.33V2832.97H821.367V2840.97ZM817.367 2836.97C817.367 2836.97 817.367 2836.97 817.367 2836.97L825.367 2836.97C825.367 2836.97 825.367 2836.97 825.367 2836.97L817.367 2836.97ZM1001.19 2649C899.6 2648.98 817.385 2733.23 817.367 2836.97L825.367 2836.97C825.385 2737.47 904.191 2656.98 1001.19 2657L1001.19 2649Z" fill="#FEBE00" mask="url(#path-22-inside-3_325_1335)"/>
<path fill-rule="evenodd" clip-rule="evenodd" d="M1001.37 2665.03C908.606 2665.09 833.419 2742.05 833.402 2837C833.386 2931.97 908.579 3008.97 1001.37 3009.03V2665.03Z" fill="white"/>
<path fill-rule="evenodd" clip-rule="evenodd" d="M1012.8 2627.4C1016.84 2627.18 1020.9 2627.05 1025 2627.01V2631.01C1020.98 2631.05 1016.99 2631.18 1013.02 2631.4L1012.91 2629.4L1012.8 2627.4ZM983.95 2630.67L984.29 2632.64L984.629 2634.61C975.119 2636.25 965.838 2638.43 956.82 2641.1L956.251 2639.19L955.681 2637.27C964.85 2634.55 974.286 2632.33 983.95 2630.67ZM928.405 2647.2L929.203 2649.04L930.001 2650.87C921.189 2654.71 912.705 2659.05 904.59 2663.86L903.57 2662.14L902.55 2660.42C910.809 2655.52 919.441 2651.1 928.405 2647.2ZM878.573 2676.78L879.803 2678.35L881.034 2679.93C873.495 2685.82 866.391 2692.15 859.766 2698.9L858.339 2697.5L856.912 2696.1C863.661 2689.23 870.896 2682.77 878.573 2676.78ZM838.015 2718.14L839.619 2719.33L841.222 2720.53C835.536 2728.15 830.389 2736.15 825.826 2744.47L824.073 2743.51L822.319 2742.55C826.972 2734.06 832.22 2725.91 838.015 2718.14ZM810.211 2768.93L812.084 2769.63L813.956 2770.33C810.643 2779.17 807.946 2788.28 805.911 2797.62L803.957 2797.2L802.003 2796.77C804.079 2787.24 806.831 2777.94 810.211 2768.93ZM797.883 2825.49C797.542 2830.29 797.369 2835.13 797.368 2840.02C797.368 2840.35 797.368 2840.67 797.37 2841H801.37C801.368 2840.67 801.368 2840.35 801.368 2840.02C801.369 2835.23 801.539 2830.48 801.873 2825.78L799.878 2825.63L797.883 2825.49Z" fill="white"/>
<rect x="996.367" y="2593" width="5" height="72" fill="#242424"/>
<path d="M996.367 2653.05L1001.37 2653V2657L996.367 2657.05V2653.05Z" fill="#FEBE00"/>
<path d="M996.367 2601H1001.37V2605H996.367V2601Z" fill="#FEBE00"/>
<rect x="985.753" y="2623.73" width="29" height="11" transform="rotate(-2.75052 985.753 2623.73)" fill="#242424"/>
<rect x="988.942" y="2627.58" width="27.3204" height="4.09662" transform="rotate(-2.75052 988.942 2627.58)" fill="white"/>
<path d="M724 2604V2605.5" stroke="#FEBD01" stroke-width="1.5"/>
<path d="M1041 1603V1043H1112V1603H1041Z" fill="#242424"/>
<path d="M1051 1043V1603" stroke="#FEBE00" stroke-width="4"/>
<path d="M1102 1043V1603" stroke="#FEBE00" stroke-width="4"/>
<path d="M1076 1603V1043" stroke="white" stroke-width="4" stroke-dasharray="27 27"/>
<mask id="path-36-inside-4_325_1335" fill="white">
<path fill-rule="evenodd" clip-rule="evenodd" d="M3.87863e-06 2012.46C0.0234742 1877.98 106.559 1768.99 237.957 1769V2012.96H0.000407567C0.000109397 2012.79 -2.52179e-05 2012.63 3.87863e-06 2012.46Z"/>
</mask>
<path fill-rule="evenodd" clip-rule="evenodd" d="M3.87863e-06 2012.46C0.0234742 1877.98 106.559 1768.99 237.957 1769V2012.96H0.000407567C0.000109397 2012.79 -2.52179e-05 2012.63 3.87863e-06 2012.46Z" fill="white"/>
<path d="M237.957 1769H305.957V1701.01L237.963 1701L237.957 1769ZM3.87863e-06 2012.46L-68 2012.45L3.87863e-06 2012.46ZM237.957 2012.96V2080.96H305.957V2012.96H237.957ZM0.000407567 2012.96L-67.9995 2013.08L-67.878 2080.96H0.000407567V2012.96ZM237.963 1701C67.5381 1700.98 -67.9702 1841.91 -68 2012.45L68 2012.47C68.0172 1914.06 145.579 1836.99 237.95 1837L237.963 1701ZM305.957 2012.96V1769H169.957V2012.96H305.957ZM0.000407567 2080.96H237.957V1944.96H0.000407567V2080.96ZM-68 2012.45C-68 2012.66 -67.9999 2012.87 -67.9995 2013.08L68.0003 2012.84C68.0001 2012.71 68 2012.59 68 2012.47L-68 2012.45Z" fill="#242424" mask="url(#path-36-inside-4_325_1335)"/>
<mask id="path-38-inside-5_325_1335" fill="white">
<path fill-rule="evenodd" clip-rule="evenodd" d="M237.5 1777C237.653 1777 237.806 1777 237.959 1777V2249L237.959 2013.96H8.00042C8.00011 2013.79 7.99997 2013.63 8 2013.46C8.0227 1883.4 110.411 1776.98 237.5 1777Z"/>
</mask>
<path fill-rule="evenodd" clip-rule="evenodd" d="M237.5 1777C237.653 1777 237.806 1777 237.959 1777V2249L237.959 2013.96H8.00042C8.00011 2013.79 7.99997 2013.63 8 2013.46C8.0227 1883.4 110.411 1776.98 237.5 1777Z" fill="#242424"/>
<path d="M237.959 1777H241.959V1773.01L237.968 1773L237.959 1777ZM237.5 1777L237.501 1773L237.5 1777ZM237.959 2013.96L241.959 2013.96L241.959 2009.96H237.959V2013.96ZM8.00042 2013.96L4.00043 2013.97L4.00784 2017.96H8.00042V2013.96ZM8 2013.46L12 2013.46L8 2013.46ZM237.968 1773C237.812 1773 237.657 1773 237.501 1773L237.5 1781C237.65 1781 237.8 1781 237.95 1781L237.968 1773ZM241.959 2249V1777H233.959V2249H241.959ZM233.959 2013.96L233.959 2249L241.959 2249L241.959 2013.96L233.959 2013.96ZM8.00042 2017.96H237.959V2009.96H8.00042V2017.96ZM4 2013.46C3.99997 2013.63 4.00012 2013.8 4.00043 2013.97L12.0004 2013.95C12.0001 2013.79 12 2013.62 12 2013.46L4 2013.46ZM237.501 1773C108.079 1772.98 4.02307 1881.31 4 2013.46L12 2013.46C12.0223 1885.48 112.743 1780.98 237.5 1781L237.501 1773Z" fill="#FEBE00" mask="url(#path-38-inside-5_325_1335)"/>
<mask id="path-40-inside-6_325_1335" fill="white">
<path fill-rule="evenodd" clip-rule="evenodd" d="M237.825 1829L237.968 1829V2197H237.967V2012.97H58C58 2012.97 58 2012.97 58 2012.97C58.0177 1911.35 138.528 1828.98 237.825 1829Z"/>
</mask>
<path fill-rule="evenodd" clip-rule="evenodd" d="M237.825 1829L237.968 1829V2197H237.967V2012.97H58C58 2012.97 58 2012.97 58 2012.97C58.0177 1911.35 138.528 1828.98 237.825 1829Z" fill="#242424"/>
<path d="M237.968 1829H241.968V1825L237.97 1825L237.968 1829ZM237.825 1829L237.827 1825L237.826 1825L237.825 1829ZM237.968 2197V2201H241.968V2197H237.968ZM237.967 2197H233.967V2201H237.967V2197ZM237.967 2012.97H241.967V2008.97H237.967V2012.97ZM58 2012.97L54 2012.97L53.9993 2016.97H58V2012.97ZM58 2012.97L54 2012.97L58 2012.97ZM237.97 1825L237.827 1825L237.823 1833L237.965 1833L237.97 1825ZM241.968 2197V1829H233.968V2197H241.968ZM237.967 2201H237.968V2193H237.967V2201ZM233.967 2012.97V2197H241.967V2012.97H233.967ZM58 2016.97H237.967V2008.97H58V2016.97ZM54 2012.97C54 2012.97 54 2012.97 54 2012.97L62 2012.97C62 2012.97 62 2012.97 62 2012.97L54 2012.97ZM237.826 1825C136.233 1824.98 54.0181 1909.23 54 2012.97L62 2012.97C62.0174 1913.47 140.823 1832.98 237.824 1833L237.826 1825Z" fill="#FEBE00" mask="url(#path-40-inside-6_325_1335)"/>
<path fill-rule="evenodd" clip-rule="evenodd" d="M237.999 1841.03C145.239 1841.09 70.0517 1918.05 70.0352 2013C70.0186 2107.97 145.212 2184.97 237.999 2185.03V1841.03Z" fill="white"/>
<path fill-rule="evenodd" clip-rule="evenodd" d="M225.406 1802.93C229.555 1802.67 233.741 1802.52 237.962 1802.5V1806.5C233.826 1806.52 229.726 1806.66 225.663 1806.93L225.535 1804.93L225.406 1802.93ZM198.481 1806.45L198.87 1808.41L199.26 1810.37C190.451 1812.12 181.871 1814.44 173.554 1817.3L172.904 1815.41L172.255 1813.52C180.741 1810.6 189.495 1808.23 198.481 1806.45ZM147.229 1824.05L148.129 1825.84L149.028 1827.63C141.064 1831.64 133.415 1836.17 126.12 1841.18L124.988 1839.53L123.856 1837.88C131.299 1832.77 139.103 1828.15 147.229 1824.05ZM102.551 1854.73L103.894 1856.21L105.237 1857.69C98.6594 1863.65 92.4787 1870.05 86.7338 1876.84L85.2067 1875.55L83.6796 1874.26C89.5383 1867.33 95.8422 1860.8 102.551 1854.73ZM67.5433 1896.1L69.2265 1897.18L70.9096 1898.26C66.1343 1905.7 61.8221 1913.49 58.0108 1921.57L56.2018 1920.72L54.3927 1919.87C58.2779 1911.62 62.6743 1903.69 67.5433 1896.1ZM44.4191 1945.12L46.3226 1945.74L48.2261 1946.35C45.5237 1954.73 43.328 1963.36 41.6739 1972.19L39.7081 1971.82L37.7423 1971.45C39.4275 1962.46 41.6649 1953.67 44.4191 1945.12ZM34.4153 1998.41C34.1408 2002.9 34.0013 2007.43 34.0005 2012C34.0004 2012.32 34.0011 2012.64 34.0024 2012.96H38.0024C38.0011 2012.64 38.0004 2012.32 38.0005 2012C38.0013 2007.52 38.1384 2003.06 38.4078 1998.65L36.4116 1998.53L34.4153 1998.41Z" fill="white"/>
<mask id="path-44-inside-7_325_1335" fill="white">
<path fill-rule="evenodd" clip-rule="evenodd" d="M873.556 1841C873.385 1841 873.214 1841 873.042 1841V1597.04H1112C1112 1597.21 1112 1597.37 1112 1597.54C1111.98 1732.02 1005.22 1841.02 873.556 1841Z"/>
</mask>
<path fill-rule="evenodd" clip-rule="evenodd" d="M873.556 1841C873.385 1841 873.214 1841 873.042 1841V1597.04H1112C1112 1597.21 1112 1597.37 1112 1597.54C1111.98 1732.02 1005.22 1841.02 873.556 1841Z" fill="white"/>
<path d="M873.042 1841H805.042V1908.84L872.884 1909L873.042 1841ZM873.556 1841L873.544 1909L873.556 1841ZM873.042 1597.04V1529.04H805.042V1597.04H873.042ZM1112 1597.04L1180 1596.92L1179.88 1529.04H1112V1597.04ZM1112 1597.54L1044 1597.53L1112 1597.54ZM872.884 1909C873.104 1909 873.324 1909 873.544 1909L873.568 1773C873.445 1773 873.323 1773 873.201 1773L872.884 1909ZM805.042 1597.04V1841H941.042V1597.04H805.042ZM1112 1529.04H873.042V1665.04H1112V1529.04ZM1180 1597.55C1180 1597.34 1180 1597.13 1180 1596.92L1044 1597.16C1044 1597.29 1044 1597.41 1044 1597.53L1180 1597.55ZM873.544 1909C1044.11 1909.03 1179.97 1768.23 1180 1597.55L1044 1597.53C1043.98 1695.82 966.329 1773.02 873.568 1773L873.544 1909Z" fill="#242424" mask="url(#path-44-inside-7_325_1335)"/>
<mask id="path-46-inside-8_325_1335" fill="white">
<path fill-rule="evenodd" clip-rule="evenodd" d="M873.633 1833C873.422 1833 873.211 1833 873 1833V1362H873V1596.54H1104C1104 1596.71 1104 1596.87 1104 1597.04C1103.98 1726.83 1001.2 1833.02 873.633 1833Z"/>
</mask>
<path fill-rule="evenodd" clip-rule="evenodd" d="M873.633 1833C873.422 1833 873.211 1833 873 1833V1362H873V1596.54H1104C1104 1596.71 1104 1596.87 1104 1597.04C1103.98 1726.83 1001.2 1833.02 873.633 1833Z" fill="#242424"/>
<path d="M873 1833H869V1836.99L872.988 1837L873 1833ZM873.633 1833L873.633 1829L873.633 1833ZM873 1362V1358H869V1362H873ZM873 1362H877V1358H873V1362ZM873 1596.54H869V1600.54H873V1596.54ZM1104 1596.54L1108 1596.53L1107.99 1592.54H1104V1596.54ZM1104 1597.04L1100 1597.04L1104 1597.04ZM872.988 1837C873.203 1837 873.417 1837 873.632 1837L873.633 1829C873.426 1829 873.219 1829 873.012 1829L872.988 1837ZM869 1362V1833H877V1362H869ZM873 1358H873V1366H873V1358ZM877 1596.54V1362H869V1596.54H877ZM1104 1592.54H873V1600.54H1104V1592.54ZM1108 1597.04C1108 1596.87 1108 1596.7 1108 1596.53L1100 1596.55C1100 1596.71 1100 1596.88 1100 1597.04L1108 1597.04ZM873.632 1837C1003.51 1837.02 1107.98 1728.94 1108 1597.04L1100 1597.04C1099.98 1724.72 998.892 1829.02 873.633 1829L873.632 1837Z" fill="#FEBE00" mask="url(#path-46-inside-8_325_1335)"/>
<mask id="path-48-inside-9_325_1335" fill="white">
<path fill-rule="evenodd" clip-rule="evenodd" d="M873.174 1781L873.031 1781V1413H873.032V1597.03H1053C1053 1597.03 1053 1597.03 1053 1597.03C1052.98 1698.65 972.471 1781.02 873.174 1781Z"/>
</mask>
<path fill-rule="evenodd" clip-rule="evenodd" d="M873.174 1781L873.031 1781V1413H873.032V1597.03H1053C1053 1597.03 1053 1597.03 1053 1597.03C1052.98 1698.65 972.471 1781.02 873.174 1781Z" fill="#242424"/>
<path d="M873.031 1781H869.031V1785L873.029 1785L873.031 1781ZM873.174 1781L873.172 1785L873.173 1785L873.174 1781ZM873.031 1413V1409H869.031V1413H873.031ZM873.032 1413H877.032V1409H873.032V1413ZM873.032 1597.03H869.032V1601.03H873.032V1597.03ZM1053 1597.03L1057 1597.03L1057 1593.03H1053V1597.03ZM1053 1597.03L1057 1597.03L1053 1597.03ZM873.029 1785L873.172 1785L873.176 1777L873.034 1777L873.029 1785ZM869.031 1413V1781H877.031V1413H869.031ZM873.032 1409H873.031V1417H873.032V1409ZM877.032 1597.03V1413H869.032V1597.03H877.032ZM1053 1593.03H873.032V1601.03H1053V1593.03ZM1057 1597.03C1057 1597.03 1057 1597.03 1057 1597.03L1049 1597.03C1049 1597.03 1049 1597.03 1049 1597.03L1057 1597.03ZM873.173 1785C974.766 1785.02 1056.98 1700.77 1057 1597.03L1049 1597.03C1048.98 1696.53 970.176 1777.02 873.175 1777L873.173 1785Z" fill="#FEBE00" mask="url(#path-48-inside-9_325_1335)"/>
<path fill-rule="evenodd" clip-rule="evenodd" d="M873 1768.97C965.76 1768.91 1040.95 1691.95 1040.96 1597C1040.98 1502.03 965.787 1425.03 873 1424.97V1768.97Z" fill="white"/>
<path fill-rule="evenodd" clip-rule="evenodd" d="M884.617 1806.07C880.787 1806.31 876.926 1806.45 873.036 1806.49V1802.49C876.842 1802.45 880.619 1802.32 884.365 1802.08L884.491 1804.08L884.617 1806.07ZM911.619 1802.62L911.237 1800.65L910.855 1798.69C919.695 1796.97 928.313 1794.68 936.672 1791.87L937.309 1793.77L937.947 1795.67C929.421 1798.53 920.633 1800.86 911.619 1802.62ZM963.114 1785.29L962.23 1783.5L961.346 1781.7C969.372 1777.75 977.086 1773.28 984.448 1768.33L985.563 1769.99L986.678 1771.65C979.169 1776.7 971.301 1781.26 963.114 1785.29ZM1008.22 1755L1006.89 1753.5L1005.56 1752C1012.23 1746.1 1018.5 1739.76 1024.33 1733.02L1025.84 1734.32L1027.35 1735.63C1021.41 1742.51 1015.02 1748.98 1008.22 1755ZM1043.76 1713.91L1042.09 1712.81L1040.42 1711.71C1045.28 1704.3 1049.68 1696.54 1053.56 1688.47L1055.37 1689.34L1057.17 1690.21C1053.21 1698.43 1048.72 1706.35 1043.76 1713.91ZM1067.35 1664.96L1065.45 1664.34L1063.55 1663.71C1066.31 1655.33 1068.56 1646.7 1070.25 1637.85L1072.21 1638.23L1074.18 1638.6C1072.45 1647.62 1070.17 1656.42 1067.35 1664.96ZM1077.58 1611.59C1077.86 1607.09 1078 1602.54 1078 1597.96C1078 1597.64 1078 1597.32 1078 1597H1074C1074 1597.32 1074 1597.64 1074 1597.96C1074 1602.46 1073.86 1606.92 1073.58 1611.34L1075.58 1611.47L1077.58 1611.59Z" fill="white"/>
<path d="M233 1769H878V1841H233V1769Z" fill="#242424"/>
<path d="M878 1779.14H233" stroke="#FEBE00" stroke-width="4"/>
<path d="M878 1830.86H233" stroke="#FEBE00" stroke-width="4"/>
<path d="M233 1804.49H878" stroke="white" stroke-width="4" stroke-dasharray="27 27"/>
<mask id="path-56-inside-10_325_1335" fill="white">
<path fill-rule="evenodd" clip-rule="evenodd" d="M3.91187e-06 2010.61C0.0235747 2142.29 106.559 2249.01 237.958 2249V2010.12H0.000406914C0.000109087 2010.29 -2.52989e-05 2010.45 3.91187e-06 2010.61Z"/>
</mask>
<path fill-rule="evenodd" clip-rule="evenodd" d="M3.91187e-06 2010.61C0.0235747 2142.29 106.559 2249.01 237.958 2249V2010.12H0.000406914C0.000109087 2010.29 -2.52989e-05 2010.45 3.91187e-06 2010.61Z" fill="white"/>
<path d="M237.958 2249H305.958V2316.99L237.964 2317L237.958 2249ZM3.91187e-06 2010.61L68 2010.6L3.91187e-06 2010.61ZM237.958 2010.12V1942.12H305.958V2010.12H237.958ZM0.000406914 2010.12L-67.9995 2010L-67.8755 1942.12H0.000406914V2010.12ZM237.964 2317C68.8801 2317.02 -67.9697 2179.72 -68 2010.63L68 2010.6C68.0169 2104.85 144.238 2181.01 237.952 2181L237.964 2317ZM305.958 2010.12V2249H169.958V2010.12H305.958ZM0.000406914 1942.12H237.958V2078.12H0.000406914V1942.12ZM-68 2010.63C-68 2010.42 -67.9999 2010.21 -67.9995 2010L68.0003 2010.25C68.0001 2010.37 68 2010.48 68 2010.6L-68 2010.63Z" fill="#242424" mask="url(#path-56-inside-10_325_1335)"/>
<mask id="path-58-inside-11_325_1335" fill="white">
<path fill-rule="evenodd" clip-rule="evenodd" d="M237.502 2241.17C237.655 2241.17 237.808 2241.17 237.96 2241.17L237.96 2009.14H8.00091C8.0006 2009.31 8.00046 2009.47 8.00049 2009.63C8.02319 2136.99 110.412 2241.19 237.502 2241.17Z"/>
</mask>
<path fill-rule="evenodd" clip-rule="evenodd" d="M237.502 2241.17C237.655 2241.17 237.808 2241.17 237.96 2241.17L237.96 2009.14H8.00091C8.0006 2009.31 8.00046 2009.47 8.00049 2009.63C8.02319 2136.99 110.412 2241.19 237.502 2241.17Z" fill="#242424"/>
<path d="M237.96 2241.17L241.96 2241.17L241.96 2245.16L237.969 2245.17L237.96 2241.17ZM237.502 2241.17L237.501 2237.17L237.502 2241.17ZM237.96 2009.14V2005.14H241.96L241.96 2009.14L237.96 2009.14ZM8.00091 2009.14L4.00092 2009.14L4.00849 2005.14H8.00091V2009.14ZM8.00049 2009.63L12.0005 2009.63L8.00049 2009.63ZM237.969 2245.17C237.814 2245.17 237.658 2245.17 237.503 2245.17L237.501 2237.17C237.651 2237.17 237.802 2237.17 237.952 2237.17L237.969 2245.17ZM241.96 2009.14L241.96 2241.17L233.96 2241.17L233.96 2009.14L241.96 2009.14ZM8.00091 2005.14H237.96V2013.14H8.00091V2005.14ZM4.00049 2009.63C4.00046 2009.47 4.00061 2009.3 4.00092 2009.14L12.0009 2009.15C12.0006 2009.31 12.0005 2009.47 12.0005 2009.63L4.00049 2009.63ZM237.503 2245.17C108.159 2245.19 4.02358 2139.15 4.00049 2009.63L12.0005 2009.63C12.0228 2134.82 112.665 2237.19 237.501 2237.17L237.503 2245.17Z" fill="#FEBE00" mask="url(#path-58-inside-11_325_1335)"/>
<mask id="path-60-inside-12_325_1335" fill="white">
<path fill-rule="evenodd" clip-rule="evenodd" d="M237.827 2190.25L237.969 2190.25V1829.92H237.968V2010.11H58.0005C58.0183 2109.62 138.529 2190.27 237.827 2190.25Z"/>
</mask>
<path fill-rule="evenodd" clip-rule="evenodd" d="M237.827 2190.25L237.969 2190.25V1829.92H237.968V2010.11H58.0005C58.0183 2109.62 138.529 2190.27 237.827 2190.25Z" fill="#242424"/>
<path d="M237.969 2190.25H241.969V2194.25L237.971 2194.25L237.969 2190.25ZM237.827 2190.25L237.829 2194.25L237.827 2194.25L237.827 2190.25ZM237.969 1829.92V1825.92H241.969V1829.92H237.969ZM237.968 1829.92H233.968V1825.92H237.968V1829.92ZM237.968 2010.11H241.968V2014.11H237.968V2010.11ZM58.0005 2010.11L54.0005 2010.12L53.9998 2006.11H58.0005V2010.11ZM237.971 2194.25L237.829 2194.25L237.824 2186.25L237.967 2186.25L237.971 2194.25ZM241.969 1829.92V2190.25H233.969V1829.92H241.969ZM237.968 1825.92H237.969V1833.92H237.968V1825.92ZM233.968 2010.11V1829.92H241.968V2010.11H233.968ZM58.0005 2006.11H237.968V2014.11H58.0005V2006.11ZM237.827 2194.25C136.313 2194.27 54.0187 2111.82 54.0005 2010.12L62.0005 2010.11C62.0179 2107.42 140.745 2186.27 237.826 2186.25L237.827 2194.25Z" fill="#FEBE00" mask="url(#path-60-inside-12_325_1335)"/>
<path fill-rule="evenodd" clip-rule="evenodd" d="M238 2178.47C145.24 2178.42 70.0517 2103.05 70.0352 2010.08C70.0186 1917.09 145.212 1841.69 238 1841.64V2178.47Z" fill="white"/>
<path fill-rule="evenodd" clip-rule="evenodd" d="M225.551 2215.78C229.652 2216.04 233.791 2216.18 237.964 2216.2V2212.2C233.874 2212.18 229.818 2212.04 225.799 2211.79L225.675 2213.79L225.551 2215.78ZM198.893 2212.41L199.271 2210.45L199.649 2208.49C190.915 2206.81 182.404 2204.57 174.152 2201.83L173.521 2203.73L172.89 2205.62C181.307 2208.42 189.987 2210.7 198.893 2212.41ZM148.013 2195.48L148.889 2193.68L149.766 2191.88C141.824 2188.01 134.194 2183.63 126.912 2178.79L125.805 2180.45L124.697 2182.12C132.126 2187.06 139.911 2191.53 148.013 2195.48ZM103.363 2165.78L104.682 2164.27L106.001 2162.77C99.3919 2156.97 93.1783 2150.74 87.3996 2144.12L85.8929 2145.44L84.3863 2146.75C90.2815 2153.5 96.6204 2159.86 103.363 2165.78ZM68.0935 2125.38L69.7608 2124.28L71.4281 2123.17C66.5932 2115.87 62.2254 2108.23 58.3629 2100.3L56.5645 2101.17L54.7661 2102.05C58.706 2110.14 63.1615 2117.94 68.0935 2125.38ZM44.6248 2077.17L46.5224 2076.53L48.4201 2075.9C45.6685 2067.63 43.4323 2059.12 41.7471 2050.41L39.7834 2050.78L37.8198 2051.16C39.5381 2060.05 41.8184 2068.73 44.6248 2077.17ZM34.4245 2024.51C34.1443 2020.07 34.0018 2015.58 34.001 2011.06C34.0009 2010.75 34.0016 2010.43 34.0029 2010.12H38.0029C38.0016 2010.43 38.0009 2010.75 38.001 2011.06C38.0018 2015.5 38.1416 2019.9 38.4166 2024.26L36.4205 2024.39L34.4245 2024.51Z" fill="white"/>
<path d="M866 2177H221V2249H866V2177Z" fill="#242424"/>
<path d="M221 2187.14H866" stroke="#FEBE00" stroke-width="4"/>
<path d="M221 2238.86H866" stroke="#FEBE00" stroke-width="4"/>
<path d="M866 2212.49H221" stroke="white" stroke-width="4" stroke-dasharray="27 27"/>
<path d="M762 3514L763.5 2836L834.5 2821.6L833 3514H762Z" fill="#242424"/>
<path d="M774 2816L773 3514" stroke="#FEBE00" stroke-width="4"/>
<path d="M824.01 2816.04L823 3514" stroke="#FEBE00" stroke-width="4"/>
<path d="M796 3540L800 2816" stroke="white" stroke-width="4" stroke-dasharray="27 27"/>
</svg>
