<svg width="459" height="226" viewBox="0 0 459 226" fill="none" xmlns="http://www.w3.org/2000/svg">
<g clip-path="url(#clip0_238_535)">
<g opacity="0.2">
<path d="M69.3609 165.224C55.9082 164.874 43.036 162.319 30.9395 156.336C21.05 151.445 13.3441 144.173 7.64667 134.761C4.18095 129.036 2.09259 122.832 1.74237 116.135C1.17357 105.279 5.3832 96.4629 13.5051 89.4116C21.0383 82.8727 29.8019 78.5361 39.2965 75.8343C61.7995 69.4317 83.6374 71.1863 104.467 82.1487C111.657 85.9329 117.98 90.9488 123.138 97.3091C126.884 101.928 129.559 107.146 131.325 112.791C133.369 119.322 132.764 125.783 130.324 132.121C127.727 138.866 123.534 144.428 117.888 148.907C107.721 156.975 96.1888 161.958 83.3707 163.849C78.7332 164.535 74.0324 164.778 69.3609 165.224ZM128.434 129.522C128.209 129.546 127.86 129.488 127.775 129.61C126.07 132.099 123.631 133.601 120.956 134.818C120.563 134.997 120.171 135.374 119.974 135.76C117.87 139.868 114.346 142.63 110.868 145.434C110.389 145.821 109.837 146.232 109.261 146.35C108.822 146.439 108.105 146.217 107.857 145.88C107.621 145.56 107.665 144.811 107.889 144.429C108.191 143.918 108.781 143.575 109.252 143.166C111.2 141.471 113.164 139.794 115.086 138.071C115.429 137.765 115.608 137.275 116.073 136.534C111.201 137.722 106.692 137.848 102.164 137.129C97.3675 136.367 92.9193 134.802 89.168 131.569C87.9752 130.541 87.243 129.364 87.1443 127.76C87.0585 126.36 86.8293 124.97 86.6248 123.253C85.727 125.088 85.1499 126.65 84.2509 127.996C83.3037 129.415 82.1731 130.765 80.9062 131.905C76.8059 135.595 72.2543 138.661 67.155 140.79C61.2918 143.238 55.1219 144.259 48.7816 143.949C41.6951 143.603 34.8553 141.889 28.1096 139.806C22.1183 137.956 17.7888 134.14 14.8508 128.59C12.9504 125 10.7669 121.56 8.71611 118.048C7.65137 116.225 6.6066 114.391 5.54067 112.57C5.37027 112.28 5.12935 112.031 4.68982 111.466C4.6052 112.247 4.53939 112.614 4.52881 112.982C4.32785 120.239 6.29634 126.928 9.98652 133.113C15.4231 142.225 22.8599 149.23 32.4179 153.895C45.075 160.072 58.5089 162.511 72.5222 162.06C72.8489 162.049 73.1698 161.861 73.9266 161.615C72.5222 160.321 71.5092 159.107 70.2435 158.277C67.3924 156.407 66.605 154.261 68.0623 151.061C68.604 149.871 68.8849 148.834 68.5018 147.497C67.9694 145.634 68.8062 144.126 70.4009 143.08C70.918 142.741 71.4939 142.358 72.0815 142.28C73.9113 142.038 74.8327 140.837 75.814 139.435C76.7365 138.117 77.9623 136.937 79.2609 135.975C81.1201 134.595 82.709 134.727 84.3002 136.384C85.3909 137.52 86.3933 137.735 87.8377 137.227C89.1069 136.78 90.6264 136.633 91.643 137.644C93.2178 139.209 94.9747 139.489 97.0102 139.127C97.4603 139.047 97.9492 139.126 98.4134 139.186C101.946 139.638 103.432 142.135 102.018 145.426C101.563 146.484 100.703 147.362 100.149 148.386C99.8449 148.952 99.5593 149.698 99.6709 150.286C100.013 152.101 100.549 153.879 101.033 155.762C101.304 155.662 101.675 155.556 102.02 155.395C106.935 153.101 111.559 150.34 115.824 146.97C121.367 142.591 125.492 137.198 127.876 130.516C128.002 130.162 128.245 129.85 128.434 129.516C128.751 128.002 129.097 126.493 129.377 124.973C129.887 122.205 129.775 119.47 128.899 116.791C128.601 120.657 128.401 124.519 128.23 128.382C128.209 128.758 128.36 129.142 128.434 129.522ZM49.1083 141.227C59.8557 141.221 68.1386 138.109 75.7693 132.617C81.1013 128.779 84.0817 123.848 84.9266 117.453C85.5013 113.111 86.2276 108.784 86.6577 104.427C86.814 102.847 86.5038 101.141 86.0513 99.5972C85.2733 96.9436 83.3848 95.0315 81.1683 93.4614C77.9505 91.1815 74.3838 89.5785 70.7112 88.1988C66.0103 86.4312 61.1614 85.2689 56.2231 84.3323C51.5469 83.445 46.9424 82.1546 42.3414 80.9124C39.6467 80.185 36.9213 79.615 34.2724 80.5963C27.0965 83.2546 20.3943 86.8332 14.7791 92.104C11.083 95.5733 8.30244 99.6901 7.20596 104.809C6.59367 107.666 6.99677 110.179 8.56569 112.643C11.7987 117.723 15.2092 122.686 17.864 128.131C19.7385 131.977 22.8223 134.809 26.8709 136.33C34.464 139.181 42.3297 140.82 49.1083 141.227ZM42.8938 77.7052C42.8985 77.8886 42.902 78.0731 42.9067 78.2564C44.4004 78.7065 45.8777 79.2295 47.3961 79.575C48.1235 79.7407 48.9544 79.6949 49.6913 79.5304C57.0375 77.8862 64.4696 77.9203 71.8899 78.5902C82.6162 79.5574 92.6443 83.0772 102.399 87.4619C102.825 87.6535 103.251 87.8685 103.63 88.1365C104.234 88.5631 104.714 89.1025 104.351 89.9111C103.989 90.7161 103.269 90.7607 102.553 90.5445C101.958 90.3647 101.398 90.0662 100.827 89.8123C91.7088 85.7496 82.3388 82.5178 72.353 81.4225C67.2337 80.8607 62.0969 80.8678 56.9412 81.3813C59.0989 82.0183 61.2942 82.4449 63.4578 82.9961C69.3186 84.4898 74.9667 86.5452 80.2399 89.5503C84.1498 91.7785 87.364 94.6437 88.9071 99.0401C88.967 99.2106 89.2162 99.3163 89.2984 99.3857C98.5874 91.8713 108.467 92.5882 118.724 96.819C109.772 87.3879 98.9223 81.2015 86.4004 77.9826C71.9193 74.2607 57.3948 73.9445 42.8938 77.7052ZM89.5593 115.237C89.5593 118.501 89.745 121.171 89.5182 123.807C89.1257 128.358 91.6371 130.715 95.3967 132.295C95.8291 132.477 96.2616 132.662 96.6988 132.831C101.322 134.608 106.131 135.124 111.013 134.619C115.012 134.205 118.809 132.993 122.324 130.966C124.466 129.731 125.667 128.013 125.666 125.464C125.664 123.273 125.821 121.084 125.891 118.893C125.917 118.073 125.896 117.251 125.896 115.892C120.869 121.695 114.702 123.337 107.869 123.091C100.987 122.841 94.9289 120.48 89.5593 115.237ZM107.198 117.231C107.76 118.525 108.074 120.258 109.744 120.25C114.841 120.229 119.556 118.939 122.973 114.823C125.056 112.315 125.405 109.377 123.963 106.457C123.216 104.947 122.149 103.517 120.955 102.323C118.406 99.7747 115.193 98.3033 111.727 97.4278C106.596 96.1327 101.497 96.1092 96.5084 98.1C94.2156 99.0155 92.0966 100.278 90.7781 102.408C89.329 104.749 88.6274 107.288 89.8438 110.091C91.0707 109.349 92.0637 108.749 93.1003 108.122C94.0675 105.035 95.0911 104.595 98.2818 105.914C98.766 106.114 99.296 106.307 99.8084 106.317C100.851 106.341 101.897 106.237 103.072 106.18C103.677 105.15 104.298 103.812 105.987 104.208C107.587 104.584 108.473 105.758 108.935 107.263C109.117 107.857 109.194 108.485 109.282 109.102C109.37 109.713 109.412 110.33 109.468 110.878C112.128 112.301 112.273 113.539 110.001 115.423C109.171 116.11 108.182 116.605 107.198 117.231ZM79.5112 161.573C79.9249 161.534 80.3233 161.535 80.7029 161.452C85.1358 160.49 89.6017 159.653 93.9852 158.501C97.78 157.505 98.7578 155.419 97.2676 151.817C96.4062 149.736 96.6847 148.067 98.1173 146.408C98.7166 145.714 99.2079 144.868 99.5346 144.01C99.9812 142.837 99.5887 142.165 98.3547 142.012C97.2782 141.878 96.1688 141.967 95.077 142.027C93.7913 142.097 92.4856 142.083 91.5619 141.095C90.3021 139.75 88.9635 139.667 87.3135 140.241C85.8057 140.765 84.4236 140.337 83.2073 139.22C81.4974 137.647 81.2177 137.68 79.5841 139.224C79.1305 139.653 78.6216 140.089 78.3478 140.628C77.1455 142.991 75.4497 144.616 72.7079 145.048C71.8465 145.183 70.931 145.891 71.2741 146.866C72.0298 149.015 71.3388 150.804 70.4338 152.684C69.9356 153.72 70.0037 154.958 71.2401 155.531C73.0311 156.36 74.1558 157.815 75.3486 159.277C76.4028 160.572 77.7355 161.539 79.5112 161.573ZM96.7916 108.19C95.9749 109.187 95.493 110 94.8032 110.55C94.1145 111.1 93.2155 111.387 92.4375 111.775C93.6667 115.162 97.0514 117.491 99.9212 116.82C102.621 116.189 105.315 115.396 107.393 113.828C106.909 111.642 106.464 109.631 106.051 107.771C104.939 108.413 103.965 109.463 103.143 109.355C100.991 109.075 98.5744 110.252 96.7916 108.19ZM102.206 119.483C103.389 119.709 104.244 119.872 105.347 120.084C104.4 118.249 104.4 118.249 102.206 119.483Z" fill="#BC0000"/>
<path d="M59.1233 99.9793C61.16 99.9487 63.5774 102.379 63.6703 104.549C63.7466 106.343 61.1541 108.737 59.0657 108.8C56.8634 108.867 54.9431 106.96 54.8843 104.645C54.8209 102.144 56.7564 100.013 59.1233 99.9793ZM61.2082 104.563C60.2798 103.81 59.7415 103.119 59.0505 102.888C58.37 102.659 57.5838 103.773 57.6719 104.67C57.7589 105.556 58.2654 106.236 59.1668 106.02C59.7932 105.871 60.3021 105.236 61.2082 104.563Z" fill="#BC0000"/>
<path d="M69.673 103.041C69.7211 100.65 71.3711 98.8451 73.5065 98.8486C75.9122 98.8533 78.2744 101.21 78.1616 103.494C78.0534 105.692 75.8546 107.878 73.7275 107.9C71.5122 107.925 69.6201 105.657 69.673 103.041ZM73.2045 101.73C73.0023 102.103 72.5534 102.612 72.4547 103.18C72.2937 104.111 73.0106 105.06 73.7134 105.118C74.4302 105.178 75.4221 104.268 75.4374 103.534C75.455 102.769 74.4103 101.747 73.2045 101.73Z" fill="#BC0000"/>
<path d="M72.1418 115.252C72.2218 117.23 70.2321 119.531 68.3224 119.668C66.1283 119.824 64.1092 117.891 64.0634 115.591C64.0164 113.243 65.8168 111.25 68.0274 111.203C70.0406 111.159 72.0561 113.144 72.1418 115.252ZM69.6339 115.741C69.0393 115.035 68.7114 114.283 68.1955 114.118C67.3998 113.866 66.9732 114.612 66.8216 115.329C66.6559 116.111 67.3975 117.058 68.0909 116.875C68.588 116.747 68.9852 116.24 69.6339 115.741Z" fill="#BC0000"/>
<path d="M52.2554 125.071C50.2552 125.122 48.5946 123.334 48.5112 121.042C48.4265 118.713 49.9555 116.93 52.0521 116.908C53.9759 116.888 55.7987 118.79 55.9092 120.931C56.0185 123.036 54.2662 125.021 52.2554 125.071ZM51.8911 119.747C51.0097 120.385 50.9497 121.184 51.6502 122.024C51.8182 122.226 52.4893 122.328 52.6279 122.186C53.3625 121.428 53.1251 120.649 52.4517 119.959C52.3588 119.863 52.1802 119.851 51.8911 119.747Z" fill="#BC0000"/>
<path d="M66.9024 96.705C64.9022 96.6709 63.3403 95.0691 63.3756 93.0877C63.4132 90.9923 65.0656 89.4633 67.2221 89.5291C69.2893 89.5926 71.2942 91.2849 71.3389 93.0031C71.387 94.8094 69.0707 96.7414 66.9024 96.705ZM68.4408 93.11C67.7674 92.4766 67.1633 91.9301 66.336 92.7739C66.1961 92.9173 66.1961 93.4438 66.336 93.5754C67.1375 94.3334 67.785 93.9832 68.4408 93.11Z" fill="#BC0000"/>
<path d="M78.6732 123.203C76.6518 123.254 74.9877 121.486 74.9536 119.25C74.9219 117.148 76.3439 115.532 78.2584 115.497C80.1246 115.463 81.7499 117.358 81.8275 119.658C81.8968 121.735 80.6347 123.153 78.6732 123.203ZM78.558 118.408C78.3559 118.448 78.1538 118.488 77.9516 118.528C77.4815 119.436 77.5709 120.133 79.188 120.648C78.9165 119.682 78.7379 119.045 78.558 118.408Z" fill="#BC0000"/>
<path d="M38.881 130.68C38.7552 132.613 37.1581 133.995 35.2519 133.82C33.4209 133.652 31.879 131.814 31.9601 129.894C32.0447 127.881 33.7335 126.187 35.5339 126.307C37.473 126.436 39.0255 128.464 38.881 130.68ZM35.5081 131.058C35.7102 130.983 35.9135 130.908 36.1157 130.833C35.9453 130.28 35.7748 129.726 35.5328 128.939C34.3517 130.068 34.5926 130.633 35.5081 131.058Z" fill="#BC0000"/>
<path d="M44.8616 98.3068C44.7417 100.506 43.2845 101.969 41.3571 101.825C39.5637 101.691 37.996 99.9663 38.0688 98.2081C38.1441 96.3807 39.8352 94.7894 41.6063 94.8799C43.6746 94.9845 44.9686 96.3478 44.8616 98.3068ZM41.3677 97.4771C41.1291 97.966 40.8506 98.3292 40.9235 98.4267C41.115 98.6806 41.4605 98.8181 41.7461 99.0014C41.8578 98.8286 42.0987 98.6054 42.0552 98.4925C41.9424 98.1987 41.7038 97.9519 41.3677 97.4771Z" fill="#BC0000"/>
<path d="M51.5875 86.3042C53.4995 86.2737 54.8687 87.557 54.8887 89.4021C54.911 91.4423 53.5665 92.8996 51.6686 92.8902C49.9375 92.8808 48.3591 91.333 48.3439 89.6301C48.3286 87.9108 49.8693 86.3313 51.5875 86.3042Z" fill="#BC0000"/>
<path d="M61.374 110.395C61.9299 111.198 62.4082 111.619 62.5245 112.123C62.6844 112.817 61.7242 113.622 60.9509 113.386C60.4726 113.239 59.7287 112.467 59.811 112.266C60.0589 111.663 60.6536 111.204 61.374 110.395Z" fill="#BC0000"/>
<path d="M45.9883 128.281C46.57 129.287 47.0965 129.857 47.2176 130.503C47.3468 131.198 46.7557 131.636 46.0294 131.573C45.0869 131.489 44.6333 130.795 44.7425 129.967C44.8037 129.494 45.3654 129.088 45.9883 128.281Z" fill="#BC0000"/>
<path d="M41.5462 87.8417C40.5402 88.4963 40.0067 88.9981 39.3815 89.1732C39.1382 89.2413 38.4906 88.6326 38.3755 88.2307C38.1628 87.4938 38.9396 86.6429 39.7223 86.7593C40.2076 86.831 40.6378 87.2823 41.5462 87.8417Z" fill="#BC0000"/>
<path d="M63.3375 133.509C63.0049 133.767 62.5443 134.373 62.006 134.451C61.6711 134.499 60.9894 133.808 60.8743 133.346C60.6921 132.616 61.107 131.94 61.9672 131.869C62.8146 131.797 63.2423 132.301 63.3375 133.509Z" fill="#BC0000"/>
<path d="M79.8812 111.586C79.0339 112.22 78.5779 112.827 78.1795 112.792C77.7141 112.749 77.0242 112.2 76.9431 111.774C76.8715 111.398 77.5002 110.526 77.8281 110.521C78.3605 110.513 78.8987 111.037 79.8812 111.586Z" fill="#BC0000"/>
<path d="M29.7295 102.292C28.9315 102.947 28.5507 103.446 28.056 103.62C27.3685 103.861 26.4871 103.124 26.6951 102.475C26.8455 102.006 27.4237 101.447 27.8844 101.372C28.3145 101.301 28.8398 101.817 29.7295 102.292Z" fill="#BC0000"/>
<path d="M35.6987 109.86C34.8937 110.479 34.4988 111.007 34.0193 111.099C33.2378 111.248 32.5844 110.728 32.7372 109.917C32.8194 109.483 33.4682 108.917 33.9171 108.862C34.3402 108.809 34.8373 109.346 35.6987 109.86Z" fill="#BC0000"/>
<path d="M71.1888 126.21C70.2662 126.755 69.7644 127.232 69.2074 127.308C68.9159 127.348 68.2883 126.715 68.2355 126.33C68.1309 125.561 68.6785 124.95 69.4612 125.035C69.9348 125.086 70.3556 125.618 71.1888 126.21Z" fill="#BC0000"/>
<path d="M24.3869 112.83C23.6959 113.345 23.2305 113.959 22.8121 113.929C22.3914 113.899 21.7321 113.259 21.6839 112.83C21.5969 112.05 22.2186 111.502 23.0331 111.68C23.4456 111.769 23.7664 112.28 24.3869 112.83Z" fill="#BC0000"/>
<path d="M58.6777 120.065C59.337 120.932 59.867 121.373 59.9998 121.911C60.0668 122.183 59.4745 122.847 59.0772 122.954C58.3145 123.159 57.6305 122.727 57.6529 121.894C57.6658 121.422 58.1512 120.963 58.6777 120.065Z" fill="#BC0000"/>
<path d="M58.851 95.7895C58.3386 94.928 57.8614 94.425 57.7827 93.8644C57.7451 93.6 58.4479 92.9889 58.8521 92.9537C59.6736 92.8831 60.1907 93.4801 60.025 94.3016C59.9416 94.7212 59.4492 95.0596 58.851 95.7895Z" fill="#BC0000"/>
<path d="M61.404 89.1872C60.5778 89.6056 60.1454 90.0051 59.7187 89.9993C59.0183 89.9899 58.5282 89.4293 58.7833 88.7406C58.9266 88.3528 59.5871 87.8557 59.9268 87.9144C60.3722 87.992 60.7294 88.569 61.404 89.1872Z" fill="#BC0000"/>
<path d="M33.2232 87.7476C33.7837 88.4668 34.3361 88.8746 34.3749 89.3259C34.4043 89.6655 33.6862 90.4165 33.4582 90.3601C32.9893 90.2414 32.444 89.7689 32.2853 89.3176C32.1854 89.0332 32.7331 88.5232 33.2232 87.7476Z" fill="#BC0000"/>
<path d="M52.3426 98.744C51.7432 99.2411 51.299 99.8581 51.0075 99.7935C50.5316 99.6865 50.1567 99.1353 49.7383 98.771C50.1508 98.4032 50.5175 97.8485 50.9911 97.7356C51.2837 97.6651 51.7373 98.2668 52.3426 98.744Z" fill="#BC0000"/>
<path d="M38.7566 84.6625C38.1573 85.1561 37.7107 85.7719 37.4228 85.7061C36.9456 85.5968 36.5707 85.0468 36.1523 84.6825C36.566 84.3146 36.935 83.7611 37.4087 83.6494C37.7001 83.5789 38.1526 84.183 38.7566 84.6625Z" fill="#BC0000"/>
<path d="M83.5255 102.873C82.8039 103.427 82.3937 103.976 81.946 104.009C81.6028 104.035 80.9929 103.466 80.8883 103.062C80.7061 102.363 81.2244 101.829 81.9366 101.897C82.3655 101.938 82.7557 102.379 83.5255 102.873Z" fill="#BC0000"/>
<path d="M76.3477 95.8003C76.9929 95.3114 77.3842 94.7849 77.7544 94.7978C78.1363 94.8119 78.7192 95.2926 78.8215 95.6745C79.0083 96.375 78.5312 96.9273 77.7873 96.8145C77.3654 96.7499 77.0046 96.2833 76.3477 95.8003Z" fill="#BC0000"/>
<path d="M51.2844 111.317C50.6121 111.77 50.2255 112.231 49.7907 112.283C49.0573 112.368 48.5473 111.821 48.7529 111.111C48.8622 110.734 49.4921 110.275 49.8847 110.279C50.2713 110.281 50.6533 110.819 51.2844 111.317Z" fill="#BC0000"/>
<path d="M26.9206 128.307C27.46 128.917 27.9583 129.236 28.0641 129.656C28.2404 130.359 27.8044 130.964 27.0593 130.855C26.6644 130.797 26.1179 130.24 26.0627 129.85C26.0086 129.47 26.4987 129.015 26.9206 128.307Z" fill="#BC0000"/>
<path d="M74.9474 112.21C74.3868 111.643 73.845 111.345 73.7381 110.933C73.5454 110.198 74.0965 109.669 74.7899 109.755C75.1883 109.804 75.7524 110.346 75.8159 110.735C75.8746 111.096 75.3646 111.547 74.9474 112.21Z" fill="#BC0000"/>
<path d="M59.9082 128.141C60.4042 128.759 60.9377 129.133 60.9295 129.494C60.9213 129.877 60.4606 130.475 60.0869 130.576C59.4123 130.759 58.8482 130.306 58.9493 129.566C59.0057 129.153 59.4511 128.791 59.9082 128.141Z" fill="#BC0000"/>
<path d="M59.0078 158.328C47.4025 157.675 36.8597 153.893 27.2076 147.516C25.9078 146.656 24.715 145.632 23.5151 144.633C22.9322 144.147 22.6231 143.494 23.2248 142.797C23.8006 142.13 24.4799 142.264 25.111 142.715C25.8726 143.26 26.573 143.896 27.3533 144.412C35.7409 149.959 44.7454 153.913 54.8487 155.017C56.3248 155.178 57.7997 155.348 59.2722 155.536C59.8128 155.606 60.4498 155.594 60.8506 155.884C61.2772 156.192 61.6873 156.808 61.7026 157.303C61.7132 157.632 61.0727 158.13 60.6296 158.288C60.1466 158.462 59.5531 158.328 59.0078 158.328Z" fill="#BC0000"/>
<path d="M117.528 104.725C116.765 105.221 116.261 105.802 115.877 105.732C115.436 105.651 114.908 105.048 114.768 104.57C114.569 103.886 115.402 103.106 116.027 103.356C116.503 103.546 116.844 104.076 117.528 104.725Z" fill="#BC0000"/>
<path d="M106.456 103.305C105.838 102.574 105.332 102.208 105.168 101.726C104.938 101.051 105.677 100.29 106.391 100.508C106.864 100.653 107.456 101.206 107.522 101.646C107.579 102.038 106.987 102.527 106.456 103.305Z" fill="#BC0000"/>
<path d="M118.945 115.848C118.485 115.074 117.996 114.604 118 114.136C118.002 113.807 118.643 113.262 119.054 113.204C119.769 113.104 120.255 113.657 120.088 114.373C119.987 114.804 119.511 115.146 118.945 115.848Z" fill="#BC0000"/>
<path d="M116.639 106.997C117.176 107.921 117.658 108.395 117.654 108.865C117.652 109.197 116.987 109.781 116.621 109.777C116.253 109.774 115.596 109.184 115.598 108.852C115.6 108.382 116.089 107.914 116.639 106.997Z" fill="#BC0000"/>
<path d="M120.467 105.846C121.01 106.564 121.464 106.912 121.553 107.337C121.705 108.064 121.191 108.571 120.494 108.453C120.09 108.383 119.468 107.834 119.477 107.514C119.486 107.054 119.982 106.606 120.467 105.846Z" fill="#BC0000"/>
<path d="M82.3069 145.792C81.2504 146.849 80.1069 148.002 78.9528 149.144C78.3981 149.694 77.8975 150.363 77.2323 150.713C76.7998 150.941 75.9184 150.9 75.6011 150.598C75.292 150.304 75.1769 149.276 75.4366 148.998C77.2452 147.061 79.0845 145.132 81.0953 143.413C82.2399 142.434 83.6796 142.806 84.742 143.802C86.1898 145.158 87.5836 145.484 89.3523 144.339C90.3207 143.711 91.4677 143.918 92.4255 144.677C93.0366 145.162 93.7559 145.551 94.2389 146.138C94.5633 146.533 94.8335 147.368 94.6302 147.7C94.3905 148.09 93.5114 148.439 93.0884 148.292C92.2387 147.997 91.51 147.353 90.8566 146.934C89.3476 147.258 87.8857 147.917 86.5118 147.768C85.2144 147.625 84.0098 146.634 82.3069 145.792Z" fill="#BC0000"/>
<path d="M80.2567 157.318C80.0028 157.114 79.4963 156.9 79.36 156.542C79.2202 156.177 79.2907 155.536 79.5398 155.258C80.051 154.686 80.7209 154.244 81.3626 153.803C82.586 152.962 83.8282 152.144 85.0786 151.342C85.7391 150.919 86.5312 150.797 86.9002 151.577C87.107 152.013 86.9954 152.978 86.6663 153.227C84.8013 154.637 82.8292 155.908 80.8866 157.213C80.7691 157.29 80.5834 157.266 80.2567 157.318Z" fill="#BC0000"/>
</g>
<g opacity="0.2">
<path d="M81.4326 -0.0201588C81.9627 -2.73609 83.5527 -4.86911 85.2157 -6.95159C86.1652 -8.13974 87.4368 -8.66389 88.9 -9.19743C91.0036 -9.96368 93.3129 -10.4502 95.1192 -11.9827C95.4835 -12.2918 96.0876 -12.4046 96.5929 -12.4352C97.1923 -12.4716 97.8034 -12.32 98.9927 -12.1837C98.21 -12.85 97.8727 -13.1873 97.4885 -13.4564C95.9513 -14.5341 94.3107 -15.4848 92.8734 -16.68C90.7321 -18.4605 89.5334 -20.7898 89.544 -23.6467C89.5475 -24.5587 89.7637 -25.379 90.651 -25.8162C91.5689 -26.2686 92.301 -25.8115 93.0015 -25.2486C95.5047 -23.2401 98.0737 -21.3104 100.499 -19.2115C102.013 -17.9011 103.313 -16.3428 104.805 -14.7962C105.018 -15.0829 105.27 -15.3591 105.451 -15.6741C107.357 -18.9835 110.384 -20.6147 113.993 -21.2928C117.807 -22.0085 121.642 -21.8898 125.447 -21.2187C126.431 -21.0448 127.439 -20.7016 128.297 -20.1998C130.048 -19.1739 130.125 -17.5991 128.683 -16.1406C124.36 -11.7665 119.38 -9.01057 112.984 -9.62756C112.388 -9.68515 111.774 -9.56293 111.08 -9.10341C112.311 -8.7673 113.53 -8.22436 114.777 -8.14797C116.251 -8.05865 117.136 -7.42873 117.642 -6.15362C118.052 -5.11943 118.547 -4.31088 119.637 -3.72797C120.331 -3.3566 120.822 -2.29538 121.063 -1.44687C121.53 0.196083 121.287 1.89545 120.295 3.2822C118.936 5.18018 117.6 7.18745 115.867 8.70466C109.036 14.6795 101.172 17.8479 91.9238 16.8031C88.9223 16.4634 86.11 15.5162 83.5057 14.0249C80.9931 12.5864 78.5099 11.0868 76.1007 9.48148C71.5314 6.43649 66.5626 5.01683 61.0567 4.91458C48.9849 4.69012 36.9365 5.06618 24.887 5.72196C20.5869 5.95583 16.2727 6.1086 11.9702 6.03104C9.57394 5.98756 7.14477 5.56918 4.81548 4.97922C3.51687 4.65016 2.23118 3.80048 1.22754 2.87205C-0.641052 1.14331 -0.330795 -1.0614 1.84806 -2.41055C4.48525 -4.0441 7.43505 -4.808 10.4648 -5.34155C16.3115 -6.37104 22.1805 -5.97851 28.0437 -5.6565C38.053 -5.10533 48.067 -4.59646 58.0646 -3.87957C63.4459 -3.4941 68.8155 -2.83245 74.1557 -2.05681C76.5249 -1.7113 78.8095 -0.774649 81.4326 -0.0201588ZM108.025 1.12215C110.86 0.225462 113.484 -1.09313 116.142 -2.71964C115.787 -3.64218 115.488 -4.41782 115.199 -5.16879C114.3 -5.32979 113.471 -5.31922 112.793 -5.63182C111.239 -6.34753 109.664 -6.4486 107.998 -6.28759C106.654 -6.15714 105.355 -6.35341 104.291 -7.36174C103.296 -8.30427 102.242 -9.18451 101.49 -9.84968C99.2936 -9.84968 97.3275 -9.84968 95.9489 -9.84968C94.7091 -9.06581 93.9452 -8.46175 93.0849 -8.06452C91.5524 -7.35587 90.1974 -6.18065 88.3699 -6.18417C88.1843 -6.18417 87.9598 -5.95501 87.8164 -5.7799C86.1065 -3.67861 84.3566 -1.59377 84.1192 1.2526C91.4901 4.7618 100.315 4.68307 108.063 1.09865L108.025 1.12215ZM118.138 -0.657125C117.479 -0.323362 116.867 -0.00958252 116.252 0.295975C114.151 1.34074 112.082 2.45955 109.941 3.41265C104.338 5.90412 98.4968 7.10519 92.3363 6.45294C88.2348 6.01811 84.467 4.51853 80.6711 3.02836C78.0633 2.00474 75.3944 0.930593 72.6549 0.488712C67.7966 -0.292809 62.8724 -0.702959 57.9612 -1.09548C53.4378 -1.45745 48.8944 -1.57262 44.3616 -1.82999C36.1562 -2.2942 27.9555 -2.87476 19.7466 -3.22615C15.2761 -3.41771 10.8232 -2.92765 6.54306 -1.50211C5.26442 -1.0755 3.83183 -0.774647 2.84699 0.723755C3.70373 1.25731 4.41944 1.90485 5.25854 2.17985C6.65705 2.63818 8.1343 3.12825 9.57864 3.1306C15.289 3.14118 21.0076 3.12943 26.7074 2.82857C37.9696 2.23391 49.2305 2.0165 60.5091 2.09406C67.0832 2.13989 72.9781 3.89332 78.3724 7.61053C80.5583 9.11716 82.8511 10.4922 85.1898 11.7485C89.3089 13.9614 93.7207 14.7006 98.371 14.0296C104.533 13.1411 109.86 10.5027 114.393 6.29899C115.64 5.14257 116.652 3.71233 117.655 2.3244C118.237 1.52055 118.681 0.563927 118.138 -0.657125ZM106.446 -11.3622C108.396 -11.7206 110.131 -12.1237 111.891 -12.3341C113.201 -12.4916 114.543 -12.3576 115.867 -12.4281C120.142 -12.6561 123.417 -14.7139 126.342 -18.1561C122.491 -19.0528 118.953 -19.1245 115.373 -18.7002C110.886 -18.1679 107.967 -15.7469 106.446 -11.3622ZM100.504 -15.2357C98.6002 -17.6414 95.9748 -19.0916 93.4387 -20.6605C95.0358 -17.8482 97.8152 -16.6013 100.504 -15.2357Z" fill="#BC0000"/>
<path d="M101.903 -0.181187C101.901 0.813047 101.575 1.55226 100.511 1.68624C99.6622 1.79201 99.0911 1.16561 99.1181 0.22779C99.1592 -1.21655 99.741 -2.16731 100.577 -2.06271C101.689 -1.92404 101.822 -1.04262 101.903 -0.181187Z" fill="#BC0000"/>
<path d="M108.064 1.10114C107.701 0.7662 107.316 0.451241 106.978 0.0939747C106.471 -0.44075 106.413 -1.12825 106.997 -1.5196C107.409 -1.79695 108.246 -1.92622 108.59 -1.68648C108.946 -1.43851 109.126 -0.629959 109.033 -0.132842C108.948 0.324318 108.395 0.695685 108.038 1.11406C108.026 1.12229 108.064 1.10114 108.064 1.10114Z" fill="#BC0000"/>
<path d="M92.3281 1.5889C91.784 0.826185 91.3021 0.405459 91.1623 -0.109286C90.9884 -0.745079 91.898 -1.46902 92.5843 -1.18344C93.045 -0.991877 93.6079 -0.363136 93.6032 0.0646439C93.5985 0.487722 92.938 0.90375 92.3281 1.5889Z" fill="#BC0000"/>
</g>
<g opacity="0.2">
<path d="M3.94643 49.011C3.91353 45.4407 5.42133 42.042 7.53437 38.8665C9.97882 35.1916 13.092 32.1102 16.3168 29.1334C17.5813 27.9664 18.9269 26.8735 20.0857 25.6089C22.033 23.4829 23.8382 21.2289 25.7538 19.0724C26.1287 18.6505 26.7645 18.1428 27.2169 18.198C27.6659 18.2532 28.2593 18.9055 28.3968 19.4038C28.8505 21.0585 29.9928 22.0703 31.3396 22.9059C33.9298 24.5136 36.5411 26.0908 39.1654 27.6432C42.9613 29.8879 46.4141 32.5592 49.4027 35.8051C52.4453 39.1098 54.5513 42.9328 54.9803 47.4456C55.1613 49.3507 54.9803 51.3685 54.5407 53.2359C53.7251 56.7052 51.2642 58.8159 48.0195 60.0792C45.9699 59.5715 45.0579 61.2862 43.7534 62.2499C42.0752 63.4897 40.236 64.2242 38.0853 64.0738C37.6199 64.0409 37.077 64.2783 36.6621 64.5368C35.8712 65.0316 35.179 65.685 34.3857 66.1774C33.0754 66.9907 31.5041 67.5125 30.1268 66.919C27.5342 65.8025 24.6079 65.7638 22.1564 64.451C19.8072 63.1936 17.3286 62.8175 14.7925 62.4026C8.32647 61.3461 3.86417 55.9413 3.94643 49.011ZM27.1229 27.7666C26.9137 28.6715 26.7222 29.3391 26.6082 30.0207C26.1698 32.6438 25.7267 35.2669 25.3413 37.8982C24.4152 44.2138 24.1296 50.5423 25.7162 56.7863C26.2062 58.716 27.0324 60.6586 28.1289 62.3133C29.7566 64.7707 31.8061 64.8823 34.1272 63.0185C36.487 61.1252 37.5953 58.6466 37.5189 55.6275C37.4225 51.8033 36.3061 48.2178 34.7983 44.765C32.362 39.1827 29.7918 33.658 27.1229 27.7666ZM16.1358 59.5704C15.9454 59.0803 15.8502 58.7865 15.7209 58.5091C13.6326 54.0069 13.2483 49.3413 14.3365 44.5193C15.292 40.2874 16.9925 36.341 18.8799 32.4616C19.2419 31.7177 19.5604 30.9515 20.1151 29.7128C19.3571 30.2628 19.0221 30.4485 18.7577 30.7058C16.8503 32.5627 14.7996 34.3032 13.1002 36.3363C11.3045 38.4846 9.71558 40.8362 8.27946 43.2442C6.83747 45.6617 6.49195 48.4034 6.83629 51.2005C7.3863 55.6757 11.3832 59.3647 16.1358 59.5704ZM39.3557 60.9313C42.3537 60.5129 44.0214 58.7959 44.4844 55.7732C45.0532 52.0619 44.5725 48.4493 43.3139 44.9236C41.0939 38.7008 37.07 33.7837 32.181 29.4918C31.8285 29.1828 31.4077 28.9512 30.6474 28.4283C31.0188 29.4824 31.1798 30.0771 31.4313 30.6306C32.6923 33.4065 34.0367 36.1459 35.239 38.9465C36.594 42.1031 37.9984 45.2562 39.0713 48.5127C40.3829 52.4885 40.9905 56.5841 39.3557 60.9313ZM24.3341 62.1958C23.7959 60.2861 23.2365 58.5973 22.8475 56.8709C21.4008 50.4413 21.6147 43.9811 22.5948 37.5139C22.9697 35.0377 23.3328 32.5603 23.7007 30.083C20.2467 35.8662 17.1453 41.7376 16.5706 48.5233C16.2803 51.9538 17.0536 55.215 18.7318 58.2306C19.9282 60.3801 21.7651 61.6493 24.3341 62.1958ZM37.2979 30.0653C39.2606 32.7507 41.336 35.3562 43.147 38.1344C44.9439 40.8926 46.326 43.9329 46.8243 47.1953C47.3178 50.433 47.379 53.7366 47.6293 57.0049C50.2065 55.9378 51.3935 54.6286 52.0023 52.0349C53.0893 47.4127 51.5909 43.3641 48.9538 39.7033C46.0322 35.65 42.1328 32.6496 37.8409 30.1476C37.6728 30.0489 37.4284 30.083 37.2979 30.0653Z" fill="#BC0000"/>
<path d="M70.2177 64.719C67.4441 64.6979 64.9221 64.3794 62.6704 62.8563C60.6878 61.5154 59.7335 59.7149 59.7664 57.3187C59.8276 52.7823 62.6587 48.5586 66.9235 46.9709C69.3374 46.0718 71.8089 45.3162 74.2839 44.5969C78.4395 43.3888 82.0063 41.2664 84.9713 38.1015C85.7364 37.2859 86.5156 35.9943 87.8788 36.7653C89.3314 37.5879 88.6557 38.9876 88.289 40.137C86.7236 45.0447 85.1171 49.9383 83.4776 54.8213C83.1568 55.778 82.6409 56.6711 82.1884 57.5796C79.6923 62.5848 75.6483 64.9705 70.2177 64.719ZM84.2486 42.7107C80.2364 45.8944 75.4544 47.1519 70.7747 48.6432C69.5842 49.0228 68.3726 49.366 67.2361 49.8725C64.5942 51.0524 63.3638 53.2724 62.6716 56.2222C63.164 55.9777 63.3838 55.9166 63.5448 55.7827C66.2795 53.4957 69.757 52.9269 72.9559 51.7223C73.6951 51.4438 74.3732 51.7235 74.6882 52.4991C75.0125 53.3006 74.6047 53.8823 73.9243 54.2361C73.3743 54.5216 72.7608 54.6862 72.172 54.8954C70.4057 55.5206 68.6158 56.087 66.8753 56.7792C65.3088 57.4021 64.3733 58.5691 64.2593 60.641C65.2124 60.9924 66.1796 61.5189 67.2068 61.6858C68.5853 61.9102 70.0108 61.9396 71.414 61.9055C74.7023 61.8256 77.3066 60.4212 78.9824 57.5537C81.6431 52.9997 83.2285 48.0391 84.2486 42.7107Z" fill="#BC0000"/>
<path d="M77.3438 50.6422C77.3449 49.3918 78.6259 48.1108 79.5414 48.2777C79.9903 48.3588 80.5662 48.9358 80.6814 49.3894C80.8647 50.1204 79.3357 51.5377 78.5131 51.4026C78.0277 51.3215 77.6117 50.8267 77.3438 50.6422Z" fill="#BC0000"/>
</g>
<g opacity="0.2">
<path d="M146.27 23.4773C144.908 14.4833 147.045 6.62699 152.618 -0.0741043C156.963 -5.29912 162.382 -9.27958 168.738 -11.9415C177.48 -15.6023 186.609 -17.6859 195.957 -18.9199C205.384 -20.1633 214.841 -20.423 224.318 -19.4817C231.513 -18.7671 238.581 -17.4309 245.399 -14.9958C246.913 -14.4552 248.192 -14.4599 249.64 -15.1557C252.036 -16.3086 254.541 -17.2299 256.953 -18.3546C259.59 -19.5851 262.266 -19.7943 264.914 -18.6472C266.981 -17.7517 269.081 -16.7892 270.897 -15.48C275.023 -12.5044 278.941 -9.2408 283.027 -6.20757C285.406 -4.44239 286.618 -2.36225 285.793 0.632204C285.691 1.00357 285.691 1.40902 285.676 1.79919C285.577 4.44108 284.334 6.41545 282.137 7.81161C280.688 8.7318 279.212 9.61087 277.666 10.5593C277.7 10.9424 277.664 11.3361 277.775 11.6828C279.271 16.299 279.479 21.0551 279.33 25.8477C279.202 29.9186 279.026 33.9872 278.922 38.0582C278.906 38.7257 278.938 39.5801 279.318 40.042C282.155 43.4724 285.086 46.8253 288.255 50.5131C288.65 48.7856 288.703 47.3119 288.345 45.9369C287.643 43.228 286.718 40.5767 285.904 37.896C285.726 37.306 285.522 36.6938 285.513 36.0897C285.5 35.2341 285.548 34.348 285.76 33.5242C287.478 26.8325 289.546 20.256 293.173 14.3188C294.214 12.6135 295.622 11.0717 297.092 9.70253C298.824 8.09014 301.028 7.48725 303.417 7.79986C307.487 8.3334 311.401 9.33821 314.936 11.5406C318.749 13.9169 320.589 17.3685 320.294 21.8026C319.794 29.2875 317.211 36.1485 313.576 42.6345C312.228 45.039 310.013 46.4845 307.627 47.7866C302.446 50.613 298.537 54.6393 296.405 60.4849C296.816 61.0278 297.27 61.6425 297.74 62.2442C301.41 66.9286 305.093 71.6036 308.748 76.2998C309.421 77.1624 309.968 78.1214 310.604 79.0134C313.057 82.4485 314.271 86.228 313.989 90.4847C313.829 92.9056 313.86 95.3383 313.761 97.7651C313.642 100.64 313.396 100.54 310.785 101.546C304.148 104.104 297.163 105.772 290.892 109.271C289.662 109.957 288.381 110.549 287.143 111.224C284.156 112.85 280.909 113.19 277.539 113.082C277.343 113.403 277.149 113.64 277.036 113.911C273.984 121.288 270.924 128.662 267.908 136.054C267.17 137.864 266.679 139.777 265.903 141.568C264.943 143.785 263.938 146.007 262.7 148.075C261.694 149.754 260.146 150.873 257.965 150.315C256.102 149.839 254.329 147.73 254.174 145.667C254.104 144.748 254.164 143.76 254.434 142.886C255.591 139.152 256.754 135.414 258.094 131.744C259.597 127.629 261.298 123.585 262.907 119.508C263.191 118.786 263.452 118.054 263.87 116.934C262.865 117.208 262.102 117.281 261.474 117.612C259.544 118.632 257.51 119.55 255.804 120.877C252.864 123.16 249.732 125.027 246.26 126.323C245.03 126.782 244.096 127.392 243.628 128.732C243.122 130.182 241.777 130.756 240.426 131.268C234.039 133.689 227.558 135.66 220.679 136.156C216.932 136.426 213.666 138.278 210.386 139.939C209.89 140.19 209.518 140.811 209.241 141.34C208.662 142.448 208.15 143.595 207.674 144.753C206.829 146.807 205.268 147.773 203.108 147.816C200.759 147.863 198.405 147.954 196.061 147.845C194.271 147.761 193.014 148.272 191.876 149.747C190.152 151.985 188.424 152.273 185.862 151.037C184.527 150.393 183.271 149.578 182.005 148.799C178.205 146.463 174.474 144.009 170.607 141.789C167.92 140.245 165.809 138.282 164.663 135.392C163.656 132.851 162.679 130.294 161.79 127.71C160.874 125.049 160.022 122.362 159.25 119.656C158.698 117.716 158.323 115.726 157.81 113.504C156.533 113.155 154.972 112.706 153.397 112.305C151.331 111.78 150.006 110.551 149.318 108.501C148.95 107.402 148.34 106.363 147.713 105.378C146.693 103.779 146.574 102.145 147.339 100.46C148.47 97.9673 149.605 95.5052 149.994 92.734C150.123 91.8138 150.998 91.0076 151.494 90.1286C152.253 88.7829 153.349 87.4961 153.65 86.0482C154.566 81.6423 160.281 77.6278 164.495 77.8323C167.212 77.9639 169.956 77.5549 173.096 77.3634C172.536 76.8545 172.289 76.5078 171.953 76.3433C164.119 72.4944 158.096 66.4491 152.406 60.05C151.431 58.9547 150.984 57.293 150.586 55.8134C150.268 54.6276 149.82 53.6616 148.923 52.8225C144.218 48.4154 140.273 43.3384 136.298 38.2956C134.069 35.468 134.058 30.8212 136.291 28.0148C137.658 26.2966 139.748 25.6338 141.709 24.8734C143.147 24.3105 144.671 23.9567 146.27 23.4773ZM228.157 2.7899C226.985 2.00838 225.812 1.22686 224.498 0.351324C223.893 0.623976 223.148 0.958914 222 1.47601C223.546 1.9931 224.617 2.44439 225.733 2.69353C226.509 2.86629 227.346 2.7617 228.155 2.7805C228.393 3.13307 228.561 3.58082 228.884 3.81587C229.51 4.27303 230.28 4.54098 230.891 5.01341C232.605 6.33788 232.632 7.86802 231.035 9.31354C230.751 9.56973 230.388 9.77539 230.194 10.0868C228.848 12.2492 228.68 12.3715 226.361 11.731C224.804 11.3008 223.284 10.732 221.74 10.222C221.115 12.9685 220.327 13.4103 217.789 12.362C216.565 11.8567 215.414 11.1704 214.25 10.5311C213.232 9.97165 212.242 9.36172 211.317 8.81877C209.015 10.2807 208.906 10.4065 207.394 13.7523C207.077 14.4539 206.676 14.9816 205.82 14.8559C204.988 14.7336 204.631 14.1472 204.563 13.3833C204.522 12.9215 204.577 12.4467 204.617 11.9801C204.73 10.6768 204.859 9.37582 204.988 7.99729C203.658 7.65295 202.592 8.18298 201.551 8.66364C199.775 9.48394 198.022 10.3536 196.28 11.2432C193.878 12.4702 191.275 11.6569 191.443 8.52027C191.45 8.39217 191.309 8.25584 191.285 8.21236C189.899 7.76107 188.582 7.33329 187.091 6.84675C185.44 8.57785 183.606 8.05605 181.76 6.58821C179.974 8.91631 178.249 8.0349 176.722 6.55412C176.411 7.84686 176.475 9.34056 175.759 10.0657C175.026 10.8084 173.53 10.7978 172.213 11.1598C171.208 13.3116 170.563 13.8734 168.748 13.3175C167.352 12.8897 166.387 13.0566 165.459 14.1507C165.098 14.5762 164.515 14.8136 164.001 15.1579C164.636 15.9617 165.226 16.5975 165.688 17.3168C166.659 18.8281 166.248 20.0256 164.584 20.6297C163.939 20.8636 163.257 20.9999 162.539 21.1962C162.539 21.9648 162.502 22.6581 162.545 23.3468C162.743 26.467 162.221 26.9618 159.138 26.5446C159.002 26.5258 158.85 26.6257 158.704 26.6727C158.608 26.7949 158.473 26.903 158.425 27.0417C157.715 29.0584 157.169 31.1702 154.272 30.9693C153.655 30.927 153.236 31.6956 153.669 32.4007C154.034 32.9965 154.494 33.5406 154.949 34.0765C162.065 42.4641 171.245 47.7914 181.534 51.0385C200.311 56.9627 219.394 57.5574 238.549 52.9059C247.991 50.613 256.826 46.8735 264.465 40.6907C265.727 39.6694 266.879 38.5106 267.909 37.5716C267.439 34.9509 264.956 33.2433 265.957 30.5004C266.029 30.3041 265.734 29.941 265.558 29.693C264.808 28.6435 265.041 27.6434 265.634 26.6221C265.929 26.1133 266.142 25.5562 266.506 24.7771C263.554 24.4738 264.398 21.7579 263.287 20.1326C262.585 20.283 261.935 20.4229 261.453 20.5275C260.94 23.0495 260.603 25.3811 259.971 27.6293C259.382 29.7247 258.354 29.9821 256.83 28.4966C251.841 23.6347 246.891 18.7329 241.964 13.8076C239.902 11.7462 238.555 9.44868 240.45 6.58703C239.653 5.61983 238.964 4.78424 238.231 3.89461C236.357 4.55273 234.688 4.58093 233.198 3.06255C232.844 2.70294 231.898 2.81458 231.244 2.88627C230.199 2.99439 229.163 3.66544 228.157 2.7899ZM154.803 57.977C154.75 58.1497 154.697 58.3236 154.644 58.4964C156.151 60.0747 157.662 61.6495 159.164 63.2337C164.296 68.6503 170.286 72.8258 177.147 75.7674C178.546 76.3668 179.915 76.6653 181.463 76.5348C186.531 76.1082 191.606 75.6675 196.687 75.4936C199.401 75.4007 202.162 75.6663 204.851 76.0965C207.306 76.489 209.217 77.8088 209.648 80.5646C209.719 81.0159 209.954 81.4414 210.185 82.0807C211.009 82.0807 211.86 82.096 212.708 82.0783C218.993 81.9514 225.199 81.1311 231.32 79.7537C242.619 77.2106 253.421 73.3876 263.206 67.0367C266.435 64.9413 269.443 62.5779 272.072 59.7468C273.114 58.6245 273.774 57.4023 274.006 55.8404C275.136 48.2473 276.117 40.6437 276.232 32.953C276.239 32.4571 276.183 31.96 276.13 31.001C275.642 31.7132 275.414 32.0035 275.232 32.3196C273.179 35.884 270.534 38.9537 267.451 41.6614C263.179 45.4139 258.371 48.3214 253.205 50.653C242.207 55.6148 230.608 57.9781 218.61 58.4776C204.717 59.057 191.101 57.5139 177.951 52.7472C177.277 52.5028 176.731 52.4017 175.973 52.7508C172.427 54.3843 168.833 55.9203 165.231 57.4317C161.865 58.8443 158.45 59.9866 154.803 57.977ZM270.289 34.7793C272.69 31.8049 274.289 28.6412 275.337 25.1731C276.574 21.0798 276.59 17.01 275.278 12.9215C273.656 7.86684 270.757 3.65604 266.88 0.097477C261.731 -4.62807 255.693 -7.90223 249.269 -10.5206C239.073 -14.6762 228.436 -16.7128 217.461 -17.103C203.651 -17.5943 190.087 -16.0982 176.875 -11.9368C169.557 -9.63215 162.783 -6.39325 157.213 -0.872078C152.085 4.21191 149.059 10.1902 148.623 17.3873C148.371 21.537 149.574 25.3729 151.521 28.8692C152.894 28.385 154.033 27.983 155.198 27.5717C156.118 25.6561 156.169 22.8415 159.49 23.3668C159.615 22.1669 159.453 20.9494 159.918 20.0597C160.399 19.1372 161.49 18.5319 162.351 17.754C161.996 17.2745 161.486 16.822 161.291 16.2602C161.048 15.561 160.858 14.7254 161.012 14.0309C161.296 12.751 166.076 9.91642 167.421 10.0798C167.949 10.1432 168.472 10.2455 168.96 10.3242C170.227 7.82806 169.316 8.0349 173.451 7.73052C173.451 6.27912 173.395 4.75487 175.007 3.92281C176.663 3.0696 177.994 3.94984 179.383 4.77014C181.368 2.58071 183.092 4.43521 185.205 5.30017C185.353 4.46459 185.553 3.84995 185.556 3.23413C185.569 0.940109 186.37 0.0892506 188.662 0.192669C189.819 0.245554 190.969 0.454742 192.158 0.596945C192.78 -0.736927 193.255 -2.07785 194 -3.24602C194.518 -4.05809 195.356 -5.13694 196.142 -5.21803C198.32 -5.44485 200.626 -6.19934 202.722 -4.74442C203.14 -4.45531 203.652 -4.30489 204.219 -4.04752C204.329 -4.81963 204.355 -5.45072 204.517 -6.04421C204.988 -7.76825 206.366 -8.25362 207.717 -7.09603C208.415 -6.49784 208.983 -5.7034 209.465 -4.91012C210.229 -3.65264 210.871 -2.3223 211.43 -1.27518C212.862 -1.27518 214.055 -1.27518 215.713 -1.27518C217.155 -2.99687 218.838 -5.04645 220.569 -7.0549C221.432 -8.05618 222.259 -9.15971 223.322 -9.90245C225.29 -11.2775 227.616 -10.0764 227.676 -7.69304C227.696 -6.89624 227.289 -6.04539 226.923 -5.2956C226.63 -4.69859 226.101 -4.21675 225.589 -3.57273C227.071 -3.21428 227.981 -2.65488 227.773 -0.961391C227.655 0.00228691 228.712 0.605171 229.762 0.475897C230.07 0.43829 230.381 0.356026 230.672 0.244379C232.266 -0.365559 233.756 -0.26684 235.048 0.931883C235.643 1.48423 236.23 1.53477 236.967 1.25154C238.605 0.621626 239.851 1.24801 240.85 2.57601C241.446 3.36811 242.07 4.13788 242.665 4.89354C243.25 4.66555 243.613 4.52452 243.976 4.38232C248.453 2.6336 252.432 3.55262 255.949 6.6928C258.417 8.89633 259.984 11.6569 260.714 14.8852C260.917 15.7831 261.098 16.6869 261.278 17.533C265.614 17.7551 265.614 17.7551 266.791 21.7697C269.977 23.2963 270.081 23.7687 268.341 27.8068C268.653 29.1089 269.329 30.2688 269.047 31.1068C268.498 32.7427 269.37 33.5548 270.289 34.7793ZM239.829 120.67C245.113 117.853 250.617 115.505 254.436 110.604C255.869 108.764 257.973 107.798 260.308 107.443C262.165 107.161 264.015 106.75 265.882 106.634C267.506 106.535 268.341 105.901 268.937 104.349C273.204 93.2429 277.628 82.197 281.88 71.0853C283.781 66.12 285.376 61.0372 287.168 56.0284C287.591 54.845 287.373 53.9871 286.577 53.0422C284.457 50.5273 282.438 47.9288 280.363 45.3751C279.885 44.7863 279.349 44.2457 278.584 43.3996C278.398 44.5395 278.26 45.2905 278.156 46.0461C277.683 49.5377 277.168 53.0246 276.772 56.5244C276.558 58.4153 275.741 59.9255 274.48 61.2923C271.805 64.1868 268.799 66.6818 265.503 68.8254C251.482 77.9439 235.96 82.6659 219.456 84.4675C216.984 84.7378 214.491 84.8189 211.87 84.9964C211.931 86.1881 211.984 87.2387 212.05 88.5103C213.94 88.5843 215.732 88.5773 217.507 88.7465C219.292 88.9169 220.806 88.5009 222.377 87.5854C224.878 86.1281 227.562 84.9576 230.536 84.8366C232.614 84.7519 233.403 85.6416 233.219 87.6947C233.151 88.4574 233.043 89.2166 232.951 89.9958C234.05 90.3965 235.043 90.6527 235.936 91.1052C237.858 92.0806 238.325 93.8446 237.102 95.611C236.531 96.436 235.721 97.0953 235.028 97.8356C231.884 101.196 228.743 104.558 225.511 108.014C230.342 112.284 235.07 116.464 239.829 120.67ZM235.095 93.5426C233.006 93.1219 231.292 92.62 229.547 92.4567C224.168 91.9537 218.776 91.5917 213.391 91.1498C211.264 90.9759 209.187 90.963 207.231 92.0348C206.696 92.3286 206.047 92.4555 205.435 92.5589C202.834 92.9949 200.564 94.1819 198.308 95.4758C196.964 96.2468 195.532 96.9942 194.043 97.3538C192.115 97.8204 190.584 98.7558 189.271 100.158C188.093 101.417 186.933 102.69 185.764 103.957C184.393 105.444 182.751 106.395 180.72 106.726C179.336 106.952 177.871 107.147 176.641 107.757C174.839 108.651 173.061 109.729 171.552 111.047C169.414 112.914 167.107 113.883 164.274 113.654C163.279 113.573 162.271 113.641 160.907 113.641C161.12 115.11 161.155 116.348 161.491 117.497C162.633 121.4 163.824 125.291 165.117 129.147C165.762 131.07 166.657 132.909 167.46 134.776C168.264 136.645 169.634 137.947 171.381 138.994C175.677 141.568 179.909 144.251 184.17 146.882C184.97 147.376 185.766 147.88 186.603 148.304C188.352 149.191 188.823 149.226 190.011 147.653C192.224 144.724 194.261 141.661 196.345 138.635C198.12 136.056 199.746 133.367 201.634 130.876C211.31 118.11 222.579 106.772 233.681 95.2866C234.091 94.8624 234.43 94.3676 235.095 93.5426ZM317.527 22.0694C317.602 18.1535 316.261 15.6139 313.383 13.8581C310.937 12.3644 308.266 11.5523 305.494 10.9612C301.021 10.0069 298.632 10.9248 296.124 14.7912C295.19 16.2309 294.268 17.7269 293.658 19.3193C291.954 23.7687 290.413 28.2804 288.815 32.7709C288.157 34.6219 288.264 36.4141 289.036 38.2486C291.696 44.5677 291.978 50.9891 289.669 57.4857C289.434 58.1485 289.283 58.8419 289.041 59.5024C286.592 66.1859 284.243 72.9093 281.654 79.5375C274.653 97.4655 267.523 115.343 260.508 133.265C259.255 136.464 258.262 139.769 257.25 143.054C256.985 143.916 256.858 144.971 257.117 145.796C257.336 146.49 258.123 147.195 258.825 147.466C259.189 147.607 260.137 146.948 260.433 146.43C261.434 144.67 262.365 142.854 263.133 140.981C264.203 138.378 264.98 135.653 266.093 133.071C273.252 116.464 279.575 99.5409 285.47 82.4485C288.147 74.6839 290.995 66.978 293.849 59.2756C296.247 52.8013 300.787 48.1886 306.836 45.0449C309.328 43.7498 311.047 41.8389 312.239 39.3827C314.261 35.2165 315.901 30.9046 316.885 26.3706C317.232 24.7712 317.374 23.1259 317.527 22.0694ZM162.598 111.159C165.848 111.389 168.412 110.34 170.731 108.086C173.027 105.854 175.939 104.607 179.125 104.204C181.357 103.922 183.089 102.942 184.52 101.234C185.624 99.9158 186.742 98.5596 188.073 97.4948C189.39 96.4418 190.942 95.6521 192.466 94.8999C193.922 94.1807 195.555 93.7988 196.97 93.0161C199.448 91.6458 201.909 90.3284 204.754 89.8594C205.665 89.709 206.569 89.3506 207.406 88.9428C209.353 87.9932 209.595 87.1459 208.689 85.1985C208.164 84.0692 207.45 82.948 207.268 81.754C206.993 79.9477 205.911 79.1955 204.374 78.8335C203.312 78.5832 202.215 78.3388 201.135 78.3458C197.38 78.3693 193.618 78.3787 189.874 78.6232C181.361 79.1791 172.857 79.8936 164.347 80.5C160.833 80.7503 157.448 83.2206 156.504 86.5477C155.934 88.5514 155.066 90.326 153.697 91.8973C153.201 92.4661 152.69 93.1912 152.585 93.9034C152.226 96.3455 151.409 98.5925 150.216 100.734C149.51 102.001 149.539 103.224 150.399 104.479C151.014 105.375 151.569 106.365 151.891 107.394C152.324 108.782 153.266 109.49 154.546 109.745C157.218 110.275 159.913 110.694 162.598 111.159ZM281.543 101.908C282.855 101.434 283.632 101.136 284.42 100.874C287.459 99.8617 290.455 98.6724 293.554 97.8968C299.229 96.4759 304.451 94.0632 309.562 91.3038C310.86 90.6022 311.262 89.7654 311.213 88.3317C311.118 85.5405 310.096 83.0949 308.498 80.9489C304.294 75.3032 299.955 69.7597 295.663 64.1809C295.576 64.0681 295.401 64.0235 295.003 63.7943C290.555 76.3891 286.127 88.9298 281.543 101.908ZM238.897 123.855C233.632 118.715 228.649 114.276 223.392 109.816C219.554 116.298 216.751 122.863 214.087 129.746C216.784 128.989 219.14 128.219 221.548 127.679C224.753 126.961 228.011 126.478 231.223 125.789C233.646 125.27 236.034 124.585 238.897 123.855ZM168.394 48.3061C166.545 49.1311 164.92 49.8926 163.266 50.5837C161.133 51.4733 158.964 51.4051 156.875 50.4849C155.667 49.9526 154.441 49.3438 153.419 48.527C147.694 43.9543 142.796 38.6152 138.844 32.4277C138.623 32.081 138.353 31.7637 137.961 31.236C137.114 33.389 137.198 35.0825 138.564 36.7102C140.374 38.8667 141.971 41.2101 143.868 43.2809C147.246 46.9687 150.743 50.5531 154.268 54.1034C156.465 56.3152 159.093 56.8041 162.04 55.6547C165.244 54.4043 168.481 53.242 171.696 52.0198C172.246 51.8106 172.753 51.4898 173.652 51.0314C171.683 50.009 170.051 49.164 168.394 48.3061ZM215.081 119.281C209.28 124.557 197.037 141.245 196.134 145.078C197.955 145.078 199.759 144.964 201.541 145.108C203.761 145.286 204.946 144.334 205.767 142.313C208.765 134.933 211.892 127.604 214.96 120.252C215.042 120.053 215.019 119.811 215.081 119.281ZM278.51 110.187C281.799 110.521 283.009 110.349 286.169 108.605C292.155 105.304 298.396 102.655 304.956 100.718C306.963 100.126 308.872 99.2001 310.9 98.3974C310.9 96.8003 310.9 95.3454 310.9 93.8904C310.697 93.8775 310.519 93.8117 310.398 93.8669C309.904 94.0973 309.418 94.3511 308.943 94.6214C304.09 97.3902 298.939 99.347 293.54 100.825C289.484 101.936 285.595 103.647 281.621 105.06C280.577 105.431 279.914 106.081 279.586 107.137C279.288 108.098 278.92 109.037 278.51 110.187ZM257.586 25.5127C258.463 22.4008 258.648 19.6143 258.253 16.8197C257.79 13.5443 256.389 10.7038 253.827 8.53084C251.151 6.25915 248.152 5.66096 244.874 7.03009C242.043 8.21236 241.806 9.36289 243.814 11.7051C244.068 12.0013 244.322 12.2998 244.595 12.5783C248.478 16.5388 252.362 20.4993 256.256 24.4503C256.571 24.7677 256.959 25.0144 257.586 25.5127ZM283.234 -2.70189C282.313 -3.2942 281.826 -3.56098 281.393 -3.89474C277.242 -7.08663 273.105 -10.2973 268.953 -13.4869C267.13 -14.8866 265.092 -15.8855 262.842 -16.3379C261.871 -16.533 260.743 -16.7046 259.851 -16.4002C257.079 -15.4554 254.385 -14.2778 251.486 -13.1214C252.8 -11.9415 253.911 -11.6853 255.311 -12.3293C256.291 -12.7806 257.407 -12.938 258.461 -13.2283C261.4 -14.038 263.941 -13.4175 266.311 -11.4314C270.382 -8.01975 274.576 -4.755 278.729 -1.43971C279.14 -1.11065 279.606 -0.852097 280.14 -0.499533C281.005 -1.11417 281.801 -1.68063 283.234 -2.70189ZM221.504 -3.06973C220.036 -1.70296 218.677 -0.42432 217.302 0.835514C216.292 1.76159 215.251 2.5337 213.728 1.89909C213.376 1.75219 212.847 1.96725 212.416 2.07654C210.602 2.5384 209.878 2.23403 209.029 0.533485C208.51 -0.504232 208.054 -1.57251 207.547 -2.67839C206.847 -1.76877 206.259 -1.00253 205.523 -0.0447235C208.409 1.21394 209.968 3.30112 208.62 7.00541C210.918 5.64215 212.625 6.25679 214.297 7.29569C215.391 7.97496 216.521 8.599 217.715 9.29356C218.32 6.09344 219.315 5.62218 221.958 6.97133C223.061 7.53426 224.196 8.0349 225.202 8.50969C226.203 7.77283 227.01 7.18052 227.844 6.56588C227.588 6.42133 227.396 6.27207 227.18 6.19803C225.922 5.7679 224.651 5.37538 223.398 4.93115C222.145 4.48692 220.849 4.11202 219.681 3.49856C218.018 2.6242 217.911 1.1493 219.324 -0.105833C219.785 -0.515984 220.331 -0.866201 220.894 -1.12122C221.843 -1.549 221.882 -2.20477 221.504 -3.06973ZM266.668 109.354C265.347 109.52 264.199 109.716 263.044 109.798C259.837 110.027 257.227 111.272 255.168 113.834C253.138 116.359 250.547 118.254 247.638 119.71C246.108 120.476 244.621 121.332 242.982 122.219C243.731 122.895 244.344 123.448 244.945 123.989C248.059 122.804 250.866 121.322 253.34 119.21C255.988 116.949 259.008 115.352 262.354 114.339C265.546 113.373 265.534 113.327 266.603 110.146C266.648 110.006 266.63 109.843 266.668 109.354ZM151.421 34.2176C151.288 34.7076 151.17 34.9121 151.192 35.1013C151.476 37.7479 151.751 40.3957 152.101 43.0341C152.167 43.5324 152.428 44.154 152.809 44.4337C154.502 45.6783 156.182 46.9945 158.037 47.957C160.625 49.2991 162.9 48.0722 165.374 46.689C159.936 43.1857 155.474 39.0877 151.421 34.2176ZM241.675 125.158C235.616 128.278 229.282 128.939 223.09 130.158C219.699 130.825 216.433 131.832 213.43 133.612C212.594 134.108 211.875 134.567 211.953 135.873C212.491 135.689 212.921 135.578 213.322 135.403C216.135 134.172 219.05 133.352 222.124 133.115C223.369 133.018 224.604 132.791 225.847 132.674C230.75 132.208 235.104 129.912 239.731 128.53C241.126 128.114 241.549 126.983 241.675 125.158ZM277.089 0.729744C276.451 0.129208 276.141 -0.215128 275.78 -0.494831C271.782 -3.60446 267.758 -6.68236 263.779 -9.81549C261.821 -11.3562 259.894 -10.7956 257.47 -9.91068C263.45 -6.56953 268.563 -2.70542 272.811 2.21639C274.218 1.7275 275.453 1.29855 277.089 0.729744ZM206.377 4.11085C206.233 3.98627 206.087 3.8617 205.943 3.73713C203.084 4.00273 200.23 4.42581 197.368 4.48809C194.496 4.55038 191.771 3.00497 188.619 3.23884C189.098 4.47634 189.714 5.00401 190.792 5.08628C194.14 5.34248 194.139 5.36245 194.608 8.713C194.834 8.69537 195.088 8.7365 195.288 8.65071C198.634 7.2146 201.716 5.00636 205.625 5.19675C205.858 5.20732 206.126 4.48927 206.377 4.11085ZM148.736 29.7329C148.186 28.459 147.731 27.4048 147.228 26.2402C144.785 26.8666 142.421 27.2227 140.297 28.7187C140.88 29.9868 141.391 31.0974 141.931 32.2714C144.238 31.4112 146.343 30.6261 148.736 29.7329ZM282.989 1.25272C280.065 2.38445 277.362 3.43157 274.461 4.55508C275.118 5.74792 275.698 6.80092 276.409 8.09131C279 6.06406 282.794 5.63393 282.989 1.25272ZM148.291 40.0384C148.484 39.9644 148.675 39.8904 148.868 39.8175C148.615 37.6175 148.363 35.4187 148.07 32.8684C146.487 33.4361 145.183 33.9026 143.556 34.4855C145.318 36.5516 146.804 38.2956 148.291 40.0384ZM196.771 -2.98159C196.131 -1.54665 195.555 -0.257437 194.939 1.12109C197.212 1.99428 199.209 1.88733 201.41 1.32323C199.856 -0.118765 198.513 -1.36449 196.771 -2.98159ZM226.217 88.6537C226.25 88.8429 226.284 89.0321 226.317 89.2213C227.507 89.3459 228.695 89.4693 230.065 89.6126C230.065 88.8323 230.065 88.287 230.065 87.4867C228.642 87.918 227.43 88.2858 226.217 88.6537Z" fill="#BC0000"/>
<path d="M181.304 20.2054C182.453 20.8353 183.563 21.3724 184.599 22.0234C188.875 24.7112 190.557 28.5365 189.61 33.4642C188.965 36.8229 187.312 39.7786 185.664 42.7108C184.926 44.0247 183.377 44.0858 182.284 43.0163C182.062 42.8001 181.894 42.5275 181.706 42.2771C178.17 37.588 174.627 32.9036 171.108 28.2015C170.547 27.4529 170.009 26.6632 169.609 25.8229C168.495 23.4842 169.224 21.4899 171.571 20.3887C172.344 20.0267 173.187 19.814 174.075 19.5061C175.415 15.2389 178.359 12.3984 182.48 10.7178C184.352 9.95394 184.953 10.2795 185.689 12.1469C186.364 13.8615 186.053 15.4211 184.873 16.7385C183.795 17.9419 182.557 19.0008 181.304 20.2054ZM183.413 40.1794C183.625 40.1817 183.836 40.1841 184.048 40.1864C184.929 38.0311 185.981 35.9274 186.646 33.7074C187.41 31.1549 187.4 28.5012 185.446 26.3976C182.357 23.0694 178.49 21.6932 173.978 22.5158C171.754 22.9213 171.534 23.7146 172.82 25.4974C173.661 25.4974 174.418 25.3846 175.125 25.5268C175.938 25.6913 176.705 26.0826 177.508 26.3823C177.926 25.6901 178.172 25.1013 178.576 24.6571C179.184 23.9896 180.16 24.187 180.506 24.9673C181.203 26.5421 179.581 29.0924 177.865 29.0454C177.027 29.0218 176.193 28.8197 175.018 28.6493C177.931 32.6509 180.672 36.4151 183.413 40.1794ZM183.627 13.5748C180.56 14.5009 178.775 16.0921 178.112 18.4214C180.407 17.3414 182.386 16.2566 183.627 13.5748Z" fill="#BC0000"/>
<path d="M223.753 27.2087C220.395 30.8213 217.099 34.3728 213.794 37.9173C212.674 39.1195 211.556 40.3253 210.397 41.49C209.646 42.2456 208.724 42.523 207.932 41.6275C204.584 37.8433 202.427 33.6724 203.629 28.3734C205.043 22.1424 214.574 14.3401 223.127 18.1019C224.625 18.7612 226.089 19.5005 227.601 20.121C228.301 20.4077 229.076 20.5288 229.827 20.6663C232.358 21.1305 234.103 22.529 234.922 24.9781C235.985 28.1606 234.058 30.7226 230.722 30.5193C228.481 30.383 226.446 29.632 224.77 28.0643C224.492 27.8069 224.189 27.5754 223.753 27.2087ZM225.264 21.8215C222.248 20.4947 219.566 19.3089 216.473 20.0834C212.666 21.0365 209.632 23.1213 207.522 26.4201C205.047 30.2878 205.827 35.313 209.317 38.519C214.579 33.0096 219.839 27.5013 225.264 21.8215ZM230.83 27.9855C231.817 27.7223 232.5 27.4108 232.432 26.4002C232.341 25.0381 231.554 24.1003 230.351 23.5397C229.102 22.9568 227.889 23.2212 226.957 24.1943C226.182 25.004 226.117 25.7315 227.073 26.3097C228.237 27.0136 229.57 27.4391 230.83 27.9855Z" fill="#BC0000"/>
<path d="M249.457 27.9172C249.384 28.1699 249.29 28.7986 249.029 29.3475C247.789 31.9588 245.77 33.711 242.97 34.4397C240.452 35.0943 238.845 33.6276 239.096 31.0257C239.392 27.9595 243.038 24.5432 246.099 24.4597C248.068 24.4068 249.439 25.6702 249.457 27.9172ZM246.514 27.1933C243.534 27.7245 242.4 28.8809 242.112 31.5146C244.682 31.0903 246.171 29.6847 246.514 27.1933Z" fill="#BC0000"/>
<path d="M163.826 33.49C163.952 32.4816 163.983 31.4521 164.222 30.4708C164.747 28.3131 166.617 27.7067 168.33 29.0711C170.749 30.9973 171.903 35.2352 170.744 38.0522C170.282 39.1757 169.602 40.1323 168.281 40.3262C166.953 40.5213 166.059 39.8115 165.315 38.816C164.129 37.2307 163.749 35.4326 163.826 33.49ZM167.809 37.246C168.855 35.026 168.629 33.7273 166.764 31.6989C166.742 33.725 166.193 35.6394 167.809 37.246Z" fill="#BC0000"/>
<path d="M220.563 48.6471C218.393 48.68 216.37 47.5506 215.967 46.0804C215.556 44.5785 216.683 42.5982 218.715 41.6404C220.671 40.7179 222.754 40.3853 224.834 41.2902C227.448 42.4266 227.777 45.0673 225.564 46.869C224.377 47.835 222.16 48.6236 220.563 48.6471ZM218.836 45.2577C221.412 46.2296 223.338 45.6385 223.895 43.8146C221.937 43.1 220.294 43.4397 218.836 45.2577Z" fill="#BC0000"/>
<path d="M197.62 19.9596C197.177 21.2207 196.922 22.6438 196.219 23.7909C195.067 25.67 193.019 25.7535 191.448 24.2151C189.578 22.3853 188.984 18.6998 190.189 16.3752C190.846 15.1084 191.819 14.2927 193.309 14.2634C194.788 14.234 195.923 14.9109 196.499 16.2283C196.988 17.3471 197.218 18.5799 197.62 19.9596ZM193.771 22.3183C194.976 19.9291 194.857 18.5447 193.406 17.0169C191.617 18.5306 191.685 20.0642 193.771 22.3183Z" fill="#BC0000"/>
<path d="M253.827 41.9141C251.858 41.9235 250.652 40.5509 250.894 38.573C251.215 35.944 254.866 32.5241 257.493 32.3937C259.373 32.2997 260.605 33.6852 260.457 35.7278C260.235 38.7916 256.905 41.8988 253.827 41.9141ZM253.712 38.8691C256.386 38.4543 257.378 37.4377 257.484 35.1625C255.523 35.6008 254.45 36.8771 253.712 38.8691Z" fill="#BC0000"/>
<path d="M232.844 16.3836C232.866 14.2036 233.581 12.9332 234.93 12.4419C236.566 11.8461 237.851 12.5489 238.907 13.7041C240.402 15.3412 241.04 17.3332 240.893 19.5332C240.806 20.8401 240.273 21.9553 238.998 22.5559C237.661 23.1858 236.528 22.6217 235.537 21.8131C233.735 20.3382 232.977 18.3274 232.844 16.3836ZM238.008 19.7436C238.176 17.6317 237.822 16.0217 236.034 14.9769C235.039 16.9912 235.557 18.331 238.008 19.7436Z" fill="#BC0000"/>
<path d="M241.062 41.907C241.443 39.5107 242.053 36.9522 244.535 35.361C246.591 34.0436 248.397 34.8368 248.842 37.2225C249.309 39.7199 247.608 43.6134 245.457 45.0084C244.467 45.65 243.421 45.8651 242.382 45.2434C241.243 44.5629 241.07 43.3924 241.062 41.907ZM243.81 42.5662C245.572 41.0961 246.228 39.6881 246.048 37.7067C244.069 38.7433 244.268 40.5261 243.81 42.5662Z" fill="#BC0000"/>
<path d="M197.148 43.2173C196.934 44.7509 196.602 46.0871 195.529 47.146C194.583 48.0803 193.386 48.2848 192.313 47.736C190.836 46.9803 189.542 44.4512 189.814 42.8083C189.979 41.8093 190.094 40.7904 190.393 39.8303C190.777 38.5939 191.468 37.5457 192.937 37.4093C194.384 37.2754 195.389 38.0804 195.925 39.2568C196.494 40.5037 196.753 41.8904 197.148 43.2173ZM193.353 40.3767C192.166 42.3793 192.264 43.5158 193.781 44.8226C194.343 43.2361 194.352 41.7988 193.353 40.3767Z" fill="#BC0000"/>
<path d="M219.355 95.2078C221.481 95.1831 223.534 97.0517 223.582 99.0566C223.64 101.398 221.675 103.675 219.573 103.706C217.494 103.736 215.603 101.841 215.552 99.6748C215.496 97.2703 217.23 95.2324 219.355 95.2078ZM221.304 99.2517C220.476 98.7628 219.943 98.1999 219.382 98.1728C218.525 98.1317 218.315 98.9473 218.363 99.6736C218.416 100.459 218.901 101.098 219.701 100.83C220.241 100.649 220.611 99.965 221.304 99.2517Z" fill="#BC0000"/>
<path d="M175.705 126.402C175.682 128.761 173.688 130.69 171.343 130.617C169.408 130.557 167.783 128.763 167.805 126.709C167.828 124.541 169.854 122.647 172.117 122.68C174.296 122.711 175.725 124.194 175.705 126.402ZM171.696 128.355C172.301 127.463 172.76 126.908 173.039 126.275C173.099 126.138 172.521 125.481 172.221 125.471C171.375 125.441 170.677 125.916 170.676 126.818C170.676 127.215 171.18 127.612 171.696 128.355Z" fill="#BC0000"/>
<path d="M196.656 99.9899C198.881 99.9582 200.109 101.136 200.178 103.366C200.251 105.708 198.575 107.585 196.44 107.549C194.418 107.515 192.55 105.62 192.574 103.628C192.6 101.642 194.417 100.022 196.656 99.9899ZM197.963 103.671C197.22 103.292 196.789 102.904 196.366 102.914C196.052 102.921 195.749 103.441 195.441 103.734C195.79 104.082 196.119 104.674 196.495 104.707C196.859 104.738 197.272 104.19 197.963 103.671Z" fill="#BC0000"/>
<path d="M186.557 115.811C184.69 115.794 183.139 114.082 183.164 112.066C183.191 110.003 184.888 108.27 186.839 108.315C188.964 108.363 190.755 110.004 190.714 111.865C190.669 113.946 188.684 115.829 186.557 115.811ZM188.017 111.888C187.433 111.165 186.778 110.79 186.125 111.666C185.945 111.907 186.097 112.761 186.323 112.874C187.246 113.333 187.735 112.759 188.017 111.888Z" fill="#BC0000"/>
<path d="M192.539 127.742C190.257 127.737 188.729 126.32 188.719 124.204C188.708 122.114 190.001 120.678 191.927 120.639C194.38 120.59 195.978 122.085 195.998 124.445C196.015 126.401 194.602 127.748 192.539 127.742ZM193.695 124.641C193.163 124.12 192.911 123.71 192.554 123.577C192.306 123.485 191.917 123.773 191.59 123.89C191.779 124.25 191.888 124.784 192.181 124.918C192.48 125.056 192.958 124.797 193.695 124.641Z" fill="#BC0000"/>
<path d="M314.385 24.1295C314.108 25.8383 314.04 27.3531 313.599 28.7516C312.639 31.799 311.515 34.7969 310.394 37.7902C310.157 38.426 309.736 39.0712 309.222 39.4955C308.892 39.7681 308.113 39.8504 307.76 39.64C307.413 39.4332 307.185 38.7433 307.203 38.2768C307.223 37.7691 307.621 37.2861 307.795 36.7725C308.942 33.3796 310.241 30.0244 311.135 26.5646C311.545 24.9745 311.356 23.14 311.073 21.4782C310.468 17.9102 308.423 16.0334 304.872 15.4129C304.411 15.333 303.861 15.42 303.501 15.1931C303.1 14.9405 302.621 14.4104 302.633 14.0156C302.645 13.6336 303.176 13.1436 303.596 12.9355C303.973 12.7475 304.511 12.8404 304.973 12.8744C309.006 13.1694 312.24 15.6479 313.443 19.5309C313.925 21.081 314.107 22.7228 314.385 24.1295Z" fill="#BC0000"/>
<path d="M308.549 30.1655C308.127 31.6463 307.848 32.8649 307.423 34.0296C307.138 34.8158 306.506 35.3987 305.595 35.0156C304.658 34.6207 304.825 33.7969 305.052 33.0013C305.33 32.027 305.616 31.0516 305.822 30.0609C306.012 29.143 306.322 28.2087 307.41 28.5601C307.931 28.7282 308.207 29.6519 308.549 30.1655Z" fill="#BC0000"/>
<path d="M166.715 101.624C166.667 103.753 164.915 105.392 162.751 105.335C160.507 105.275 159.077 103.836 159.102 101.662C159.127 99.5278 160.952 97.7274 162.978 97.8378C164.918 97.9436 166.756 99.8075 166.715 101.624ZM164.08 101.495C163.361 100.836 162.707 100.32 162.062 101.251C161.893 101.495 162.049 102.28 162.298 102.441C163.16 102.998 163.736 102.568 164.08 101.495Z" fill="#BC0000"/>
<path d="M171.022 83.3135C172.948 83.31 174.631 85.0023 174.597 86.9073C174.559 88.9827 172.771 90.6292 170.56 90.6233C168.629 90.6175 167.181 89.1555 167.172 87.2011C167.161 85.0493 168.877 83.3182 171.022 83.3135ZM172.204 86.9096C171.682 86.5206 171.407 86.1446 171.136 86.1469C170.473 86.1528 169.895 86.483 170.047 87.2704C170.094 87.5114 170.627 87.8839 170.824 87.824C171.258 87.6912 171.618 87.321 172.204 86.9096Z" fill="#BC0000"/>
<path d="M225.1 116.06C227.207 116.07 229.186 117.9 229.166 119.817C229.146 121.667 227.281 123.318 225.179 123.346C223.067 123.374 221.42 121.735 221.478 119.659C221.53 117.753 223.244 116.05 225.1 116.06ZM226.542 119.864C225.912 119.089 225.372 118.553 224.554 119.237C224.358 119.401 224.273 120.038 224.422 120.209C225.092 120.978 225.756 120.678 226.542 119.864Z" fill="#BC0000"/>
<path d="M253.082 18.022C253.601 16.9537 254.003 15.9536 254.571 15.0592C254.751 14.776 255.512 14.5457 255.763 14.6973C256.147 14.9288 256.642 15.6386 256.529 15.9242C255.858 17.6165 256.323 19.0326 257.167 20.5075C257.361 20.846 257.042 21.8062 256.677 22.0389C256.335 22.2575 255.345 22.0776 255.119 21.7474C254.344 20.6157 253.78 19.3406 253.082 18.022Z" fill="#BC0000"/>
<path d="M248.957 13.884C248.617 13.7629 247.697 13.5549 246.917 13.1048C246.563 12.9003 246.198 12.0589 246.347 11.7886C246.587 11.3561 247.31 10.8414 247.723 10.9213C248.985 11.1645 250.023 11.4149 251.015 10.1445C251.586 9.41347 252.657 10.0657 252.763 11.1117C252.936 12.7863 251.611 13.931 248.957 13.884Z" fill="#BC0000"/>
<path d="M183.223 31.5404C183.527 32.2408 183.904 32.7955 183.982 33.389C184.045 33.8521 183.88 34.5654 183.553 34.7981C183.228 35.0296 182.463 34.9779 182.084 34.7405C180.654 33.8427 180.199 31.0151 181.237 29.6977C181.767 29.0254 182.405 28.4331 183.027 27.8396C183.592 27.299 184.27 27.0711 184.897 27.688C185.518 28.3003 185.277 28.9878 184.813 29.5907C184.297 30.2629 183.744 30.9058 183.223 31.5404Z" fill="#BC0000"/>
<path d="M217.179 25.2377C218.23 24.2058 219.046 23.3773 219.892 22.5828C220.436 22.0716 221.062 21.732 221.74 22.3549C222.387 22.9483 222.254 23.6347 221.759 24.2246C220.911 25.2365 220.062 26.2613 219.107 27.1674C217.949 28.2639 217.07 28.3461 215.753 27.4471C214.869 26.8442 214.037 26.0944 213.392 25.2494C213.13 24.9051 213.221 23.9273 213.531 23.6182C213.822 23.3291 214.717 23.3479 215.16 23.5818C215.894 23.9696 216.477 24.6395 217.179 25.2377Z" fill="#BC0000"/>
<path d="M211.159 29.0807C210.434 28.4144 209.851 28.0665 209.563 27.553C209.344 27.164 209.345 26.4847 209.549 26.0863C209.687 25.8148 210.464 25.5727 210.742 25.7208C211.761 26.2637 212.778 26.8819 213.61 27.6681C213.943 27.9819 214.06 28.9808 213.811 29.3675C212.933 30.7272 211.92 32.0176 210.823 33.2081C210.254 33.8251 209.365 33.9062 208.768 33.1129C208.247 32.4195 208.612 31.7943 209.145 31.242C209.783 30.5791 210.401 29.8975 211.159 29.0807Z" fill="#BC0000"/>
</g>
<g opacity="0.2">
<path d="M459.201 131.318C459.274 136.111 458.148 140.039 455.651 143.531C452.864 147.425 448.724 148.402 444.486 146.194C442.153 144.978 440.199 143.289 438.715 141.128C435.739 136.798 433.862 132.021 433.325 126.778C432.907 122.694 433.665 118.728 435.714 115.221C438.596 110.29 438.678 105.163 437.784 99.7702C436.68 93.1138 434.691 86.6912 432.971 80.1923C430.091 69.3039 427.344 58.3802 424.608 47.4542C424.252 46.031 424.223 44.5103 424.181 43.0307C424.144 41.7168 424.57 40.5063 425.9 39.9493C427.22 39.3969 428.494 39.8647 429.321 40.8366C430.574 42.3091 431.795 43.8863 432.642 45.6091C434.933 50.2642 436.439 55.2259 437.43 60.2993C438.973 68.2062 440.232 76.1683 441.728 84.0846C442.715 89.3096 443.777 94.5264 445.04 99.6903C446.561 105.915 449.261 111.593 453.359 116.61C456.954 121.008 459.422 125.927 459.201 131.318ZM427.181 42.6864C426.689 44.4269 427.05 45.8747 427.396 47.2627C429.723 56.6009 432.093 65.9286 434.477 75.2528C436.298 82.3758 438.249 89.4659 439.978 96.6112C441.697 103.717 441.862 110.676 437.848 117.287C436.247 119.925 435.816 123.04 436.089 126.153C436.538 131.265 438.349 135.888 441.381 140.011C442.649 141.735 444.298 143.079 446.27 143.955C448.962 145.15 451.36 144.547 453.151 142.211C454.956 139.858 455.94 137.168 456.306 134.23C457.066 128.152 455.01 122.967 451.213 118.382C446.724 112.962 443.85 106.753 442.225 99.9747C440.966 94.7274 439.903 89.4295 438.9 84.1269C437.418 76.2847 436.163 68.3989 434.625 60.5696C433.658 55.6502 432.13 50.867 429.927 46.3354C429.293 45.0321 428.622 43.7241 427.181 42.6864Z" fill="#BC0000"/>
<path d="M426.526 124.015C426.312 125.403 426.125 128.168 425.406 130.785C424.858 132.776 423.849 134.732 422.662 136.436C420.351 139.753 416.426 140.543 412.887 138.571C411.814 137.973 410.77 137.172 409.984 136.237C406.086 131.597 403.412 126.364 402.493 120.298C402.133 117.921 402.319 115.613 402.919 113.321C403.237 112.111 403.583 110.903 404.012 109.73C406.638 102.547 406.734 95.1772 405.719 87.7134C404.471 78.535 401.852 69.6656 399.612 60.7128C398.205 55.0894 396.741 49.4754 396.345 43.6757C396.181 41.277 396.382 38.8432 396.555 36.4363C396.634 35.3199 397.143 34.2763 398.443 34.0424C399.713 33.8132 400.585 34.5419 401.13 35.5373C401.99 37.1109 402.827 38.7186 403.457 40.3944C405.752 46.4985 407.113 52.8635 408.257 59.2532C409.995 68.9569 411.496 78.703 413.102 88.4315C413.56 91.2073 413.902 94.0102 414.528 96.7473C415.152 99.4703 416.652 101.776 418.666 103.727C420.646 105.645 422.379 107.738 423.651 110.213C425.665 114.131 426.541 118.293 426.526 124.015ZM399.605 38.3178C399.437 38.3719 399.269 38.4271 399.102 38.4812C399.102 40.2628 398.877 42.0785 399.147 43.819C399.83 48.2202 400.598 52.6179 401.581 56.9603C403.669 66.1905 406.101 75.3478 408.036 84.6085C409.403 91.1509 409.631 97.8414 408.318 104.453C407.727 107.434 406.72 110.335 405.83 113.25C405.035 115.856 404.891 118.455 405.454 121.128C406.496 126.067 408.753 130.395 411.944 134.253C412.53 134.962 413.286 135.589 414.082 136.054C416.418 137.42 419.026 136.957 420.477 134.701C421.517 133.084 422.472 131.269 422.884 129.415C424.897 120.372 423.541 112.164 416.504 105.46C413.82 102.903 412.315 99.6372 411.614 96.014C411.242 94.0948 410.93 92.164 410.611 90.2343C409.059 80.8161 407.692 71.3626 405.906 61.9879C404.663 55.4678 402.885 49.0476 401.261 42.6039C400.89 41.1301 400.167 39.7445 399.605 38.3178Z" fill="#BC0000"/>
<path d="M381.602 141.575C381.606 144.978 380.787 148.115 378.793 150.878C375.286 155.735 369.74 156.339 365.431 152.205C361.333 148.271 359.738 143.298 360.192 137.703C360.376 135.451 360.907 133.225 361.304 130.992C362.311 125.317 361.499 119.79 360.154 114.262C357.467 103.228 354.034 92.4285 350.317 81.7058C347.754 74.3125 345.453 66.8311 344.216 59.0746C344.045 58.0005 343.952 56.8922 344.014 55.8099C344.082 54.5994 344.56 53.4794 345.772 52.9647C347.076 52.4123 348.361 52.7602 349.188 53.7955C350.492 55.4303 351.899 57.105 352.693 59.0006C354.232 62.6696 355.574 66.4491 356.643 70.2815C360.531 84.2196 364.242 98.207 367.349 112.344C368.412 117.177 370.722 121.132 374.346 124.532C379.21 129.099 381.211 135.034 381.602 141.575ZM347.264 55.8686C347.084 55.9286 346.904 55.9897 346.724 56.0496C346.822 57.0438 346.862 58.0475 347.026 59.03C348.217 66.1565 350.292 73.0538 352.645 79.8607C356.557 91.1828 360.237 102.566 363.016 114.229C364.316 119.682 365.084 125.151 364.14 130.745C363.763 132.983 363.237 135.204 363.009 137.457C362.492 142.575 363.857 147.123 367.817 150.572C370.587 152.984 373.698 152.609 376.081 149.806C377.819 147.762 378.667 145.331 378.727 142.676C378.871 136.339 376.811 130.803 372.264 126.355C368.346 122.521 365.701 118.099 364.543 112.688C361.612 98.9874 357.947 85.4653 354.219 71.9656C353.076 67.83 351.503 63.8072 350.01 59.7762C349.452 58.2684 348.609 56.8476 347.264 55.8686Z" fill="#BC0000"/>
<path d="M403.739 139.624C403.502 141.406 403.472 143.247 402.971 144.95C402.519 146.486 401.768 148.045 400.767 149.285C398.481 152.118 395.183 152.474 392.185 150.417C388.869 148.142 387.173 144.85 386.73 140.956C386.511 139.028 386.503 137.019 386.787 135.104C387.678 129.095 386.924 123.256 385.528 117.416C382.976 106.743 379.481 96.3586 376.134 85.925C374.174 79.8127 372.251 73.6734 371.453 67.2743C371.153 64.8757 371.119 62.4348 371.112 60.0126C371.11 59.1124 371.373 58.1276 371.793 57.3273C372.558 55.8688 374.214 55.6009 375.314 56.829C376.178 57.7938 376.92 58.9902 377.336 60.2124C379.252 65.8406 381.276 71.4487 382.81 77.1849C385.56 87.4646 387.973 97.8347 390.559 108.16C391.261 110.969 392.005 113.771 392.857 116.536C393.693 119.248 394.934 121.772 396.904 123.883C397.544 124.57 398.119 125.317 398.722 126.039C402.38 130.418 403.608 133.833 403.739 139.624ZM374.472 60.4216C374.216 60.4534 373.96 60.4851 373.705 60.5156C373.888 62.8226 373.95 65.146 374.28 67.4318C375.172 73.6475 377.035 79.6282 378.957 85.5819C382.344 96.073 385.835 106.529 388.361 117.277C389.731 123.111 390.454 128.956 389.61 134.956C389.331 136.946 389.325 139.028 389.566 141.024C389.926 144.005 391.328 146.527 393.917 148.221C395.523 149.272 397.125 149.201 398.356 147.75C399.231 146.718 400.023 145.403 400.285 144.099C401.515 137.988 400.836 132.276 396.311 127.478C393.711 124.72 391.608 121.608 390.528 117.925C389.386 114.027 388.283 110.116 387.261 106.185C386.356 102.706 385.68 99.165 384.735 95.6981C382.005 85.6677 379.213 75.6536 376.389 65.649C375.888 63.8674 375.119 62.1609 374.472 60.4216Z" fill="#BC0000"/>
<path d="M400.91 164.227C400.913 165.122 400.178 165.743 399.167 165.701C398.163 165.659 397.177 164.872 397.13 164.076C397.084 163.294 398.046 162.634 399.225 162.637C400.158 162.64 400.908 163.347 400.91 164.227Z" fill="#BC0000"/>
<path d="M399.727 156.746C399.132 157.41 398.794 158.096 398.27 158.301C397.462 158.616 397.035 157.97 396.873 157.205C396.856 157.13 396.83 157.057 396.81 156.983C396.614 156.257 396.169 155.466 396.938 154.867C397.232 154.638 397.958 154.516 398.161 154.702C398.731 155.227 399.132 155.937 399.727 156.746Z" fill="#BC0000"/>
<path d="M447.412 176.69C447.177 176.455 446.534 176.102 446.389 175.601C446.153 174.796 447.339 173.795 448.349 173.771C449.22 173.75 450.038 174.533 449.941 175.378C449.793 176.68 448.714 176.518 447.412 176.69Z" fill="#BC0000"/>
<path d="M366.604 164.043C368.116 164.136 369.468 165.271 369.169 166.026C368.994 166.471 368.336 166.965 367.861 167.004C366.758 167.091 365.41 165.855 365.673 165.086C365.838 164.607 366.395 164.265 366.604 164.043Z" fill="#BC0000"/>
<path d="M423.257 146.467C422.404 146.51 421.655 146.343 421.561 145.322C421.488 144.536 422.524 143.79 423.597 143.78C424.45 143.771 425.196 144.419 425.135 145.193C425.042 146.362 424.143 146.425 423.257 146.467Z" fill="#BC0000"/>
<path d="M373.47 159.611C374.877 159.671 375.7 160.515 375.6 161.453C375.519 162.216 375.156 162.795 374.31 162.866C373.542 162.932 372.444 161.623 372.644 160.709C372.749 160.231 373.281 159.848 373.47 159.611Z" fill="#BC0000"/>
<path d="M417.824 158.304C419.29 158.305 420.385 159.226 420.283 160.069C420.195 160.805 419.712 161.109 418.998 161.097C418.028 161.079 416.829 160.299 416.962 159.605C417.066 159.063 417.611 158.606 417.824 158.304Z" fill="#BC0000"/>
<path d="M393.174 160.53C393.319 160.83 393.723 161.301 393.744 161.789C393.784 162.732 392.809 163.808 392.095 163.724C391.272 163.627 390.904 163.067 390.972 162.256C391.054 161.282 391.953 160.429 393.174 160.53Z" fill="#BC0000"/>
<path d="M417.082 147.553C416.501 146.551 416.001 146.042 415.928 145.478C415.828 144.695 416.398 144.165 417.215 144.159C418.086 144.155 418.543 144.77 418.381 145.534C418.261 146.099 417.735 146.578 417.082 147.553Z" fill="#BC0000"/>
<path d="M444.088 163.3C445.355 163.252 446.027 163.864 446.005 164.693C445.984 165.451 445.54 165.821 444.813 165.841C444.012 165.862 443.115 165.109 443.286 164.429C443.409 163.936 443.91 163.537 444.088 163.3Z" fill="#BC0000"/>
<path d="M421.945 153.347C420.972 153.872 420.416 154.404 419.876 154.386C419.493 154.373 418.854 153.639 418.826 153.195C418.775 152.393 419.479 151.918 420.25 152.093C420.737 152.204 421.13 152.721 421.945 153.347Z" fill="#BC0000"/>
<path d="M446.031 154.677C445.11 155.346 444.593 155.908 443.969 156.082C443.723 156.151 442.952 155.379 442.918 154.951C442.851 154.112 443.465 153.463 444.349 153.554C444.815 153.602 445.232 154.12 446.031 154.677Z" fill="#BC0000"/>
<path d="M455.513 154.654C454.959 153.936 454.456 153.551 454.348 153.077C454.186 152.372 454.735 151.937 455.413 151.884C456.204 151.822 456.836 152.218 456.696 153.058C456.619 153.528 456.079 153.923 455.513 154.654Z" fill="#BC0000"/>
<path d="M415.403 151.204C414.726 151.66 414.307 152.165 413.943 152.127C413.555 152.087 412.991 151.583 412.911 151.197C412.761 150.477 413.3 149.983 414.019 150.125C414.433 150.207 414.768 150.688 415.403 151.204Z" fill="#BC0000"/>
<path d="M449.857 160.108C449.312 160.463 448.94 160.894 448.639 160.85C448.336 160.805 447.894 160.283 447.901 159.979C447.907 159.709 448.448 159.238 448.746 159.243C449.063 159.248 449.373 159.706 449.857 160.108Z" fill="#BC0000"/>
<path d="M450.912 128.356C450.797 126.258 449.885 124.464 448.896 122.696C448.591 122.152 448.155 121.628 448.046 121.045C447.965 120.613 448.179 119.889 448.508 119.679C448.846 119.464 449.523 119.612 449.972 119.796C450.282 119.923 450.475 120.368 450.693 120.691C453.468 124.813 454.476 129.38 454.023 134.284C453.711 137.67 451.696 140.029 449.044 141.85C447.615 142.83 445.72 142.932 444.496 141.177C443.292 139.451 441.821 137.906 440.689 136.14C439.193 133.808 439.548 132.714 441.844 131.194C442.358 130.855 442.734 130.296 443.26 129.987C443.909 129.606 444.626 129.261 445.356 129.116C446.257 128.938 447.21 129.034 448.128 128.915C449.04 128.797 449.938 128.557 450.912 128.356ZM451.278 131.248C449.11 131.504 447.139 131.717 445.176 131.992C444.923 132.027 444.719 132.394 444.49 132.604C443.934 133.112 443.376 133.618 442.634 134.292C444.114 136.174 445.532 137.978 446.993 139.836C450.16 137.788 451.699 135.244 451.278 131.248Z" fill="#BC0000"/>
<path d="M419.074 116.653C418.908 115.714 418.658 114.945 418.68 114.183C418.693 113.732 419.11 112.944 419.388 112.924C419.888 112.889 420.514 113.219 420.913 113.586C421.218 113.866 421.291 114.429 421.401 114.882C422.26 118.4 422.635 121.968 422.395 125.585C422.218 128.26 421.159 130.58 419.363 132.547C417.63 134.447 415.775 134.734 413.737 133.216C411.257 131.367 409.23 129.046 408.281 126.052C407.899 124.846 407.878 123.414 408.113 122.166C408.259 121.391 409.064 120.533 409.8 120.112C412.291 118.689 414.809 117.253 417.795 117.088C418.164 117.068 418.522 116.848 419.074 116.653ZM410.778 123.022C410.357 124.105 410.695 125.261 411.351 126.236C412.307 127.657 413.345 129.052 414.533 130.279C415.957 131.748 416.685 131.606 417.905 129.944C419.966 127.139 419.796 123.904 419.569 120.694C419.544 120.343 418.798 119.716 418.479 119.77C416.726 120.067 414.888 120.139 413.366 121.274C412.569 121.87 411.716 122.393 410.778 123.022Z" fill="#BC0000"/>
<path d="M372.91 135.461C372.539 134.183 372.248 133.138 371.93 132.1C371.674 131.261 371.714 130.472 372.63 130.142C373.602 129.793 374.062 130.519 374.352 131.291C375.888 135.366 376.726 139.564 376.292 143.93C376.185 145 375.857 146.09 375.417 147.075C374.249 149.689 371.312 150.569 368.945 148.981C366.387 147.265 365.266 144.757 365.577 141.704C365.873 138.793 367.697 137.113 370.367 136.23C371.099 135.987 371.846 135.781 372.91 135.461ZM373.294 144.904C373.751 142.603 373.77 140.628 373.39 138.635C370.542 138.757 368.941 139.671 368.452 141.423C367.912 143.36 368.649 145.145 370.468 146.326C370.26 144.77 369.964 143.212 369.905 141.643C369.89 141.241 370.577 140.547 371.036 140.453C371.861 140.285 372.35 140.985 372.335 141.751C372.324 142.325 371.988 142.892 371.765 143.559C372.16 143.904 372.6 144.293 373.294 144.904Z" fill="#BC0000"/>
<path d="M396.515 136.386C396.474 135.763 396.38 134.836 396.362 133.909C396.347 133.145 396.625 132.379 397.494 132.477C397.967 132.531 398.698 133.13 398.758 133.56C399.167 136.479 399.83 139.43 398.79 142.343C398.509 143.131 398.057 143.911 397.503 144.536C396.129 146.085 394.323 146.07 392.513 144.617C391.138 143.514 390.858 142.136 392.141 140.522C393.273 139.093 394.8 137.975 396.515 136.386ZM396.351 140.208C395.229 140.642 394.511 141.256 394.338 142.443C395.969 142.604 395.969 142.604 396.351 140.208Z" fill="#BC0000"/>
<path d="M449.288 136.704C448.629 135.637 448.081 135.081 447.985 134.456C447.937 134.142 448.845 133.314 449.087 133.398C449.63 133.586 450.303 134.142 450.402 134.652C450.491 135.1 449.875 135.687 449.288 136.704Z" fill="#BC0000"/>
<path d="M417.816 122.147C418.369 123.005 418.931 123.518 418.96 124.06C418.979 124.39 418.202 125.024 417.742 125.064C416.982 125.129 416.403 124.491 416.544 123.722C416.629 123.25 417.205 122.869 417.816 122.147Z" fill="#BC0000"/>
<path d="M415.39 124.362C414.733 124.936 414.326 125.57 413.898 125.585C413.486 125.599 412.781 125.037 412.684 124.619C412.501 123.825 413.104 123.282 413.909 123.373C414.327 123.42 414.699 123.88 415.39 124.362Z" fill="#BC0000"/>
<path d="M417.55 127.567C416.917 127.993 416.408 128.566 416.127 128.471C415.672 128.316 415.102 127.747 415.059 127.307C414.992 126.625 415.617 126.151 416.315 126.378C416.727 126.512 417.015 127.03 417.55 127.567Z" fill="#BC0000"/>
</g>
<g opacity="0.2">
<path d="M382.735 217.553C383.01 216.558 383.237 215.814 383.421 215.061C383.862 213.267 384.718 211.933 386.303 210.733C388.828 208.822 390.952 206.381 393.274 204.195C394.35 203.183 395.484 202.232 396.607 201.273C398.793 199.408 400.947 197.5 403.201 195.721C404.675 194.557 406.298 194.814 407.517 196.407C408.559 197.769 409.423 199.274 410.295 200.757C410.903 201.791 411.531 202.714 412.746 203.141C413.234 203.312 413.655 203.743 414.04 204.122C415.485 205.544 416.893 207.001 418.335 208.426C418.605 208.693 418.938 208.996 419.287 209.07C422.81 209.817 424.023 212.305 424.265 215.556C424.275 215.706 424.353 215.852 424.458 216.181C424.798 216.255 425.236 216.33 425.661 216.448C427.423 216.938 428.245 218.272 427.364 219.796C426.024 222.112 424.448 224.142 421.26 224.247C411.242 224.572 401.233 225.128 391.216 225.471C387.385 225.603 383.543 225.403 379.706 225.343C379.16 225.335 378.603 225.321 378.069 225.215C376.089 224.82 375.471 223.52 376.472 221.768C377.827 219.4 379.766 217.805 382.735 217.553ZM405.072 197.648C402.666 199.761 400.522 201.651 398.37 203.53C397.317 204.45 396.205 205.308 395.191 206.267C392.818 208.508 390.641 210.989 388.083 212.987C386.583 214.16 386.074 215.395 386.002 217.082C390.174 217.714 419.198 216.976 421.558 216.192C421.591 213.292 421.052 212.617 418.339 211.653C417.571 211.38 416.881 210.783 416.26 210.219C414.592 208.705 413.154 206.856 411.289 205.664C409.823 204.726 408.778 203.644 407.927 202.221C407.057 200.768 406.136 199.347 405.072 197.648ZM424.132 219.181C423.053 219.181 422.212 219.141 421.375 219.188C418.721 219.34 416.07 219.622 413.415 219.679C404.266 219.872 395.115 219.979 385.964 220.156C384.642 220.182 383.316 220.345 382.009 220.552C380.991 220.712 380.141 221.204 379.695 222.523C380.717 222.571 381.555 222.611 382.394 222.651C395.398 223.268 408.331 221.656 421.308 221.425C422.625 221.4 423.49 220.755 424.132 219.181Z" fill="#BC0000"/>
<path d="M401.971 206.948C401.717 207.554 401.603 208.25 401.2 208.66C400.84 209.025 400.13 209.27 399.633 209.192C399.347 209.148 399.082 208.377 398.988 207.898C398.92 207.554 399.094 207.124 399.258 206.78C400.034 205.157 401.732 204.663 403.102 203.787C403.269 203.681 404.059 204.118 404.147 204.423C404.275 204.866 404.196 205.584 403.901 205.884C403.445 206.345 402.731 206.552 401.971 206.948Z" fill="#BC0000"/>
<path d="M407.18 213.867C405.822 213.832 405.011 212.289 405.627 211.235C405.999 210.599 406.321 209.896 406.832 209.393C407.203 209.028 407.935 208.668 408.348 208.8C408.803 208.944 409.437 209.726 409.363 210.105C409.152 211.19 408.682 212.244 408.177 213.242C408.007 213.583 407.432 213.719 407.18 213.867Z" fill="#BC0000"/>
<path d="M414.291 211.742C415.496 211.68 416.442 212.417 416.543 213.17C416.643 213.92 416.087 214.512 415.298 214.495C414.44 214.476 413.444 213.679 413.569 212.945C413.656 212.448 414.118 212.014 414.291 211.742Z" fill="#BC0000"/>
<path d="M396.849 211.908C395.886 212.543 395.403 213.068 394.833 213.189C393.983 213.369 393.094 212.458 393.173 211.637C393.256 210.767 393.878 210.34 394.642 210.554C395.284 210.733 395.828 211.259 396.849 211.908Z" fill="#BC0000"/>
<path d="M408.151 204.586C408.757 205.308 409.325 205.685 409.411 206.152C409.563 206.977 408.935 207.529 408.157 207.368C407.699 207.274 407.077 206.672 407.033 206.246C406.99 205.837 407.596 205.36 408.151 204.586Z" fill="#BC0000"/>
</g>
</g>
<defs>
<clipPath id="clip0_238_535">
<rect width="459" height="226" fill="white"/>
</clipPath>
</defs>
</svg>
