<svg height="512pt" viewBox="0 -1 512 512" width="512pt" xmlns="http://www.w3.org/2000/svg"><path d="m512 140.96875c0 27.722656-13.851562 54.121094-40.148438 76.722656v293.070313h-425.171874v-287.730469c-30.570313-23.730469-46.679688-51.972656-46.679688-82.0625 0-39.5 27.929688-75.859375 78.640625-102.367188 47.621094-24.890624 110.609375-38.601562 177.359375-38.601562h.03125c66.738281 0 129.71875 13.710938 177.328125 38.601562 50.710937 26.507813 78.640625 62.867188 78.640625 102.367188zm0 0" fill="#ff7816"/><path d="m512 140.96875c0 27.722656-13.851562 54.121094-40.148438 76.722656v293.070313h-215.820312v-510.761719c66.738281 0 129.71875 13.710938 177.328125 38.601562 50.710937 26.507813 78.640625 62.867188 78.640625 102.367188zm0 0" fill="#fe4b00"/><path d="m448.648438 140.96875c0 9.832031-7.820313 21.390625-22.007813 32.550781l-18.140625 14.269531v260.472657h-298.46875v-257.023438l-19.992188-14.21875c-16.960937-12.070312-26.6875-25.199219-26.6875-36.050781 0-14.578125 17.21875-32.640625 44.9375-47.140625 38.101563-19.90625 91.941407-31.328125 147.710938-31.328125h.03125c55.769531 0 109.589844 11.421875 147.667969 31.328125 27.730469 14.5 44.949219 32.5625 44.949219 47.140625zm0 0" fill="#fee892"/><path d="m448.648438 140.96875c0 9.832031-7.820313 21.390625-22.007813 32.550781l-18.140625 14.269531v260.472657h-152.46875v-385.761719c55.769531 0 109.589844 11.421875 147.667969 31.328125 27.730469 14.5 44.949219 32.5625 44.949219 47.140625zm0 0" fill="#ffc072"/><path d="m197.832031 371.378906h30v30h-30zm0 0" fill="#ff7816"/><path d="m152 315.761719h30v30h-30zm0 0" fill="#ff7816"/><path d="m322.949219 217.34375h30v30h-30zm0 0" fill="#fe4b00"/><path d="m218 131.261719h30v30h-30zm0 0" fill="#ff7816"/></svg>