<svg id="Layer_1" enable-background="new 0 0 132 132" height="512" viewBox="0 0 132 132" width="512" xmlns="http://www.w3.org/2000/svg"><g id="_x38_7"><g><g><g><circle cx="66" cy="66" fill="#ffc536" r="64"/></g></g></g><g><g><g><g><g><g><path d="m45.9 54.2h40.2v26.5h-40.2z" fill="#eff2f8"/></g></g><g><g><path d="m86.1 54.2v9.8c-2.3 0-4.6-.6-6.6-1.7-2.4 1.1-5 1.7-7.6 1.7-3.3 0-6.4-.9-9.2-2.5-3.1 1.7-6.5 2.5-10.1 2.5-2.4 0-4.6-.4-6.8-1.1v-8.7z" fill="#d4dee8"/></g></g><g><g><path d="m98.6 49.6c0 6.8-5.6 12.4-12.4 12.4-2.5 0-4.7-.7-6.7-2-2.3 1.2-4.9 2-7.7 2-3.4 0-6.6-1.1-9.2-2.9-2.9 1.8-6.4 2.9-10.1 2.9-9.1 0-16.7-6.2-18.7-14.7-.4-1.5-.6-3-.6-4.6 0-10.6 8.6-19.3 19.3-19.3 6 0 11.4 2.7 14.9 7 1.4-.4 2.9-.6 4.4-.6 5.7 0 10.7 3 13.5 7.4h.8c3 0 5.8 1.1 8 2.9 2.8 2.3 4.5 5.7 4.5 9.5z" fill="#eff2f8"/></g></g></g><g><g><path d="m87.9 79.8c0 1.2-.9 2.1-2.1 2.1h-40.5c-1.2 0-2.1-.9-2.1-2.1 0-1.1.9-2.1 2.1-2.1h40.5c1.2 0 2.1.9 2.1 2.1z" fill="#e1e7ef"/></g></g></g><g><g><path d="m98.6 49.6c0 6.8-5.6 12.4-12.4 12.4-2.5 0-4.7-.7-6.7-2-2.3 1.2-4.9 2-7.7 2-3.4 0-6.6-1.1-9.2-2.9-2.9 1.8-6.4 2.9-10.1 2.9-9.1 0-16.7-6.2-18.7-14.7.5.2 1.1.5 1.6.7 3 1.6 5.7 3.7 9 4.4 5.3 1.1 10.6-1.9 14.3-5.8 1.3 2.9 4.5 4.9 7.7 4.8s6.3-2.3 7.4-5.3c2.9 4.2 8.8 5.9 13.5 4 3.9-1.6 6.6-5.7 6.8-10 2.8 2.3 4.5 5.7 4.5 9.5z" fill="#e1e7ef"/></g></g></g><g><g><g><g><path d="m99.7 97.7c-3 5.9-7.2 9.1-11.7 10.4-4.2 1.2-8.7.2-12.1-2.5l-1.5-1.2 3 3.7c-5.6-1.5-10.3-5.1-11.8-8.8-.1-.2-.1-.4-.2-.5 0 0-.1-.4-.3-.9-.2-.8-.4-1.9-.1-3.1 0-.2.1-.4.1-.6.5-1.8 2-3.6 5.6-4.4 3.1-.7 6.4-.1 9.3 1.3l2.2 1.1c-1.2 0-2.2.2-3 .5 5.5 3.3 10.6 9.2 18.5 6 .6-.2 1.3-.6 2-1z" fill="#2a2e33"/></g></g><g><g><path d="m99.7 97.7c-3 5.9-7.2 9.1-11.7 10.4-4.2 1.2-8.7.2-12.1-2.5l-1.5-1.2 3 3.7c-5.6-1.5-10.3-5.1-11.8-8.8.4-.8.9-1.4 1.6-1.9 2.1-1.4 5-.6 7.1.7 2.1 1.4 3.8 3.3 6 4.5 3.5 1.9 7.8 1.8 11.5.2 2.2-1 4.2-2.4 5.9-4.2.6-.1 1.3-.5 2-.9z" fill="#1e2125"/></g></g></g><g><g><g><path d="m32.3 97.7c3 5.9 7.2 9.1 11.7 10.4 4.2 1.2 8.7.2 12.1-2.5l1.5-1.2-3 3.7c5.6-1.5 10.3-5.1 11.8-8.8.1-.2.1-.4.2-.5 0 0 .1-.4.3-.9.2-.8.4-1.9.1-3.1 0-.2-.1-.4-.1-.6-.5-1.8-2-3.6-5.6-4.4-3.1-.7-6.4-.1-9.3 1.3l-2.2 1.1c1.2 0 2.2.2 3 .5-5.5 3.3-10.6 9.2-18.5 6-.6-.2-1.3-.6-2-1z" fill="#2a2e33"/></g></g><g><g><path d="m32.3 97.7c3 5.9 7.2 9.1 11.7 10.4 4.2 1.2 8.7.2 12.1-2.5l1.5-1.2-3 3.7c5.6-1.5 10.3-5.1 11.8-8.8-.4-.8-.9-1.4-1.6-1.9-2.1-1.4-5-.6-7.1.7-2.1 1.4-3.8 3.3-6 4.5-3.5 1.9-7.8 1.8-11.5.2-2.2-1-4.2-2.4-5.9-4.2-.6-.1-1.3-.5-2-.9z" fill="#1e2125"/></g></g></g></g></g></g></svg>