<svg id="Layer_3" height="512" viewBox="0 0 64 64" width="512" xmlns="http://www.w3.org/2000/svg" data-name="Layer 3"><path d="m30 20h4v8h-4z" fill="#686868"/><rect fill="#686868" height="6" rx="3" width="60" x="2" y="56"/><path d="m59 56h-53a3 3 0 0 0 3 3h53a3 3 0 0 0 -3-3z" fill="#939393"/><path d="m5 56v-2a2 2 0 0 1 2-2h50a2 2 0 0 1 2 2v2" fill="#b5b5b5"/><path d="m7 52v-1a25 25 0 0 1 25-25 25 25 0 0 1 25 25v1" fill="#ccc"/><path d="m34.5 26.125a25 25 0 0 0 -22.5 24.875v1h45v-1a25 25 0 0 0 -22.5-24.875z" fill="#f2f2f2"/><circle cx="32" cy="18" fill="#c8cded" r="4"/><path d="m32 14a4.015 4.015 0 0 0 -.707.071 3.977 3.977 0 0 0 3.414 6.858 3.989 3.989 0 0 0 -2.707-6.929z" fill="#e2e7f6"/><g fill="#fad85d"><path d="m32 2 1.545 3.292 3.455.528-2.5 2.562.59 3.618-3.09-1.708-3.09 1.708.59-3.618-2.5-2.562 3.455-.528z"/><path d="m44 7 1.545 3.292 3.455.528-2.5 2.562.59 3.618-3.09-1.708-3.09 1.708.59-3.618-2.5-2.562 3.455-.528z"/><path d="m20 7 1.545 3.292 3.455.528-2.5 2.562.59 3.618-3.09-1.708-3.09 1.708.59-3.618-2.5-2.562 3.455-.528z"/><path d="m11 16 1.545 3.292 3.455.528-2.5 2.562.59 3.618-3.09-1.708-3.09 1.708.59-3.618-2.5-2.562 3.455-.528z"/><path d="m53 16 1.545 3.292 3.455.528-2.5 2.562.59 3.618-3.09-1.708-3.09 1.708.59-3.618-2.5-2.562 3.455-.528z"/></g><path d="m60 55.142v-1.142a3 3 0 0 0 -2-2.816v-.184a26.034 26.034 0 0 0 -23-25.822v-3.2a5 5 0 1 0 -6 0v3.2a26.034 26.034 0 0 0 -23 25.822v.184a3 3 0 0 0 -2 2.816v1.142a3.992 3.992 0 0 0 1 7.858h54a3.992 3.992 0 0 0 1-7.858zm-28-40.142a3 3 0 1 1 -3 3 3 3 0 0 1 3-3zm-1 7.9a5 5 0 0 0 2 0v2.126c-.332-.012-.665-.025-1-.025s-.668.013-1 .025zm1 4.1a24.028 24.028 0 0 1 24 24h-48a24.028 24.028 0 0 1 24-24zm-25 26h50a1 1 0 0 1 1 1v1h-52v-1a1 1 0 0 1 1-1zm52 8h-54a2 2 0 0 1 0-4h54a2 2 0 0 1 0 4z"/><path d="m28.432 8.719-.509 3.12a1 1 0 0 0 1.471 1.036l2.606-1.44 2.606 1.44a1 1 0 0 0 1.471-1.036l-.509-3.12 2.148-2.2a1 1 0 0 0 -.565-1.687l-2.927-.447-1.319-2.81a1 1 0 0 0 -1.81 0l-1.319 2.809-2.927.447a1 1 0 0 0 -.565 1.687zm2.174-2.439a1 1 0 0 0 .754-.563l.64-1.363.64 1.363a1 1 0 0 0 .754.563l1.531.235-1.141 1.169a1 1 0 0 0 -.271.859l.259 1.586-1.288-.712a1 1 0 0 0 -.968 0l-1.288.712.259-1.586a1 1 0 0 0 -.271-.859l-1.141-1.169z"/><path d="m40.432 13.719-.509 3.12a1 1 0 0 0 1.471 1.036l2.606-1.44 2.606 1.44a1 1 0 0 0 1.471-1.036l-.509-3.12 2.148-2.2a1 1 0 0 0 -.565-1.687l-2.927-.447-1.319-2.81a1 1 0 0 0 -1.81 0l-1.319 2.809-2.927.447a1 1 0 0 0 -.565 1.687zm2.174-2.439a1 1 0 0 0 .754-.563l.64-1.363.64 1.363a1 1 0 0 0 .754.563l1.531.235-1.141 1.169a1 1 0 0 0 -.271.859l.259 1.586-1.288-.712a1 1 0 0 0 -.968 0l-1.288.712.259-1.586a1 1 0 0 0 -.271-.859l-1.141-1.169z"/><path d="m16.432 13.719-.509 3.12a1 1 0 0 0 1.471 1.036l2.606-1.44 2.606 1.44a1 1 0 0 0 1.471-1.036l-.509-3.12 2.148-2.2a1 1 0 0 0 -.565-1.687l-2.927-.447-1.319-2.81a1 1 0 0 0 -1.81 0l-1.319 2.809-2.927.447a1 1 0 0 0 -.565 1.687zm2.174-2.439a1 1 0 0 0 .754-.563l.64-1.363.64 1.363a1 1 0 0 0 .754.563l1.531.235-1.141 1.169a1 1 0 0 0 -.271.859l.259 1.586-1.288-.712a1 1 0 0 0 -.968 0l-1.288.712.259-1.586a1 1 0 0 0 -.271-.859l-1.141-1.169z"/><path d="m7.432 22.719-.509 3.12a1 1 0 0 0 1.471 1.036l2.606-1.44 2.606 1.44a1 1 0 0 0 1.471-1.036l-.509-3.12 2.148-2.2a1 1 0 0 0 -.565-1.687l-2.927-.447-1.319-2.809a1 1 0 0 0 -1.81 0l-1.319 2.808-2.927.447a1 1 0 0 0 -.565 1.687zm2.174-2.439a1 1 0 0 0 .754-.563l.64-1.363.64 1.363a1 1 0 0 0 .754.563l1.531.235-1.141 1.169a1 1 0 0 0 -.271.859l.259 1.586-1.288-.712a1 1 0 0 0 -.968 0l-1.288.712.259-1.586a1 1 0 0 0 -.271-.859l-1.141-1.169z"/><path d="m47.052 19.5a1 1 0 0 0 .232 1.016l2.148 2.2-.509 3.12a1 1 0 0 0 1.471 1.036l2.606-1.437 2.606 1.44a1 1 0 0 0 1.471-1.036l-.509-3.12 2.148-2.2a1 1 0 0 0 -.565-1.687l-2.927-.447-1.319-2.809a1 1 0 0 0 -1.81 0l-1.319 2.809-2.927.447a1 1 0 0 0 -.797.668zm4.554.778a1 1 0 0 0 .754-.563l.64-1.361.64 1.363a1 1 0 0 0 .754.563l1.531.235-1.141 1.169a1 1 0 0 0 -.271.859l.259 1.586-1.288-.712a1 1 0 0 0 -.968 0l-1.288.712.259-1.586a1 1 0 0 0 -.271-.859l-1.141-1.169z"/></svg>