<?xml version="1.0"?>
<svg xmlns="http://www.w3.org/2000/svg" data-name="Layer 3" id="Layer_3" viewBox="0 0 64 64"><rect height="5" style="fill:#a0a8b2" width="42" x="11" y="53"/><circle cx="11" cy="29" r="7" style="fill:#c66b60"/><circle cx="11" cy="29" r="3" style="fill:#e47c6f"/><circle cx="18" cy="23" r="7" style="fill:#e47c6f"/><circle cx="18" cy="23" r="3" style="fill:#e9968c"/><path d="M58.5,38.9a3.95,3.95,0,0,0-2.513-5.763c0-.046.014-.09.014-.137a4,4,0,0,0-4-4,3.959,3.959,0,0,0-1.089.169A4,4,0,0,0,47,26a3.959,3.959,0,0,0-1.089.169A4,4,0,0,0,42,23a3.948,3.948,0,0,0-1.156.19,3.961,3.961,0,0,0-5.419-.227,3.969,3.969,0,0,0-6.85,0,3.961,3.961,0,0,0-5.419.227A3.948,3.948,0,0,0,22,23a4,4,0,0,0-3.911,3.169A3.959,3.959,0,0,0,17,26a4,4,0,0,0-3.911,3.169A3.959,3.959,0,0,0,12,29a4,4,0,0,0-4,4c0,.047.012.091.014.137A3.95,3.95,0,0,0,5.5,38.9,3.975,3.975,0,0,0,4,42H60A3.975,3.975,0,0,0,58.5,38.9Z" style="fill:#f9d18f"/><path d="M52,29a3.971,3.971,0,0,1,2.175.65L62,14H57L50.935,29.164A3.9,3.9,0,0,1,52,29Z" style="fill:#fbe3bc"/><path d="M49.092,26.6,52,14H47L45.911,26.169a3.819,3.819,0,0,1,3.181.432Z" style="fill:#fbe3bc"/><path d="M51.071,40.357A2.821,2.821,0,0,0,51.429,39a2.852,2.852,0,0,0-2.153-2.759c0-.033.01-.065.01-.1a2.82,2.82,0,0,0-3.635-2.737,2.858,2.858,0,0,0-2.794-2.263,2.824,2.824,0,0,0-.778.121A2.856,2.856,0,0,0,39.286,29a2.819,2.819,0,0,0-.826.136,2.831,2.831,0,0,0-3.871-.163,2.836,2.836,0,0,0-4.893,0,2.829,2.829,0,0,0-3.87.163A2.824,2.824,0,0,0,25,29a2.858,2.858,0,0,0-2.794,2.264,2.811,2.811,0,0,0-.777-.121,2.857,2.857,0,0,0-2.794,2.263A2.82,2.82,0,0,0,15,36.143c0,.033.009.065.01.1A2.852,2.852,0,0,0,12.857,39a2.821,2.821,0,0,0,.358,1.357,2.839,2.839,0,0,0-1.072,2.214h40A2.839,2.839,0,0,0,51.071,40.357Z" style="fill:#fbe3bc"/><circle cx="40" cy="31" r="2" style="fill:#78b761"/><circle cx="22" cy="36" r="2" style="fill:#78b761"/><path d="M29.5,15.5h0A5.122,5.122,0,0,1,28,11.879V11h.879A5.122,5.122,0,0,1,32.5,12.5h0A5.122,5.122,0,0,1,34,16.121V17h-.879A5.122,5.122,0,0,1,29.5,15.5Z" style="fill:#78b761"/><path d="M39.5,7.5h0A5.122,5.122,0,0,0,38,11.121V12h.879A5.122,5.122,0,0,0,42.5,10.5h0A5.122,5.122,0,0,0,44,6.879V6h-.879A5.122,5.122,0,0,0,39.5,7.5Z" style="fill:#78b761"/><path d="M4,46a8,8,0,0,0,8,8H52a8,8,0,0,0,8-8Z" style="fill:#c66b60"/><path d="M60,46H4.2c1.742,4.5,15.089,8,31.3,8H52A8,8,0,0,0,60,46Z" style="fill:#e47c6f"/><path d="M53,54H11c0,2.209,13.655,4,30.5,4H53Z" style="fill:#b3b9c1"/><rect height="4" style="fill:#a0a8b2" width="60" x="2" y="42"/><path d="M62,42H2c0,2.209,13.655,4,30.5,4H62Z" style="fill:#b3b9c1"/><path d="M62,41H60.89A4.964,4.964,0,0,0,59.7,38.664,4.817,4.817,0,0,0,60,37a4.984,4.984,0,0,0-3.034-4.584,5.016,5.016,0,0,0-1.538-3.036L62.9,14.447A1,1,0,0,0,62,13H57a1,1,0,0,0-.929.628L50.812,26.776a5.145,5.145,0,0,0-.594-.605l2.757-11.946A1,1,0,0,0,52,13H47a1,1,0,0,0-1,.911l-.828,9.249A4.982,4.982,0,0,0,42,22a4.508,4.508,0,0,0-.885.091,5.037,5.037,0,0,0-5.463-.489,4.964,4.964,0,0,0-7.3,0,4.925,4.925,0,0,0-2.6-.568,7.99,7.99,0,0,0-15.5.01A7.985,7.985,0,0,0,4.9,34.162,4.958,4.958,0,0,0,4,37a4.817,4.817,0,0,0,.3,1.664A4.964,4.964,0,0,0,3.11,41H2a1,1,0,0,0-1,1v4a1,1,0,0,0,1,1H3.059A9.013,9.013,0,0,0,10,54.768V58a1,1,0,0,0,1,1H53a1,1,0,0,0,1-1V54.768A9.013,9.013,0,0,0,60.941,47H62a1,1,0,0,0,1-1V42A1,1,0,0,0,62,41ZM57.677,15h2.7L53.728,28.308a4.771,4.771,0,0,0-1.26-.284Zm-6.934,0L48.389,25.2a4.761,4.761,0,0,0-1.37-.184L47.914,15ZM18,17a5.97,5.97,0,0,1,5.8,4.531,4.787,4.787,0,0,0-.914.56A4.508,4.508,0,0,0,22,22c-.047,0-.092.009-.139.01a3.99,3.99,0,1,0-6.979,3.465,5.03,5.03,0,0,0-1.613,1.2A5.992,5.992,0,0,1,18,17Zm-.535,7.918a1.993,1.993,0,1,1,2.439-2.45A5.031,5.031,0,0,0,17.465,24.918Zm-7.46-1.828a7.989,7.989,0,0,0,1.783,4.933,4.972,4.972,0,0,0-4.754,4.393,4.867,4.867,0,0,0-.686.361,5.984,5.984,0,0,1,3.657-9.687ZM6.129,39.679a1,1,0,0,0,.25-1.257A2.962,2.962,0,0,1,6,37a2.993,2.993,0,0,1,2.261-2.9,1,1,0,0,0,.752-1.011A.3.3,0,0,0,9,33v0a3,3,0,0,1,3-3,2.968,2.968,0,0,1,.815.131,1,1,0,0,0,1.252-.755A3.011,3.011,0,0,1,17,27a2.968,2.968,0,0,1,.815.131,1,1,0,0,0,1.252-.755A3.011,3.011,0,0,1,22,24a2.944,2.944,0,0,1,.865.147,1,1,0,0,0,1-.254,2.962,2.962,0,0,1,4.061-.168,1,1,0,0,0,1.506-.25,2.969,2.969,0,0,1,5.132,0,1,1,0,0,0,1.506.25,2.962,2.962,0,0,1,4.061.168,1,1,0,0,0,1,.254A2.944,2.944,0,0,1,42,24a3.011,3.011,0,0,1,2.933,2.376,1,1,0,0,0,1.252.755A2.968,2.968,0,0,1,47,27a3.011,3.011,0,0,1,2.933,2.376,1,1,0,0,0,1.252.755A2.947,2.947,0,0,1,55,32.935c-.005.032-.015.127-.016.159a1,1,0,0,0,.752,1.011A2.993,2.993,0,0,1,58,37a2.962,2.962,0,0,1-.379,1.422,1,1,0,0,0,.25,1.257A3.014,3.014,0,0,1,58.8,41H5.2A3.014,3.014,0,0,1,6.129,39.679ZM5.08,47H13v.5A1.5,1.5,0,0,1,11.5,49a3.506,3.506,0,0,0-3.427,2.79A7,7,0,0,1,5.08,47ZM48,52.5V53H40v-.5A1.5,1.5,0,0,1,41.5,51,3.5,3.5,0,0,0,45,47.5V47h8v.5A1.5,1.5,0,0,1,51.5,49,3.5,3.5,0,0,0,48,52.5Zm-5-5A1.5,1.5,0,0,1,41.5,49,3.5,3.5,0,0,0,38,52.5V53H30v-.5A1.5,1.5,0,0,1,31.5,51,3.5,3.5,0,0,0,35,47.5V47h8Zm-10,0A1.5,1.5,0,0,1,31.5,49,3.5,3.5,0,0,0,28,52.5V53H20v-.5A1.5,1.5,0,0,1,21.5,51,3.5,3.5,0,0,0,25,47.5V47h8Zm-10,0A1.5,1.5,0,0,1,21.5,49,3.5,3.5,0,0,0,18,52.5V53H12a6.956,6.956,0,0,1-2-.3v-.2A1.5,1.5,0,0,1,11.5,51,3.5,3.5,0,0,0,15,47.5V47h8ZM52,57H12V55H52Zm0-4H50v-.5A1.5,1.5,0,0,1,51.5,51,3.5,3.5,0,0,0,55,47.5V47h3.92A7.006,7.006,0,0,1,52,53Zm9-8H3V43H61Z"/><rect height="2" width="2" x="15" y="31"/><rect height="2" width="2" x="29" y="26"/><rect height="2" width="2" x="46" y="36"/><rect height="2" width="2" x="30" y="36"/><path d="M40,28a3,3,0,1,0,3,3A3,3,0,0,0,40,28Zm0,4a1,1,0,1,1,1-1A1,1,0,0,1,40,32Z"/><path d="M22,33a3,3,0,1,0,3,3A3,3,0,0,0,22,33Zm0,4a1,1,0,1,1,1-1A1,1,0,0,1,22,37Z"/><path d="M33.121,18H34a1,1,0,0,0,1-1v-.879A6.122,6.122,0,0,0,28.879,10H28a1,1,0,0,0-1,1v.879A6.122,6.122,0,0,0,33.121,18Zm-1.328-4.793A4.156,4.156,0,0,1,33,16a4.089,4.089,0,0,1-2.791-1.2A4.156,4.156,0,0,1,29,12,4.089,4.089,0,0,1,31.793,13.207Z"/><path d="M38,13h.879A6.122,6.122,0,0,0,45,6.879V6a1,1,0,0,0-1-1h-.879A6.122,6.122,0,0,0,37,11.121V12A1,1,0,0,0,38,13Zm2.207-4.793A4.089,4.089,0,0,1,43,7a4.156,4.156,0,0,1-1.2,2.791A4.089,4.089,0,0,1,39,11,4.156,4.156,0,0,1,40.207,8.207Z"/></svg>
