<?xml version="1.0" encoding="UTF-8" standalone="no"?>
<!-- Created with Inkscape (http://www.inkscape.org/) -->

<svg
   version="1.1"
   id="svg5481"
   xml:space="preserve"
   width="682.66669"
   height="682.66669"
   viewBox="0 0 682.66669 682.66669"
   xmlns="http://www.w3.org/2000/svg"
   xmlns:svg="http://www.w3.org/2000/svg"><defs
     id="defs5485"><clipPath
       clipPathUnits="userSpaceOnUse"
       id="clipPath5495"><path
         d="M 0,512 H 512 V 0 H 0 Z"
         id="path5493" /></clipPath></defs><g
     id="g5487"
     transform="matrix(1.3333333,0,0,-1.3333333,0,682.66667)"><g
       id="g5489"><g
         id="g5491"
         clip-path="url(#clipPath5495)"><g
           id="g5497"
           transform="translate(123.418,11.6465)"><path
             d="m 0,0 c -5.528,5.528 -5.528,14.522 0,20.051 l 356.885,356.885 c 5.527,5.528 14.522,5.529 20.051,0.001 5.528,-5.529 5.528,-14.525 0,-20.053 L 20.051,-0.001 C 14.522,-5.529 5.527,-5.528 0,0"
             style="fill:#bb8080;fill-opacity:1;fill-rule:nonzero;stroke:none"
             id="path5499" /></g><g
           id="g5501"
           transform="translate(482.9619,358.4619)"><path
             d="m 0,0 c -1.06,6.239 -6.687,11.866 -12.926,12.926 -18.323,3.112 -56.044,5.957 -79.092,-17.091 -22.873,-22.874 2.504,-31.042 23.195,-51.732 20.689,-20.691 28.858,-46.068 51.732,-23.194 C 5.957,-56.044 3.112,-18.323 0,0"
             style="fill:#ff646f;fill-opacity:1;fill-rule:nonzero;stroke:none"
             id="path5503" /></g><g
           id="g5505"
           transform="translate(482.9619,358.4619)"><path
             d="m 0,0 c -1.06,6.239 -6.687,11.867 -12.926,12.926 -2.759,0.469 -5.963,0.929 -9.484,1.299 2.081,-19.871 1.187,-50.03 -18.39,-69.607 -8.596,-8.597 -15.115,-10.377 -21.003,-8.154 15.865,-18.496 24.612,-35.655 44.712,-15.555 C 5.957,-56.044 3.112,-18.323 0,0"
             style="fill:#ff4755;fill-opacity:1;fill-rule:nonzero;stroke:none"
             id="path5507" /></g><g
           id="g5509"
           transform="translate(414.3867,250.3838)"><path
             d="m 0,0 c -14.478,-14.479 -37.951,-14.479 -52.429,0 -14.478,14.478 -14.478,37.951 0,52.429 14.478,14.478 37.951,14.478 52.429,0 C 14.478,37.951 14.478,14.478 0,0"
             style="fill:#ff9838;fill-opacity:1;fill-rule:nonzero;stroke:none"
             id="path5511" /></g><g
           id="g5513"
           transform="translate(414.3867,302.8125)"><path
             d="m 0,0 c -4.293,4.293 -9.38,7.303 -14.785,9.05 4.145,-12.825 1.136,-27.459 -9.05,-37.645 -10.185,-10.184 -24.818,-13.194 -37.644,-9.049 1.748,-5.406 4.757,-10.492 9.05,-14.785 14.478,-14.478 37.951,-14.478 52.429,0 C 14.478,-37.951 14.478,-14.478 0,0"
             style="fill:#ff8709;fill-opacity:1;fill-rule:nonzero;stroke:none"
             id="path5515" /></g><g
           id="g5517"
           transform="translate(248.1543,84.1514)"><path
             d="m 0,0 c -14.479,-14.479 -37.951,-14.479 -52.43,0 -14.477,14.478 -14.477,37.951 0,52.429 14.479,14.477 37.951,14.477 52.43,0 C 14.478,37.951 14.478,14.478 0,0"
             style="fill:#ff9838;fill-opacity:1;fill-rule:nonzero;stroke:none"
             id="path5519" /></g><g
           id="g5521"
           transform="translate(248.1543,136.5801)"><path
             d="m 0,0 c -4.287,4.287 -9.364,7.294 -14.762,9.042 4.157,-12.831 1.15,-27.477 -9.042,-37.668 -10.19,-10.191 -24.837,-13.198 -37.667,-9.042 1.748,-5.396 4.755,-10.475 9.041,-14.761 14.479,-14.478 37.952,-14.478 52.43,0 C 14.478,-37.951 14.478,-14.478 0,0"
             style="fill:#ff8709;fill-opacity:1;fill-rule:nonzero;stroke:none"
             id="path5523" /></g><g
           id="g5525"
           transform="translate(331.2705,167.2676)"><path
             d="m 0,0 c -14.478,-14.479 -37.951,-14.479 -52.43,0 -14.477,14.478 -14.477,37.951 0,52.429 14.479,14.477 37.952,14.477 52.43,0 C 14.478,37.951 14.478,14.478 0,0"
             style="fill:#ff646f;fill-opacity:1;fill-rule:nonzero;stroke:none"
             id="path5527" /></g><g
           id="g5529"
           transform="translate(331.2705,219.6963)"><path
             d="m 0,0 c -4.318,4.318 -9.439,7.338 -14.88,9.08 4.1,-12.803 1.08,-27.39 -9.08,-37.549 -10.16,-10.16 -24.747,-13.179 -37.55,-9.08 1.743,-5.441 4.763,-10.562 9.08,-14.88 14.479,-14.478 37.952,-14.478 52.43,0 C 14.478,-37.951 14.478,-14.478 0,0"
             style="fill:#ff4755;fill-opacity:1;fill-rule:nonzero;stroke:none"
             id="path5531" /></g><g
           id="g5533"
           transform="translate(359.5254,191.4414)"><path
             d="m 0,0 -56.51,56.51 c -6.562,6.562 -6.562,17.203 0,23.764 l 6.922,6.923 c 6.563,6.563 17.202,6.563 23.765,0 l 56.51,-56.51 c 6.563,-6.562 6.563,-17.203 0,-23.765 L 23.765,0 C 17.202,-6.562 6.562,-6.562 0,0"
             style="fill:#d2f29f;fill-opacity:1;fill-rule:nonzero;stroke:none"
             id="path5535" /></g><g
           id="g5537"
           transform="translate(390.2129,222.1279)"><path
             d="m 0,0 -22.636,22.637 c 5.865,-5.866 5.865,-15.377 0,-21.242 l -20.066,-20.067 12.015,-12.015 c 6.562,-6.562 17.202,-6.562 23.764,0 L 0,-23.765 C 6.562,-17.202 6.562,-6.562 0,0"
             style="fill:#bced6b;fill-opacity:1;fill-rule:nonzero;stroke:none"
             id="path5539" /></g><g
           id="g5541"
           transform="translate(276.4092,108.3252)"><path
             d="m 0,0 -56.51,56.51 c -6.562,6.562 -6.562,17.202 0,23.764 l 6.922,6.923 c 6.563,6.563 17.202,6.563 23.765,0 l 56.51,-56.51 c 6.563,-6.563 6.563,-17.203 0,-23.765 L 23.765,0 C 17.202,-6.562 6.562,-6.562 0,0"
             style="fill:#d2f29f;fill-opacity:1;fill-rule:nonzero;stroke:none"
             id="path5543" /></g><g
           id="g5545"
           transform="translate(307.0967,139.0117)"><path
             d="m 0,0 -23.897,23.897 c 6.562,-6.562 6.562,-17.202 0,-23.764 l -18.805,-18.805 12.015,-12.015 c 6.562,-6.562 17.202,-6.562 23.764,0 L 0,-23.765 C 6.562,-17.202 6.562,-6.562 0,0"
             style="fill:#bced6b;fill-opacity:1;fill-rule:nonzero;stroke:none"
             id="path5547" /></g><g
           id="g5549"
           transform="translate(11.6465,123.418)"><path
             d="m 0,0 c -5.528,5.527 -5.529,14.522 -0.001,20.051 l 356.885,356.885 c 5.528,5.528 14.524,5.528 20.053,0 5.528,-5.529 5.528,-14.524 0,-20.052 L 20.052,-0.001 C 14.523,-5.529 5.528,-5.528 0,0"
             style="fill:#bb8080;fill-opacity:1;fill-rule:nonzero;stroke:none"
             id="path5551" /></g><g
           id="g5553"
           transform="translate(371.1914,470.2334)"><path
             d="m 0,0 c -1.06,6.238 -6.687,11.866 -12.927,12.926 -18.323,3.112 -56.044,5.957 -79.091,-17.091 -22.874,-22.874 2.503,-31.043 23.194,-51.732 20.69,-20.691 28.858,-46.068 51.732,-23.195 C 5.956,-56.044 3.111,-18.323 0,0"
             style="fill:#ff646f;fill-opacity:1;fill-rule:nonzero;stroke:none"
             id="path5555" /></g><g
           id="g5557"
           transform="translate(371.1904,470.2334)"><path
             d="m 0,0 c -1.06,6.238 -6.687,11.866 -12.926,12.926 -2.759,0.469 -5.963,0.929 -9.484,1.299 2.081,-19.871 1.188,-50.03 -18.39,-69.608 -8.596,-8.596 -15.115,-10.376 -21.003,-8.153 15.865,-18.496 24.612,-35.655 44.712,-15.556 C 5.957,-56.044 3.112,-18.323 0,0"
             style="fill:#ff4755;fill-opacity:1;fill-rule:nonzero;stroke:none"
             id="path5559" /></g><g
           id="g5561"
           transform="translate(302.6152,362.1553)"><path
             d="m 0,0 c -14.478,-14.479 -37.951,-14.479 -52.429,0 -14.478,14.478 -14.478,37.951 0,52.429 14.478,14.477 37.951,14.477 52.429,0 C 14.479,37.951 14.479,14.478 0,0"
             style="fill:#ff9838;fill-opacity:1;fill-rule:nonzero;stroke:none"
             id="path5563" /></g><g
           id="g5565"
           transform="translate(302.6152,414.584)"><path
             d="m 0,0 c -4.293,4.293 -9.379,7.303 -14.785,9.05 4.145,-12.825 1.136,-27.46 -9.049,-37.645 -10.186,-10.184 -24.819,-13.194 -37.645,-9.049 1.748,-5.406 4.757,-10.493 9.05,-14.785 14.478,-14.478 37.951,-14.478 52.429,0 C 14.479,-37.951 14.479,-14.478 0,0"
             style="fill:#ff8709;fill-opacity:1;fill-rule:nonzero;stroke:none"
             id="path5567" /></g><g
           id="g5569"
           transform="translate(136.3828,195.9219)"><path
             d="m 0,0 c -14.478,-14.478 -37.951,-14.478 -52.429,0 -14.478,14.479 -14.478,37.951 0,52.43 14.478,14.477 37.951,14.477 52.429,0 C 14.478,37.951 14.478,14.479 0,0"
             style="fill:#ff9838;fill-opacity:1;fill-rule:nonzero;stroke:none"
             id="path5571" /></g><g
           id="g5573"
           transform="translate(136.3828,248.3516)"><path
             d="m 0,0 c -4.286,4.286 -9.364,7.293 -14.762,9.042 4.158,-12.831 1.151,-27.477 -9.041,-37.668 -10.191,-10.191 -24.837,-13.198 -37.668,-9.042 1.748,-5.396 4.755,-10.475 9.042,-14.762 14.478,-14.477 37.951,-14.477 52.429,0 14.478,14.479 14.478,37.951 0,52.43"
             style="fill:#ff8709;fill-opacity:1;fill-rule:nonzero;stroke:none"
             id="path5575" /></g><g
           id="g5577"
           transform="translate(219.499,279.0381)"><path
             d="m 0,0 c -14.478,-14.478 -37.951,-14.478 -52.429,0 -14.478,14.479 -14.478,37.952 0,52.43 14.478,14.477 37.951,14.477 52.429,0 C 14.479,37.952 14.479,14.479 0,0"
             style="fill:#ff646f;fill-opacity:1;fill-rule:nonzero;stroke:none"
             id="path5579" /></g><g
           id="g5581"
           transform="translate(219.499,331.4678)"><path
             d="m 0,0 c -4.318,4.318 -9.438,7.338 -14.88,9.08 4.1,-12.803 1.08,-27.39 -9.08,-37.55 -10.159,-10.159 -24.747,-13.178 -37.549,-9.079 1.742,-5.441 4.762,-10.562 9.08,-14.881 14.478,-14.477 37.951,-14.477 52.429,0 14.479,14.479 14.478,37.952 0,52.43"
             style="fill:#ff4755;fill-opacity:1;fill-rule:nonzero;stroke:none"
             id="path5583" /></g><g
           id="g5585"
           transform="translate(247.7539,303.2129)"><path
             d="m 0,0 -56.51,56.51 c -6.562,6.562 -6.562,17.202 0,23.764 l 6.922,6.923 c 6.563,6.563 17.203,6.563 23.765,0 l 56.51,-56.51 c 6.563,-6.563 6.563,-17.203 0,-23.765 L 23.765,0 C 17.203,-6.562 6.562,-6.562 0,0"
             style="fill:#d2f29f;fill-opacity:1;fill-rule:nonzero;stroke:none"
             id="path5587" /></g><g
           id="g5589"
           transform="translate(278.4414,333.8994)"><path
             d="m 0,0 -22.636,22.637 c 5.865,-5.866 5.865,-15.377 0,-21.243 l -20.066,-20.066 12.015,-12.015 c 6.562,-6.562 17.202,-6.562 23.765,0 L 0,-23.765 C 6.562,-17.202 6.562,-6.562 0,0"
             style="fill:#bced6b;fill-opacity:1;fill-rule:nonzero;stroke:none"
             id="path5591" /></g><g
           id="g5593"
           transform="translate(164.6377,220.0967)"><path
             d="m 0,0 -56.51,56.51 c -6.562,6.562 -6.562,17.202 0,23.764 l 6.922,6.923 c 6.563,6.563 17.202,6.563 23.765,0 l 56.51,-56.51 c 6.563,-6.563 6.563,-17.203 0,-23.765 L 23.765,0 C 17.202,-6.562 6.562,-6.562 0,0"
             style="fill:#d2f29f;fill-opacity:1;fill-rule:nonzero;stroke:none"
             id="path5595" /></g><g
           id="g5597"
           transform="translate(195.3252,250.7832)"><path
             d="m 0,0 -23.897,23.897 c 6.562,-6.562 6.562,-17.202 0,-23.764 l -18.805,-18.805 12.015,-12.015 c 6.562,-6.562 17.202,-6.562 23.765,0 L 0,-23.765 C 6.562,-17.202 6.562,-6.562 0,0"
             style="fill:#bced6b;fill-opacity:1;fill-rule:nonzero;stroke:none"
             id="path5599" /></g><g
           id="g5601"
           transform="translate(288.4375,473.5469)"><path
             d="m 0,0 c -3.272,-2.121 -6.383,-4.598 -9.264,-7.479 -22.874,-22.874 2.503,-31.042 23.194,-51.732 20.69,-20.69 28.858,-46.067 51.732,-23.194 23.048,23.048 20.203,60.768 17.092,79.092 -1.06,6.238 -6.688,11.866 -12.927,12.925 -9.891,1.68 -25.436,3.283 -41.273,0.775"
             style="fill:none;stroke:#000000;stroke-width:15;stroke-linecap:round;stroke-linejoin:round;stroke-miterlimit:10;stroke-dasharray:none;stroke-opacity:1"
             id="path5603" /></g><g
           id="g5605"
           transform="translate(302.6152,362.1553)"><path
             d="m 0,0 c -14.478,-14.479 -37.951,-14.479 -52.429,0 -14.478,14.478 -14.478,37.951 0,52.429 14.478,14.477 37.951,14.477 52.429,0 C 14.479,37.951 14.479,14.478 0,0 Z"
             style="fill:none;stroke:#000000;stroke-width:15;stroke-linecap:round;stroke-linejoin:round;stroke-miterlimit:10;stroke-dasharray:none;stroke-opacity:1"
             id="path5607" /></g><g
           id="g5609"
           transform="translate(136.3828,195.9219)"><path
             d="m 0,0 c -14.478,-14.478 -37.951,-14.478 -52.429,0 -14.478,14.479 -14.478,37.951 0,52.43 14.478,14.477 37.951,14.477 52.429,0 C 14.478,37.951 14.478,14.479 0,0 Z"
             style="fill:none;stroke:#000000;stroke-width:15;stroke-linecap:round;stroke-linejoin:round;stroke-miterlimit:10;stroke-dasharray:none;stroke-opacity:1"
             id="path5611" /></g><g
           id="g5613"
           transform="translate(219.499,279.0381)"><path
             d="m 0,0 c -14.478,-14.478 -37.951,-14.478 -52.429,0 -14.478,14.479 -14.478,37.952 0,52.43 14.478,14.477 37.951,14.477 52.429,0 C 14.479,37.952 14.479,14.479 0,0 Z"
             style="fill:none;stroke:#000000;stroke-width:15;stroke-linecap:round;stroke-linejoin:round;stroke-miterlimit:10;stroke-dasharray:none;stroke-opacity:1"
             id="path5615" /></g><g
           id="g5617"
           transform="translate(247.7539,303.2129)"><path
             d="m 0,0 -56.51,56.51 c -6.562,6.562 -6.562,17.202 0,23.764 l 6.922,6.923 c 6.563,6.563 17.203,6.563 23.765,0 l 56.51,-56.51 c 6.563,-6.563 6.563,-17.203 0,-23.765 L 23.765,0 C 17.203,-6.562 6.562,-6.562 0,0 Z"
             style="fill:none;stroke:#000000;stroke-width:15;stroke-linecap:round;stroke-linejoin:round;stroke-miterlimit:10;stroke-dasharray:none;stroke-opacity:1"
             id="path5619" /></g><g
           id="g5621"
           transform="translate(164.6377,220.0967)"><path
             d="m 0,0 -56.51,56.51 c -6.562,6.562 -6.562,17.202 0,23.764 l 6.922,6.923 c 6.563,6.563 17.202,6.563 23.765,0 l 56.51,-56.51 c 6.563,-6.563 6.563,-17.203 0,-23.765 L 23.765,0 C 17.202,-6.562 6.562,-6.562 0,0 Z"
             style="fill:none;stroke:#000000;stroke-width:15;stroke-linecap:round;stroke-linejoin:round;stroke-miterlimit:10;stroke-dasharray:none;stroke-opacity:1"
             id="path5623" /></g><g
           id="g5625"
           transform="translate(372.1309,463.8496)"><path
             d="m 0,0 16.452,16.452 c 5.528,5.528 5.528,14.524 0,20.052 -5.528,5.528 -14.524,5.528 -20.053,0 L -19.898,20.206"
             style="fill:none;stroke:#000000;stroke-width:15;stroke-linecap:round;stroke-linejoin:round;stroke-miterlimit:10;stroke-dasharray:none;stroke-opacity:1"
             id="path5627" /></g><g
           id="g5629"
           transform="translate(75.9775,207.8008)"><path
             d="m 0,0 -64.332,-64.332 c -5.528,-5.528 -5.527,-14.523 10e-4,-20.051 5.528,-5.528 14.523,-5.529 20.052,-0.001 l 64.409,64.409"
             style="fill:none;stroke:#000000;stroke-width:15;stroke-linecap:round;stroke-linejoin:round;stroke-miterlimit:10;stroke-dasharray:none;stroke-opacity:1"
             id="path5631" /></g><g
           id="g5633"
           transform="translate(482.9619,358.4619)"><path
             d="m 0,0 c -1.06,6.239 -6.687,11.866 -12.926,12.926 -18.323,3.112 -56.044,5.957 -79.092,-17.091 -22.873,-22.874 2.504,-31.042 23.195,-51.732 20.689,-20.691 28.858,-46.068 51.732,-23.194 C 5.957,-56.044 3.112,-18.323 0,0 Z"
             style="fill:none;stroke:#000000;stroke-width:15;stroke-linecap:round;stroke-linejoin:round;stroke-miterlimit:10;stroke-dasharray:none;stroke-opacity:1"
             id="path5635" /></g><g
           id="g5637"
           transform="translate(414.3867,250.3838)"><path
             d="m 0,0 c -14.478,-14.479 -37.951,-14.479 -52.429,0 -14.478,14.478 -14.478,37.951 0,52.429 14.478,14.478 37.951,14.478 52.429,0 C 14.478,37.951 14.478,14.478 0,0 Z"
             style="fill:none;stroke:#000000;stroke-width:15;stroke-linecap:round;stroke-linejoin:round;stroke-miterlimit:10;stroke-dasharray:none;stroke-opacity:1"
             id="path5639" /></g><g
           id="g5641"
           transform="translate(248.1543,84.1514)"><path
             d="m 0,0 c -14.479,-14.479 -37.951,-14.479 -52.43,0 -14.477,14.478 -14.477,37.951 0,52.429 14.479,14.477 37.951,14.477 52.43,0 C 14.478,37.951 14.478,14.478 0,0 Z"
             style="fill:none;stroke:#000000;stroke-width:15;stroke-linecap:round;stroke-linejoin:round;stroke-miterlimit:10;stroke-dasharray:none;stroke-opacity:1"
             id="path5643" /></g><g
           id="g5645"
           transform="translate(331.2705,167.2676)"><path
             d="m 0,0 c -14.478,-14.479 -37.951,-14.479 -52.43,0 -14.477,14.478 -14.477,37.951 0,52.429 14.479,14.477 37.952,14.477 52.43,0 C 14.478,37.951 14.478,14.478 0,0 Z"
             style="fill:none;stroke:#000000;stroke-width:15;stroke-linecap:round;stroke-linejoin:round;stroke-miterlimit:10;stroke-dasharray:none;stroke-opacity:1"
             id="path5647" /></g><g
           id="g5649"
           transform="translate(359.5254,191.4414)"><path
             d="m 0,0 -56.51,56.51 c -6.562,6.562 -6.562,17.203 0,23.764 l 6.922,6.923 c 6.563,6.563 17.202,6.563 23.765,0 l 56.51,-56.51 c 6.563,-6.562 6.563,-17.203 0,-23.765 L 23.765,0 C 17.202,-6.562 6.562,-6.562 0,0 Z"
             style="fill:none;stroke:#000000;stroke-width:15;stroke-linecap:round;stroke-linejoin:round;stroke-miterlimit:10;stroke-dasharray:none;stroke-opacity:1"
             id="path5651" /></g><g
           id="g5653"
           transform="translate(276.4092,108.3252)"><path
             d="m 0,0 -56.51,56.51 c -6.562,6.562 -6.562,17.202 0,23.764 l 6.922,6.923 c 6.563,6.563 17.202,6.563 23.765,0 l 56.51,-56.51 c 6.563,-6.563 6.563,-17.203 0,-23.765 L 23.765,0 C 17.202,-6.562 6.562,-6.562 0,0 Z"
             style="fill:none;stroke:#000000;stroke-width:15;stroke-linecap:round;stroke-linejoin:round;stroke-miterlimit:10;stroke-dasharray:none;stroke-opacity:1"
             id="path5655" /></g><g
           id="g5657"
           transform="translate(483.9014,352.0781)"><path
             d="m 0,0 16.452,16.452 c 5.528,5.528 5.528,14.525 0,20.053 -5.528,5.528 -14.523,5.527 -20.051,-0.001 L -19.896,20.206"
             style="fill:none;stroke:#000000;stroke-width:15;stroke-linecap:round;stroke-linejoin:round;stroke-miterlimit:10;stroke-dasharray:none;stroke-opacity:1"
             id="path5659" /></g><g
           id="g5661"
           transform="translate(192.3711,60.5479)"><path
             d="M 0,0 15.508,15.507"
             style="fill:none;stroke:#000000;stroke-width:15;stroke-linecap:round;stroke-linejoin:round;stroke-miterlimit:10;stroke-dasharray:none;stroke-opacity:1"
             id="path5663" /></g><g
           id="g5665"
           transform="translate(187.749,96.0283)"><path
             d="m 0,0 -64.331,-64.331 c -5.528,-5.528 -5.528,-14.523 0,-20.051 5.527,-5.528 14.522,-5.529 20.051,-10e-4 l 27.655,27.655"
             style="fill:none;stroke:#000000;stroke-width:15;stroke-linecap:round;stroke-linejoin:round;stroke-miterlimit:10;stroke-dasharray:none;stroke-opacity:1"
             id="path5667" /></g></g></g></g></svg>
